/* XPM */
static char *result[] = {
/* columns rows colors chars-per-pixel */
"64 64 113 2 ",
"   c #DF852A",
".  c #E18326",
"X  c #E1862B",
"o  c #E1892E",
"O  c #E5922F",
"+  c #E28D32",
"@  c #E59636",
"#  c #E69A36",
"$  c #E99E33",
"%  c #E69638",
"&  c #E69B3A",
"*  c #E89F39",
"=  c #E7A036",
"-  c #EAA136",
";  c #E6A23C",
":  c #EAA53B",
">  c #EBAA3D",
",  c #EDB43E",
"<  c #EEB83F",
"1  c #F1C500",
"2  c #F2C800",
"3  c #F2C614",
"4  c #F2C61E",
"5  c #F1C81E",
"6  c #F2C725",
"7  c #F2C926",
"8  c #F2C72C",
"9  c #F2C92B",
"0  c #F2C731",
"q  c #F2CA34",
"w  c #F2C93B",
"e  c #E69F41",
"r  c #E6A444",
"t  c #E9A643",
"y  c #EBAC41",
"u  c #E7AA49",
"i  c #E9AE4D",
"p  c #EDB245",
"a  c #EFBB40",
"s  c #ECB24C",
"d  c #F1B546",
"f  c #F1BA45",
"g  c #F0B648",
"h  c #F3BC4C",
"j  c #EAB451",
"k  c #EEBB55",
"l  c #EEBE59",
"z  c #F2BF50",
"x  c #EFC042",
"c  c #F1C543",
"v  c #F3CA45",
"b  c #F4C04E",
"n  c #F3CB4C",
"m  c #F4D249",
"M  c #EEC25C",
"N  c #F2C153",
"B  c #F3CB52",
"V  c #F1C65C",
"C  c #F4CB5C",
"Z  c #F4D155",
"A  c #F9DB57",
"S  c #F3D25D",
"D  c #F7DB5D",
"F  c #F8DC5C",
"G  c #F1C660",
"H  c #F2CB63",
"J  c #F5D366",
"K  c #F7DD66",
"L  c #F9DC64",
"P  c #F5D46A",
"I  c #F7DA6D",
"U  c #F8DC6E",
"Y  c #F4D474",
"T  c #F7DD71",
"R  c #FADE72",
"E  c #F3D67B",
"W  c #F6DD7D",
"Q  c #F9DF79",
"!  c #FAE174",
"~  c #F7E07F",
"^  c #FAE07A",
"/  c #F4D781",
"(  c #F4D98B",
")  c #F5DD96",
"_  c #F5DE9B",
"`  c #F7E182",
"'  c #F8E182",
"]  c #F8E28B",
"[  c #F7E497",
"{  c #F8E494",
"}  c #F8E69D",
"|  c #F5E0A1",
" . c #F8E7A3",
".. c #F9E8A4",
"X. c #F9EAAE",
"o. c #F6E5B4",
"O. c #F9EBB5",
"+. c #F7E7B8",
"@. c #F7E8BA",
"#. c #F9EBBB",
"$. c #F7EAC2",
"%. c #FAEEC3",
"&. c #F9EDCA",
"*. c #FBF1CC",
"=. c #F9EED1",
"-. c #FAF2D4",
";. c #FBF4DB",
":. c #FBF6E3",
">. c #FCF8E6",
",. c #FCF7E8",
"<. c #FCFAED",
"1. c #FDFCF3",
"2. c #FFFFFF",
/* pixels */
"2.2.2.2.2.2.2.2.2.2.2.2.2.2.2.2.2.2.2.2.2.2.2.2.2.2.2.2.2.2.2.2.2.2.2.2.2.2.2.2.2.2.2.2.2.2.2.2.2.2.2.2.2.2.2.2.2.2.2.2.2.2.2.2.",
"2.2.2.2.2.2.2.2.2.2.2.2.2.2.2.2.2.2.2.2.2.2.2.2.2.2.2.2.2.2.2.2.2.2.2.2.2.2.2.2.2.2.2.2.2.2.2.2.2.2.2.2.2.2.2.2.2.2.2.2.2.2.2.2.",
"2.2.2.2.2.2.2.2.2.2.2.2.2.2.2.2.2.2.2.2.2.2.2.2.2.2.1.:.-.%.%.#.O.%.&.-.:.1.2.2.2.2.2.2.2.2.2.2.2.2.2.2.2.2.2.2.2.2.2.2.2.2.2.2.",
"2.2.2.2.2.2.2.2.2.2.2.2.2.2.2.2.2.2.2.2.2.2.1.-.O.{ R K F F F F F F F F K ! { O.;.1.2.2.2.2.2.2.2.2.2.2.2.2.2.2.2.2.2.2.2.2.2.2.",
"2.2.2.2.2.2.2.2.2.2.2.2.2.2.2.2.2.2.2.2.;.O.' F F K U ! ! R R ^ R ^ R ! R R L F F ' O.>.2.2.2.2.2.2.2.2.2.2.2.2.2.2.2.2.2.2.2.2.",
"2.2.2.2.2.2.2.2.2.2.2.2.2.2.2.2.2.2.-.} U A U R Q R R R R R R R R R R R R ! R R ! U A K  .-.2.2.2.2.2.2.2.2.2.2.2.2.2.2.2.2.2.2.",
"2.2.2.2.2.2.2.2.2.2.2.2.2.2.2.2.>. .L L ! ! R R R ! R R R R R R R R R R ! R R ! ! R ^ ! F K ..>.2.2.2.2.2.2.2.2.2.2.2.2.2.2.2.2.",
"2.2.2.2.2.2.2.2.2.2.2.2.2.2.2.#.U L R ^ R R ! R R R R R R R ! ! ! ! R R R R R R R R R R ^ R L R %.2.2.2.2.2.2.2.2.2.2.2.2.2.2.2.",
"2.2.2.2.2.2.2.2.2.2.2.2.2.<.} F R ^ R R R R R R R R ! ! ^ R R R R R R ! ^ ! ! R R R R R R ! R R D } 1.2.2.2.2.2.2.2.2.2.2.2.2.2.",
"2.2.2.2.2.2.2.2.2.2.2.2.;.~ L ! R R R ! R R ! ! ! T H l i t e * e e t s l H R ! ! ! R R R R R R ! D ` :.2.2.2.2.2.2.2.2.2.2.2.2.",
"2.2.2.2.2.2.2.2.2.2.2.;.U U R ! R R R R ! ! U H j % o X X + o + + + + o X X & s H R ! ! R R ! R ! ^ K U ;.2.2.2.2.2.2.2.2.2.2.2.",
"2.2.2.2.2.2.2.2.2.2.-.K U R R R R R R ! R V r o X + % * * t y > t t t * & % + X o t V R ! R R R R U ^ U m =.2.2.2.2.2.2.2.2.2.2.",
"2.2.2.2.2.2.2.2.2.:.U U ! R R R R R ^ H t X X % t p d g h b b b z h z h h d d * % o + t H ^ R R ! R U S 0 w ;.2.2.2.2.2.2.2.2.2.",
"2.2.2.2.2.2.2.2.<.' K Q R R R R R R l + X % p d h z h h h h h h h h h h h h h h d y & X @ l ! Q R R Z w B 0 S 1.2.2.2.2.2.2.2.2.",
"2.2.2.2.2.2.2.2.} F W R R R R ! T i X O t g N z h h h h h h h h h h h h h h z h h h h y + X j R ! Z v v v B 1 ( 2.2.2.2.2.2.2.2.",
"2.2.2.2.2.2.2.%.F ^ R R R T R T t X * d z z h h h h h h h h z h h h h h h h h h h h h h d & . t Z v v v v v n 1 +.2.2.2.2.2.2.2.",
"2.2.2.2.2.2.,.U R R R R R ! T r o t b b h h h h h h h h h h h h h h h h h h h h h h h h h h > o = v v v v v n w n >.2.2.2.2.2.2.",
"2.2.2.2.2.2. .D ! U R R R ! i . y h h h g h h h h h h h h h h h h h z z h h h h h h h h h h p # + > v v v v v B 1 ) 2.2.2.2.2.2.",
"2.2.2.2.2.;.K R R R R R ^ l . t h h h h h f h h h h h h h h f f h f g h z h h b h h h h h > - - # + , v v v v n c q ;.2.2.2.2.2.",
"2.2.2.2.2. .K R R R R ! P o : N J P J J P P P P J J J J P P P P J J C h g h h h h h h J J H H J H & @ x v v v v B 1 ) 2.2.2.2.2.",
"2.2.2.2.>.R U ! R R R ! t % h N ! ! ! ! ! R ! ! ! ! ! ! ! ! ! R ! ! R U V f h h h h N R ! ! ! ^ ! y o : v v v v n c v ;.2.2.2.2.",
"2.2.2.2.#.F R ! R R ! H o h h z U R R U R R R R R R R R R R R R U R R R R C g h z g p P ! U R R U > * @ a v v v v B 1 o.2.2.2.2.",
"2.2.2.1.] K Q R R R U t : z h z R ! R R R ! R R R R R R R R R R R R R R R ! C h h > > I R R R R U > > # ; v v v v n 6 Y 1.2.2.2.",
"2.2.2.:.K R R ! R ! H % h z h N R R R R R R ! ! ! ! ! ! ! ! ! R R R R R R R U N y - y I ! R R ! R t - : @ x v v v v n 6 ;.2.2.2.",
"2.2.2.#.F ! ! R R ! j : z h h N R R R R R R H H H H H H H H H P ! ! R R ! R ! V = - > I ! T R ! U y - > @ , v v v v B 2 #.2.2.2.",
"2.2.2. .F ^ ! R ! U t d h h h z U ! R R ! P + . . o o o o o o o j R R R R U ! J > - y U ! T R ! U y - > # : v v v v B 2 ) 2.2.2.",
"2.2.1.] L ^ R R ^ H t h h h h N U ! R R ! U t : t : * : : * : : . l ! R R R ! U > : > I ! R R R R t : > : # x v v v n 8 P 1.2.2.",
"2.2.,.R U ! U R ! V p h h h h z R R R R R U N z z C C C C C V N p r ! R R R R U t - y I ! T R ! U y - : > & < v v v n c v ,.2.2.",
"2.2.:.K R R R R ! N d b g h h z R R R R ! K z f z R Q R R ! I N h i U ! R R R U y - y I ! R R ! U y : > > & , m v v v n 5 :.2.2.",
"2.2.-.D R R U ! R l g h h h h N R R R R ! U z f z T R R R ! R h f h T R R R R U y - > U R U R R U y - : : - > v v v v n 1 -.2.2.",
"2.2.*.F ^ ! R ! R k g N z h h N R R R R ! U h h N R R R R ! U z g d U R R R R U y - y I ! R ! ! U y : > : : > v n v c n 1 &.2.2.",
"2.2.*.F Q R R R R z g h z z f z R R R R ! U h g N R R R R R U z > y T ! R R R U > = y I R R R ! T y - : > : > v v v c B 1 $.2.2.",
"2.2.*.F R ! R ! R z h h h h h N U ! R R R U z h N R ! R R ! U p $ y U ! R R ! U y - y I ! R R ! U y - > > - y v v v v n 2 &.2.2.",
"2.2.-.F Q R R U R C d h h h h N R R R R R U z f N U R U R ! P > - y U R R R R U > - > U R R R ! U t : > : : , v v v v n 1 &.2.2.",
"2.2.;.L R R ! ! R C h h h h h z R R R R ! U z d N R R R R ! I > - y U ! R R R U p - y I ! R R R R y - > : - a v v n c n 1 -.2.2.",
"2.2.:.U R ! U ! ! H h h h h h N R ! R R R U z f z T ! R R ! I y - y R ! R R R I > - t I ! R R ! U y - : > ; a v v v v n 8 :.2.2.",
"2.2.,.Q U ! U R ! P g z h h h z R R R R R U z h N T R R R ! I > - y ! ! ! ! ! ! t - > I ! U U ! U y : : : : x v v v n w B 1.2.2.",
"2.2.1.{ L ^ ! U ! U z h h h h z U R R R R T z g N R R R U ! I > - > i s i i i i > - p R R R ! ! T y : : : > v v v c n 6 E 1.2.2.",
"2.2.2.X.F ^ R R R R N f h h h N R ! R R ! U N g z T R R R ! P > : : o X o o . o - - V ! R R R ! I y - > - , v v v v B 1 | 2.2.2.",
"2.2.2.*.L ! R R R R S h h h h N U ! R R R U N d g U R R R ! U > - - # # $ # # & : N ! R R R ! ! P - > : - f v v v v B 1 &.2.2.2.",
"2.2.2.:.R K ! R R R U h g h h z R R R R R U z : u U R R R R U J H J J H J H J J P R R R ! U R ! l $ > - > c v v v n c v ,.2.2.2.",
"2.2.2.2.} L Q R R R ! C g b h N R R R R ! U d $ p I ! R R R ! ! ! ! ! ! ! ! ! ! ! R R R ! U ! U ; ; > - < m v v c B 1 ( 2.2.2.2.",
"2.2.2.2.*.F R ! ! R ! I b z h N R R R R R I : - y T ! ! R R ! R R R ! R R R ! U R R ! R T ! ! j O : > > c v v v v B 1 $.2.2.2.2.",
"2.2.2.2.<.' U R R R U ! C g f N R R R U R U > $ p I R T R R U R U R R R R R U R R R R R ! ^ k o : : - < v v c v B 8 J ,.2.2.2.2.",
"2.2.2.2.2.#.L R R R R R U N f N ! ! ! ! ! R y $ s ! ! ! ! ! ! ! ! ! ! ! ! ! ! ! ! ! ! R P u   & : : > v v v v c B 1 o.2.2.2.2.2.",
"2.2.2.2.2.<.^ U ! R R R ! P h h H G H H H V : : y M H G H H C H H H H G H H H H H H l i + o & : : : x v v v v B 0 C ,.2.2.2.2.2.",
"2.2.2.2.2.2.#.F ^ R R R ! ! J p + o o o o o : : - + o o o o X o o o o o o o o   . o . o @ * : : : x m v v c v B 1 +.2.2.2.2.2.2.",
"2.2.2.2.2.2.2.] K ! U ! R R ! V @ % # % % # : : - % @ % % % % % % # @ % % % % % % % * : - : : : < v v v v v n 7 Y 1.2.2.2.2.2.2.",
"2.2.2.2.2.2.2.;.K R R ! R R R Z , : : : : : : : : : : : : : : : : : : : : : : : > - - > : > ; x v v v v v v v 9 ;.2.1.2.2.2.2.2.",
"2.2.2.2.2.2.2.2.%.A ^ R R R Z c m f : - > > > : : > : : : : : > : > : : : : : > : : > > : : x v v v v v v B 1 +.2.2.2.2.2.2.2.2.",
"2.2.2.2.2.2.2.2.2. .F ^ T Z w v c v c , - : : : > : : : : > > : : : > : : : : : : > : ; > c v v v v v v B 1 ) 2.2.2.2.2.2.2.2.2.",
"2.2.2.2.2.2.2.2.2.1.[ F S v v v v v v v a : - : : : > : : : : : > : : : : > : : : - > < v v v v v v v B 1 / 1.2.2.2.2.2.2.2.2.2.",
"2.2.2.2.2.2.2.2.2.2.1.W 2 B v v v v v v v v a > : : : : : > > : : : : : : : - : > < v v v v v v v n B 1 E 1.2.2.2.2.2.2.2.2.2.2.",
"2.2.2.2.2.2.2.2.2.2.2.<./ 1 B n c v v v v v v c f , > > - : : : : : : : > > , c v v v v v v v c n B 1 ( 1.2.2.2.2.2.2.2.2.2.2.2.",
"2.2.2.2.2.2.2.2.2.2.2.2.1.) 1 v n c v n v v v v v v v c f w d < < < f < c v v n v v v v v v c B c 1 } 1.2.1.2.2.2.2.2.2.2.2.2.2.",
"2.2.2.2.2.2.2.2.2.2.2.2.2.2.@.9 4 B v v v v v v v v v v v v c v v v m v v v v v v v v v v n n 3 q #.2.2.2.2.2.2.2.2.2.2.2.2.2.2.",
"2.2.2.2.2.2.2.2.2.2.2.2.2.2.2.;.Y 1 w n n v v v v v v v v v v v v v v v v v v v c v v n n q 1 / :.2.2.2.2.2.2.2.2.2.2.2.2.2.2.2.",
"2.2.2.2.2.2.2.2.2.2.2.2.2.2.2.2.2.$.J 1 8 c n n n v v v v v v v v v v v v v v n B n c 9 1 J &.1.2.2.2.2.2.2.2.2.2.2.2.2.2.2.2.2.",
"2.2.2.2.2.2.2.2.2.2.2.2.2.2.2.2.2.2.1.@.Y 7 1 8 c n B B n n n n n n n B B B n c 8 1 9 Y $.1.2.2.2.2.2.2.2.2.2.2.2.2.2.2.2.2.2.2.",
"2.2.2.2.2.2.2.2.2.2.2.2.2.2.2.2.2.2.2.2.1.-._ P 0 2 1 3 8 w w c v w q 8 3 2 2 0 P | =.2.2.2.2.2.2.2.2.2.2.2.2.2.2.2.2.2.2.2.2.2.",
"2.2.2.2.2.2.2.2.2.2.2.2.2.2.2.2.2.2.2.2.2.2.2.<.;.+.) E H B w w q w B H E _ +.;.1.2.2.2.1.2.2.2.2.2.2.2.2.2.2.2.2.2.2.2.2.2.2.2.",
"2.2.2.2.2.2.2.2.2.2.2.2.2.2.2.2.2.2.2.2.2.2.2.2.2.2.2.2.<.>.:.;.:.:.,.<.1.2.2.2.2.2.1.2.2.2.2.2.2.2.2.2.2.2.2.2.2.2.2.2.2.2.2.2.",
"2.2.2.2.2.2.2.2.2.2.2.2.2.2.2.2.2.2.2.2.2.2.2.2.1.2.2.2.2.2.2.2.2.2.2.2.2.2.2.2.2.2.2.2.2.2.2.2.2.2.2.2.2.2.2.2.2.2.2.2.2.2.2.2.",
"2.2.2.2.2.2.2.2.2.2.2.2.2.2.2.2.2.2.2.2.2.2.2.2.2.2.2.2.2.1.2.2.2.2.2.2.1.2.2.2.2.2.2.2.2.2.2.2.2.2.2.2.2.2.2.2.2.2.2.2.2.2.2.2."
};
