/* XPM */
static char *result[] = {
/* columns rows colors chars-per-pixel */
"64 64 255 2 ",
"   c #310205",
".  c #251D21",
"X  c #52050A",
"o  c #630204",
"O  c #76000B",
"+  c #593606",
"@  c #6B3405",
"#  c #560034",
"$  c #5D163D",
"%  c #5C183E",
"&  c #680A37",
"*  c #751C38",
"=  c #4B302F",
"-  c #4A3437",
";  c #6A392E",
":  c #7A2236",
">  c #035902",
",  c #1B5E25",
"<  c #306B2F",
"1  c #5C5402",
"2  c #6E4A0D",
"3  c #556905",
"4  c #564A38",
"5  c #6D4E2B",
"6  c #6B483B",
"7  c #6B5635",
"8  c #6E533B",
"9  c #745737",
"0  c #71563A",
"q  c #735A3C",
"w  c #5D7731",
"e  c #6B6A34",
"r  c #4F1A45",
"t  c #551B44",
"y  c #581B46",
"u  c #5A1C45",
"i  c #700845",
"p  c #631D43",
"a  c #6F1F45",
"s  c #582348",
"d  c #5C234B",
"f  c #54334C",
"g  c #642146",
"h  c #6B2244",
"j  c #62264C",
"k  c #692549",
"l  c #66294B",
"z  c #6B2C4B",
"x  c #732746",
"c  c #63324F",
"v  c #6D324C",
"b  c #7B3147",
"n  c #73334E",
"m  c #6C2B52",
"M  c #673654",
"N  c #6C3355",
"B  c #6E3C5C",
"V  c #733553",
"C  c #743A55",
"Z  c #793954",
"A  c #723D5C",
"S  c #584D49",
"D  c #664D42",
"F  c #684D41",
"G  c #675245",
"H  c #6E5442",
"J  c #715542",
"K  c #785A44",
"L  c #6C4A59",
"P  c #784259",
"I  c #7C435B",
"U  c #7E495C",
"Y  c #526B50",
"T  c #6F684C",
"R  c #69794A",
"E  c #757343",
"W  c #72754B",
"Q  c #74794D",
"!  c #6B7B59",
"~  c #747853",
"^  c #774860",
"/  c #7F4961",
"(  c #6D5164",
")  c #717069",
"_  c #880003",
"`  c #8F000E",
"'  c #AF080D",
"]  c #AA1C1C",
"[  c #B61D17",
"{  c #AF210E",
"}  c #AC231D",
"|  c #AC271D",
" . c #B5251B",
".. c #BB241A",
"X. c #901529",
"o. c #941C28",
"O. c #A31D22",
"+. c #992829",
"@. c #8C2735",
"#. c #922733",
"$. c #922F34",
"%. c #A72925",
"&. c #AB2B24",
"*. c #AE2F26",
"=. c #D30B03",
"-. c #C6190E",
";. c #C41C14",
":. c #CA1B11",
">. c #D62D0C",
",. c #C72615",
"<. c #CE2415",
"1. c #D32514",
"2. c #D42A13",
"3. c #DA2A13",
"4. c #D82F16",
"5. c #CE3717",
"6. c #D83915",
"7. c #E42F0E",
"8. c #E4320D",
"9. c #EB390E",
"0. c #E53612",
"q. c #915108",
"w. c #855330",
"e. c #8E642C",
"r. c #A5612D",
"t. c #D44716",
"y. c #E8460E",
"u. c #F94A09",
"i. c #FD5404",
"p. c #E74816",
"a. c #F44512",
"s. c #F44A13",
"d. c #F95416",
"f. c #EE6C0F",
"g. c #FC6317",
"h. c #F75723",
"j. c #EB6F30",
"k. c #873A46",
"l. c #88374B",
"z. c #8F4A4F",
"x. c #814858",
"c. c #A14F4F",
"v. c #887A4B",
"b. c #8D7252",
"n. c #AC7347",
"m. c #804A61",
"M. c #805263",
"N. c #8C766E",
"B. c #B06865",
"V. c #C86945",
"C. c #009100",
"Z. c #289914",
"A. c #00A600",
"S. c #1AAB00",
"D. c #5A8534",
"F. c #57864E",
"G. c #67894A",
"H. c #75864E",
"J. c #6C8D57",
"K. c #768B53",
"L. c #758857",
"P. c #6C9359",
"I. c #76935B",
"U. c #74955E",
"Y. c #69A95D",
"T. c #5B996B",
"R. c #6C8364",
"E. c #68896A",
"W. c #689763",
"Q. c #6C9A63",
"!. c #749661",
"~. c #759A63",
"^. c #799A64",
"/. c #7A9966",
"(. c #7A9D6A",
"). c #6F8C73",
"_. c #669779",
"`. c #78AB71",
"'. c #7DC077",
"]. c #868957",
"[. c #938E58",
"{. c #AF8250",
"}. c #8C8B6E",
"|. c #888678",
" X c #869D75",
".X c #A88D76",
"XX c #86A376",
"oX c #EE8351",
"OX c #F39570",
"+X c #6F7C85",
"@X c #8B7E8A",
"#X c #D06CB1",
"$X c #69998A",
"%X c #5DA88B",
"&X c #5DB497",
"*X c #5DBC9C",
"=X c #66A383",
"-X c #68AE93",
";X c #77AEB0",
":X c #3DDCB3",
">X c #47C49E",
",X c #5AC9A6",
"<X c #46D5AE",
"1X c #59D2AD",
"2X c #55DBB5",
"3X c #58D8B3",
"4X c #4DE5BE",
"5X c #54E3BD",
"6X c #58E2BD",
"7X c #53E9C4",
"8X c #54ECC5",
"9X c #47F1C5",
"0X c #54F1C7",
"qX c #53F4CA",
"wX c #72EECD",
"eX c #8D828B",
"rX c #988886",
"tX c #92978F",
"yX c #968B96",
"uX c #9B939A",
"iX c #A2988A",
"pX c #A99A95",
"aX c #B09191",
"sX c #90A985",
"dX c #AAA598",
"fX c #B2A89C",
"gX c #B09BA3",
"hX c #8EAFAE",
"jX c #B6AFAC",
"kX c #C8AE99",
"lX c #F5AC95",
"zX c #C8B4A2",
"xX c #C3B8B7",
"cX c #9FCB9C",
"vX c #8CD0BE",
"bX c #B1CAAE",
"nX c #C7C4BD",
"mX c #EECEBC",
"MX c #C0BBC1",
"NX c #93CEC4",
"BX c #B1CECA",
"VX c #8BE8D1",
"CX c #B3E4DE",
"ZX c #CDCDC9",
"AX c #D7D6D5",
"SX c #E5DBDB",
"DX c #C7E2D9",
"FX c #D9E7D9",
"GX c #E2E0DB",
"HX c #D6F2EE",
"JX c #E7EAE6",
"KX c #EFF3F0",
"LX c #F3F4F2",
"PX c #F5FBF9",
"IX c #FDFEFD",
/* pixels */
"$ $ $ $ % % $ $ $ $ % $ $ $ $ $ $ u $ $ $ $ u $ $ $ $ $ u $ $ g l s u $ $ $ $ $ y y y y # y y t t y r t r r r y r r t r r r r r ",
"s s y s s s s s s t t s y u u u t y t % t u t y u u u u y y p X   X y s u t t r y y y y y y y y y y # y y y y y y y r r t r r r ",
"s u s s d s s s s t y y y y y s y y s y u t y t y y t u r d # hXZX$Xf d j u u u d y d d p p y p y y y y y y y r y y y y t r r r ",
"$ $ p p $ p p $ p p p p p p p p g p g p p g g g g g p z M X hXHXAXKXhXX i c u p d d d d y d d d j d d p d d d d u u u u s t s s ",
"x a h k a p h k a h p p h h g p a p g g k k k k l k N # # N.dXb.+ aXIXBXY i m d d d m d j d j j j j j j d j d j d d j d d d d d ",
"k k p k k k k k j k z k k j k l j m m j m j j j c B # +XAXgX+ I.Q.e aXPXHX$Xr N B M M m N N N N N N m B M B m B B B M N c N c c ",
"x x k x x x h z m n V m m V v N V N N V N N N B m # tXDXjXQ ~.!.!.(.w iXLXLXNXd i B B B B B B B B B B A B B B ^ B B B B B B B B ",
"Z b Z Z Z Z Z Z Z V Z C V C V C V V Z Z A A B i L jXjXK w ^.U.U.!.U.(.w uXIXPXDX+Xi B ^ B B B A B B B B B B B B B B B ^ B B ^ A ",
"x.Z I Z I Z A Z Z Z C Z Z C Z C A Z Z A Z / i +XDXpX+ J.^.U.!.U.U.U.~.P.sXZXfXIXPX;Xj m A Z A V C N C N N V N N B N N N V m V N ",
"I I m.I U I I U A / P P I P P A Z A A I I & yXHXrX1 ~.!.!.!.!.!.U.!.!.P. XXX3 |.JXPXCX) & A V V V V V V V C V V V V V V V n n V ",
"m.m.m.m.m.m.m./ m.m.m./ / / I I A Z / Z # BXPXpX3  XU.U.!.!.!.U.U.U.!.!.U.U.(.G.5 xXIXDX+X& x N N V V V V V n n V n n b n x n b ",
"m.m.x./ / U U U x./ / U / U I P / l.& L ZXLXjXw (.U.U.!.U.!.!.!.!.!.!.!.!.!.!.^.W.7 N.KXHXNX( & P V V C V V V V V V Z n V Z V m ",
"m.m.x.m.x.x.x.U x.U U U I m.I U A A uXAXgXW ~.!.U.U.U.U.U.U.U.U.!.!.!.!.U.U.U.U.!.(.w K SXIXBXL V P C n C M N V n n n v n n n z ",
"U I U U x.P U U U I U U U / / l.B CXHXN.3 ~.!.U.U.~.U.U.U.!.U.Q.!.!.!.!.U.~.!.~.U.!.(.R |.LXLXHX( & n L v v v v v v v v n z v n ",
"x.P U x.P x.U U x.x.I U x.x.x +XDXJXb.G.(.!.!.!.!.!.!.U.!.U.U.U.U.U.!.!.!.U.!.U.U.!.U.U.XXiXN.LXJXtXc & z V v v v v v v v v v v ",
"$.z.P k.z.Z k.l.k.x.l.x.l.l.NXHXSX~ G./.U.!.!.!.U.U.!.!.U.U.!.!.!.U.!.!.U.!.U.~.!.!.U.U././.e 6 JXPXCX;X^ a M v v v z z l z z z ",
"P w.k.k.k.k.k.k.k.@.k.k.x.vXJXSXW J.~.!.!.U.!.U.!.U.!.!.!.!.!.!.!.!.!.!.U.!.!.!.U.~.!.!.!.!.(.G.b.aXJXHXVXN x x * h p a h h h x ",
"@.l.k.l.k.k.k.$.k.z.@.l.BXrX;  XU.~.U.U.!.U.U.!.U.U.!.U.!.!.!.U.!.!.U.U.!.U.U.!.!.U.!.!.!.!.!.~.Q.1 o ZXPXhXo b h * * * * : * : ",
"@.@.#.@.#.#.#.#.k.` O nX@X@ I.~.U.!.U.!.U.U.U.!.U.~.!.U.U.!.U.Q.U.!.!.U.!.U.U.U.U.!.U.!.!.U.~.U.!.(.R @ gXxXeXo * k.* * * * * * ",
"#.X.o.o.#.o.#.$._ c.GXjX1  XJ.U.U.U.U.U.U.U.U.U.U.!.U.U.U.U.!.U.U.U.!.U.U.U.U.!.!.U.U.U.!.U.U.U.!.!./.R N.JXIXZXo O @.* : : : : ",
"@.#.@.#.#.#.#.` aXJXxX}.P.!.U.!.U.U.U.U.U.!.!.!.!.!.U.U.!.!.!.!.~.!.U.!.!.U.!.U.!.U.!.U.U.U.~.~.!.!.U.~.R.x.gXIXJXN.` @.o.: @.: ",
"@.@.#.@.#.#._ zXKXZX   XU.!.U.!.U.U.U.U.U.!.W.!.U.!.!.!.!.!.!.!.U.!.U.U.U.!.!.U.!.!.!.U.U.U.U.U.!.!.!.Q.v.` o rXKXPXM.` @.o.o.o.",
"@.#.$.#.$.O xXIXN.c.#.J.~.U.U.!.~.~.~.~.~.~.!.!.U.U.U.!.!.!.~.~.~.~.~.~.!.U.!.~.~.~.~.~.~.~.~.!.!.!.U.!.W X.*.O @XLXc._ +.+.o.` ",
"+.+.+.%.$._ MXZX_ o.$.P.~.U.!.!.~.Q W Q W W W W L.~.U.!.L.W W W R Q W W !.!.!.H.W Q Q Q W W ~ ~.!.U.!.!.W o.%.*.*.aXB.' +.| O.| ",
"+.+.+.%.$.} w.c.] *.; Q.U.U.!.!.K._.2X2X,X*X2X1X! U.!.U.! 1X2X,X*X2X2XE.K.~.U.! 1X2X,X*X2X3XR.K.!.U.U.~.~ O...*.{ { &. .&.} } &.",
"+.| %.%.%.%.} ] *.%.$.W.U.~.!.~.K.=X9X0X1X3XqX8XE.!.!.I.R.7XqX6X1XqXqX_.K.~.U.R.7XqX6X3XqXqX_.I.~.U.U.~.~ ' *.%.%.%.] &.] ] ] ] ",
"%.%.%.%.%.%.%.%.%.%.*.I.U.U.U.!.K._.qX0X3X3XqX7XR.I.~.U.! 7XqX6X1X0X0X_.H.~.I.R.7XqX2X3X0X7X_.K.~.U.U.~.H.[  .} ]  .&.] } ] ] [ ",
"%.%.| %.%.*.*.*.&.*.] ].Q.U.U.~.I._.3X3X*X*X3X1XL.I.!.U.! ,X3X*X&X3X3XE.L.~.U.! ,X3X,X*X3X1XE.L.~.U.U.U.b.' ....[ [ [ [ [ [ ] [ ",
"&.&.| | | &.&.*.&.&.] b.~.~.U.~.K._.5X5X,X,X7X2X! !.!.!.! 2X7X1X,X5X5X_.K.~.I.! 2X6X1X,X7X2XE.K.~.U.U.Q.c.=.<...;.[ ;.;.;.[ [ [ ",
"| | | | | |  .*.|  .[ ].Q.!.U.~.K._.0XqX1X3X0X7XE.!.!.!.! 7XqX2X,X8X8X_.K.~.U.R.7XqX2X3X0X8X_.K.~.U.U.Q.r.=.;.;.;.;.;.;.;.;.:.:.",
"{  . . . . . .......*.I.~.U.U.~.K.=XqXqX3X2XqXqXE.U.!.I.R.7XqX6X1XqX9X$XK.~.I.R.7XqX6X3XqXqX_.L.~.!.U.Q.c.=.;.:.;.;.;.;.-.-.-.-.",
" ..... .....,. .....,.].Q.U.U.~.K.R.*X*X=X%X*X*XT !.!.U.T &X*X%X=X*X*X! L.^.J.T &X*X%X%X*X*X! L.~.!.!.Q.n.=.<.<.:.<.;.-.-.-.-.-.",
"................,...;.].~.U.U.U.U.L.E E Q Q E E ~ U.U.U.H.E W W W E E ~ !.!.!.~ E E Q Q e Q H.U.U.U.U.Q.n.=.1.1.1.1.1.:.:.:.:.-.",
";.;.;...<...;.;.,.,.;.].Q.U.U.U.!.~.~.~.~.~.~.~.~.!.!.!.~.~.~.~.~.~.~.~.!.!.U.~.~.~.^.~.^.(.~.^.U.!.U.Q.n.=.<.<.1.1.1.1.3.3.3.1.",
"<.<.1.<.<.1.<.<.,.<.<.].U.U.U.U.!.!.U.U.U.U.U.U.U.!.!.!.!.U.!.!.~.U.!.U.U.U.U.U.U.!.!.!.U.~.U.U.!.U.U.Q.n.=.<.<.1.1.:.<.1.:.1.1.",
"1.1.1.1.1.4.4.3.3.1.5.J.~.!.U.U.!.!.U.U.U.U.U.U.!.!.U.!.!.!.!.!.!.!.!.U.U.U.U.~.!.U.!.~.U.U.U.U.!.!.U.Q.b.=.<.1.1.<.<.1.1.1.1.1.",
"3.3.1.3.3.3.3.1.4.=.V./.U.~.U.~.!.!.!.!.U.!.U.~.!.!.!.U.!.!.!.!.!.!.~.U.~.~.U.!.!.!.!.U.U.!.U.!.!.!.U.Q.v.>.6.3.8.3.3.>.3.3.3.3.",
"0.3.7.7.0.0.7.0.0.0.4.L.~.U.U.U.U.!.!.!.U.!.U.U.U.!.U.U.!.U.U.U.U.!.U.U.U.U.!.U.U.U.U.U.U.!.U.!.!.!.!.Q.n.7.0.3.6.3.0.>.7.7.3.8.",
"9.9.0.9.9.0.9.0.0.0.p.}.U.U.~.U.I.!.!.!.U.!.!.!.!.!.!.!.!.U.!.U.!.!.U.!.U.U.U.U.!.U.!.!.!.!.U.U.~.~.U.Q.b.=.2.2.2.2.,.>.2.2.>.2.",
"9.9.9.9.0.a.9.9.9.0.p.].Q.U.U.U.W.!.!.!.U.!.U.!.!.!.!.P.I.P.I.U.I.P.U.P.U.U.U.~.!.U.U.!.U.U.!.!.U.U.U.~.e.>.3.2.>.2.2.>.2.2.2.2.",
"0.0.8.8.8.8.8.8.8.0.8.[.U.U.U.Q.U.!.~.~.!.~.~.~.!.!.~.XXXXXX(.`.(.XXXX(.`.^.!.!.~.!.~.~.~.~.~.!.!.!.~.~.].=.6.2.,.2.2.,.>.,.,.,.",
"8.8.8.8.9.8.9.9.9.0.9.n.P.U.U.U.!.I.H.H.L.K.H.H.U.P. XpXdXiXiXrXiXdXiXdXiX|.!.I.L.L.K.K.H.H.U.!.!.!.U.Q.v.>.5.5.5.5.5.5.5.5.5.t.",
"a.a.a.a.a.a.a.a.a.s.u.[.Q.U.~.U.!.~ _.=X_.E.=X=XR.K.U.e X ; = ; ; ; = ; @ !.U.! $X=XE._.=X=X~ U.!.U.!.Q.].>.t.t.6.6.6.6.5.5.5.5.",
"a.u.a.a.s.a.s.a.a.a.u.[.Q.U.U.U.!.~ 4XqX7X1XqXqX%XQ ^.~ H J J G S H G 6 0 ~.K.=X9XqX1X2XqX7XR.I.~.!.~.Y.e.y.p.p.p.p.t.p.y.y.6.y.",
"u.u.d.u.s.s.s.d.d.s.h.].P.~.!.U.^.! 2X0X2X,X7X0X-XH.P.W 6 H H D 6 8 H F 0 !.K._.8X0X1X1X8X7XR.I.!.~.U.Q.{.y.y.p.s.y.p.y.y.y.y.y.",
"d.d.d.d.d.h.h.h.d.u.j.T.~.U.U.U.U.~ 2X0X2X,X7X7X&Xb.aXW ; H H 8 D G G D 8 !.K._.8X8X1X1X0X2XR.U.U.U.U.W.{.i.g.d.d.d.d.d.s.y.s.u.",
"g.g.g.g.i.i.i.i.i.i.OX`.I.!.U.~.~.~ *X1X*X-X,X1XT.N.#X~ 6 G J D 8 H H D 8 !.K._.1X1X&X*X1X,X! U.Q.U.^.W.V.i.i.i.d.i.i.i.i.i.i.i.",
"t.f.g.g.OXOXlXlXOXf.kX`.P.!.U.!.U.~ 6XqX6X,X0XqX%XN.#XW 6 H J D D G J 6 6 U.K._.8XqX1X3XqX8XR.U.~.U.U.W.n.g.OXoXi.j.j.j.oXf.j.[.",
"4 7 9 q ].|.N.|.! e W !.!.!.U.!.^.~ :X9X:X>X9X9XT.N.#X~ v H G D D H H 4 6 ~.K._.0X0X>X<X9X9XJ.I.~.U.U.~.H.e N.~ e b.b.w T q U.W.",
"e K 0 q 5 5 5 2 5 K 8 J.W.I.!.!.!.R.VXVXVXvXVXVX*X].aX~ ; J H H H H D 8 8 ~.L.=X8X0XvXVXwXwX! I.!.U.!.~.K.K 5 9 8 5 8 0 6 q I.~.",
"q q 0 0 q K q 7 q 2 + I.!.U.U.!.P.b.fXpXfXdXiX|.N.H.~.W F K J H 8 J - f 0 !.K.T R.).dXfXtX|.T U.~.U.!.~.e X 1 9 9 q q 7 0 q I.U.",
"q q 0 q q K K 7 7 iXiX!.!.U.U.U.U.P.G.G.G.G.G.J.J.!./.W ; H J J H J S f 9 U.!.U.I.K.G.G.G.K.~.U.U.U.~.J.dXZXfXq 5 q q 9 0 q K.~.",
"q q 7 5 5 2 @ 2 nXHXmX[.W.!.!.!.U.!.~.~.~.~.~.~.!.U.!.W 6 J H H H J D D 8 U.U.~.^.!.^.^.^.^.U.~.~.U.!.G.bXFXDXnXq 9 q 7 0 0 !.U.",
"q q 6 b.}.rXiXbX`.> q.I.P.!.!.!.U.U.U.!.~.U.U.U.U.U.~.W 6 H H H H H J H 6 U.U.U.!.!.!.U.U.U.U.U.U.U.U.^.F.> > (.b.7 T q 0 q I.~.",
"E q T sX`.bXcX`.C.< , T.!.U.U.U.U.~.!.!.!.U.U.~.U.U.~.W ; J H H H H H 6 8 U.!.U.U.!.!.!.U.U.I.^.U.U.U.~.F.< < > 2 0 8 H H K I.!.",
"2 @ 1 C.C.C.A.C.Z., - I.U.U.!.U.!.!.U.!.U.!.U.U.U.!.~.W F K H H J H K J 8 /.!.!.!.U.!.!.U.^.U.I.U.~.U.^.F.e e.e.[.2 q.0 7 2 J.!.",
"pXfXiX> > , , < ,   , E.!.!.!.!.~.U.U.U.U.U.U.U.~.J.J.e ; J D D D 6 ; = + R I.!.U.U.U.U.U.U.I.^.U.U.U.^.Y w.e.w.w.5 e.q.e.|.I.!.",
"IXIXIX=XY.F.F.< < Y - J.!.!.!.!.^.U.U.U.U.U.U.~.U.XX X( S . = = - = ) +X) )  X!.U.U.~.U.~.~.~.Y.U.U.U.^.w q.q.@ @ q.2 r.e.SXsXJ.",
"IXIXIXIXIXPXLXJXJXLXSX).^.^.J.G.P.U.~.U.^.~.~.~.R ) uX) f = - = = - ) ) N.$XN.S K.^.U.U.U.[..XfXbX}.U.I.$XfX{.N..X.XN.q.q.{.XXI.",
"IXIXIXIXIXIXIXIXLXPXKXJ.D.~.sXsXXXG.G.G.G.P.P.R S   ) tXjXjX@X) - =             Y P.I.J.iXfXjXaX.X[.^.D.bXIXLXIXLXJXAXzXAXGXsXU.",
"IXIXIXIXIXIXIXIXIXIXIXbXZXPXIXIXLXFXAXAXbXXXXXS f S -   f S = - - - - f - - S ( L ). X X.X.X.X.X.X.XXX XbXIXIXIXIXIXIXIXIXIX XD.",
"IXIXIXIXIXIXIXKXFXLXFXcXcXJXLXIXIXPXIXIXIXJXLXLXJXKXJXZX@X@XeXyX@X@X@X@XeX@XjXKXPXPXIXIXLXKXKXKXLXLXLXLXLXPXIXIXIXPXIXIXIXIXZXbX",
"IXIXIXIXIXIXKXS.A.Y.A.A.S.Y.cXFXJXFXFXDXFX`.'.bXPXIXIXIXAX@XuXuXyXuXuXuXuXuXyXjXAXJXLXIXIXIXIXIXIXIXIXIXIXIXIXIXIXIXIXIXIXIXIXIX",
"IXIXIXIXPXIXPXFXJXKXKXPXPXIXJX'.A.A.A.A.A.A.A.A.cXFXPXIXIXMXyXuXyXyXuXyXuXyXuXeX@X@XyXuXjXMXZXSXKXPXIXIXIXIXIXIXIXIXIXIXIXIXPXIX"
};
