/* XPM */
static char *result[] = {
/* columns rows colors chars-per-pixel */
"64 64 249 2 ",
"   c #000005",
".  c #290000",
"X  c #340610",
"o  c #3F0022",
"O  c #2B3D31",
"+  c #5A1E00",
"@  c #630603",
"#  c #5B3600",
"$  c #553110",
"%  c #633C03",
"&  c #703205",
"*  c #422B2C",
"=  c #5E3127",
"-  c #442E30",
";  c #4A3435",
":  c #493538",
">  c #513F3F",
",  c #63362A",
"<  c #6B3F36",
"1  c #004D00",
"2  c #035B02",
"3  c #12680E",
"4  c #1C5B22",
"5  c #304E36",
"6  c #256C26",
"7  c #396936",
"8  c #34713A",
"9  c #5C4A00",
"0  c #595003",
"q  c #6F4A0C",
"w  c #596B0A",
"e  c #564738",
"r  c #6A4D28",
"t  c #6A512C",
"y  c #674638",
"u  c #6D443B",
"i  c #6B4F3C",
"p  c #6E5335",
"a  c #6E533A",
"s  c #695B38",
"d  c #765036",
"f  c #725736",
"g  c #71553A",
"h  c #735A3D",
"j  c #5A772F",
"k  c #696826",
"l  c #666835",
"z  c #73693E",
"x  c #637638",
"c  c #4C3A46",
"v  c #574746",
"b  c #59554D",
"n  c #664D42",
"m  c #684D41",
"M  c #675245",
"N  c #6E5442",
"B  c #715542",
"V  c #785A45",
"C  c #635554",
"Z  c #517048",
"A  c #6B644A",
"S  c #766846",
"D  c #677A49",
"F  c #757343",
"G  c #72754B",
"H  c #79724F",
"J  c #737A4D",
"K  c #676B54",
"L  c #647757",
"P  c #6E7954",
"I  c #6C7C5C",
"U  c #787453",
"Y  c #737C52",
"T  c #6C5A61",
"R  c #736E62",
"E  c #746869",
"W  c #687C61",
"Q  c #7B7673",
"!  c #915108",
"~  c #825930",
"^  c #8B622B",
"/  c #91662F",
"(  c #91724E",
")  c #85695A",
"_  c #867759",
"`  c #84735D",
"'  c #8F6F6D",
"]  c #877664",
"[  c #93746B",
"{  c #857A7A",
"}  c #977774",
"|  c #008A00",
" . c #019700",
".. c #289914",
"X. c #00A500",
"o. c #00A900",
"O. c #1AAB00",
"+. c #55842F",
"@. c #5C873A",
"#. c #60893F",
"$. c #5B8748",
"%. c #548255",
"&. c #628B45",
"*. c #698549",
"=. c #668D4B",
"-. c #698D4D",
";. c #75864E",
":. c #68904D",
">. c #6B8D52",
",. c #6D8C58",
"<. c #748352",
"1. c #768B53",
"2. c #748E5B",
"3. c #6C9154",
"4. c #6E945B",
"5. c #759158",
"6. c #74955E",
"7. c #69A95D",
"8. c #579973",
"9. c #6C8364",
"0. c #68896A",
"q. c #68906C",
"w. c #759661",
"e. c #759963",
"r. c #799A65",
"t. c #799866",
"y. c #7A9D6A",
"u. c #669373",
"i. c #679477",
"p. c #659B7C",
"a. c #7D9976",
"s. c #7EA16E",
"d. c #74B471",
"f. c #7DC077",
"g. c #A9835E",
"h. c #8C8C6A",
"j. c #878779",
"k. c #94847B",
"l. c #859C75",
"z. c #AA8E74",
"x. c #A78D78",
"c. c #84A274",
"v. c #8AA47C",
"b. c #89A67C",
"n. c #8B7E8A",
"m. c #D06CB1",
"M. c #639D82",
"N. c #52AF86",
"B. c #5DA88B",
"V. c #5DB497",
"C. c #5DBC9C",
"Z. c #66A181",
"A. c #65A988",
"S. c #68AE93",
"D. c #3DDCB3",
"F. c #47C49E",
"G. c #5BC4A2",
"H. c #59CBA7",
"J. c #5ACDAA",
"K. c #46D5AE",
"L. c #56D1AE",
"P. c #5AD2AD",
"I. c #57D5B1",
"U. c #59D5B1",
"Y. c #55DBB5",
"T. c #5AD8B2",
"R. c #56DEBA",
"E. c #4DE5BE",
"W. c #54E3BD",
"Q. c #58E2BD",
"!. c #43EEC1",
"~. c #53E9C4",
"^. c #54ECC5",
"/. c #54F1C7",
"(. c #53F4CA",
"). c #72EECD",
"_. c #8C8485",
"`. c #8E828D",
"'. c #978987",
"]. c #8B9681",
"[. c #9B9589",
"{. c #948994",
"}. c #998D99",
"|. c #9B9D90",
" X c #9C919C",
".X c #A3988A",
"XX c #B78D91",
"oX c #A79A94",
"OX c #B39997",
"+X c #89A682",
"@X c #95AB8B",
"#X c #98AA89",
"$X c #96B08D",
"%X c #9EB293",
"&X c #9FB298",
"*X c #AAA598",
"=X c #ADAC9D",
"-X c #A39BA4",
";X c #AFA9AB",
":X c #B7A8A8",
">X c #ACBCA4",
",X c #B7B9AA",
"<X c #BAB6B5",
"1X c #C2A99C",
"2X c #C8B9B3",
"3X c #9FCB9C",
"4X c #A0CC9D",
"5X c #8BD7BF",
"6X c #B3C1AB",
"7X c #ACD1A7",
"8X c #BAC7B4",
"9X c #C5C8BD",
"0X c #C4D0BF",
"qX c #C0BBC1",
"wX c #BFC2C0",
"eX c #8BE7CD",
"rX c #88F1D4",
"tX c #BAF4EC",
"yX c #C7C9C6",
"uX c #D5CDCB",
"iX c #CAD3C6",
"pX c #CCDCD8",
"aX c #D6D5D4",
"sX c #DBDCDB",
"dX c #E2DCDC",
"fX c #E9DCDE",
"gX c #CEE1CE",
"hX c #D8E7D7",
"jX c #DDE3DC",
"kX c #E2E6DB",
"lX c #D3EFEA",
"zX c #C9F8F2",
"xX c #D7F9F4",
"cX c #E7E4E4",
"vX c #E4EDE3",
"bX c #EBECEB",
"nX c #F2ECEC",
"mX c #EBF6E8",
"MX c #EEF2EC",
"NX c #F1F3EE",
"BX c #F1EFF1",
"VX c #E3F9F5",
"CX c #E5F9F6",
"ZX c #ECFDFA",
"AX c #F3F4F3",
"SX c #F9F7F6",
"DX c #F6F9F5",
"FX c #F4FDFC",
"GX c #FFFFFF",
/* pixels */
"GXGXGXGXGXGXGXGXGXGXGXGXGXGXGXGXGXGXGXGXGXGXGXGXGXGXGXGXGXGXGXGXGXGXGXGXGXGXGXGXGXGXGXGXGXGXGXGXGXGXGXGXGXGXGXGXGXGXGXGXGXGXGXGX",
"GXGXGXGXGXGXGXGXGXGXGXGXGXGXGXGXGXGXGXGXGXGXGXGXGXGXGXGXGXGXGXGXGXGXGXGXGXGXGXGXGXGXGXGXGXGXGXGXGXGXGXGXGXGXGXGXGXGXGXGXGXGXGXGX",
"GXGXGXGXGXGXGXGXGXGXGXGXGXGXGXGXGXGXGXGXGXGXGXGXGXGXGXGXGXGXGXxXZXVXGXGXGXGXGXGXGXGXGXGXGXGXGXGXGXGXGXGXGXGXGXGXGXGXGXGXGXGXGXGX",
"GXGXGXGXGXGXGXGXGXGXGXGXGXGXGXGXGXGXGXGXGXGXGXGXGXGXGXGXGXGXZXpXuXlXxXGXGXGXGXGXGXGXGXGXGXGXGXGXGXGXGXGXGXGXGXGXGXGXGXGXGXGXGXGX",
"GXGXGXGXGXGXGXGXGXGXGXGXGXGXGXGXGXGXGXGXGXGXGXGXGXGXGXGXGXFX;X` 9 OXSXVXZXGXGXGXGXGXGXGXGXGXGXGXGXGXGXGXGXGXGXGXGXGXGXGXGXGXGXGX",
"GXGXGXGXGXGXGXGXGXGXGXGXGXGXGXGXGXGXGXGXGXGXGXGXGXGXGXZXFXOX+ 6.y.l .XNXxXVXGXGXGXGXGXGXGXGXGXGXGXGXGXGXGXGXGXGXGXGXGXGXGXGXGXGX",
"GXGXGXGXGXGXGXGXGXGXGXGXGXGXGXGXGXGXGXGXGXGXGXGXGXGXFXpXOXJ y.e.w.y.j oXnXCXzXGXGXGXGXGXGXGXGXGXGXGXGXGXGXGXGXGXGXGXGXGXGXGXGXGX",
"GXGXGXGXGXGXGXGXGXGXGXGXGXGXGXGXGXGXGXGXGXGXGXGXFXCX<Xd *.r.6.6.w.6.y.@..XGXSXzXCXGXGXGXGXGXGXGXGXGXGXGXGXGXGXGXGXGXGXGXGXGXGXGX",
"GXGXGXGXGXGXGXGXGXGXGXGXGXGXGXGXGXGXGXGXGXGXGXZXlX'.# 4.r.w.w.w.w.w.w.4.$X0X:XDXxXxXGXGXGXGXGXGXGXGXGXGXGXGXGXGXGXGXGXGXGXGXGXGX",
"GXGXGXGXGXGXGXGXGXGXGXGXGXGXGXGXGXGXGXGXGXGXCXlX} k y.w.w.w.w.w.6.6.w.5.a.b.w k.nXZXzXZXGXGXGXGXGXGXGXGXGXGXGXGXGXGXGXGXGXGXGXGX",
"GXGXGXGXGXGXGXGXGXGXGXGXGXGXGXGXGXGXGXGXFXxXBXOXk s.6.6.4.w.w.4.6.6.w.w.5.5.y.-.t 2XDXzXCXGXGXGXGXGXGXGXGXGXGXGXGXGXGXGXGXGXGXGX",
"GXGXGXGXGXGXGXGXGXGXGXGXGXGXGXGXGXGXGXFXVXcX,Xx s.4.w.w.w.w.w.w.w.w.e.w.w.w.6.r.6.l } cXZXtXFXGXGXGXGXGXGXGXGXGXGXGXGXGXGXGXGXGX",
"GXGXGXGXGXGXGXGXGXGXGXGXGXGXGXGXGXGXVXvXoXU r.e.4.w.6.w.6.6.w.w.w.6.w.w.6.6.6.6.w.s.x V fXZXxXSXGXGXGXGXGXGXGXGXGXGXGXGXGXGXGXGX",
"GXGXGXGXGXGXGXGXGXGXGXGXGXGXGXGXFXzXlX[ k e.6.6.w.w.4.w.6.w.6.6.w.w.w.w.w.w.w.e.6.6.y.&.k.SXBXxXZXGXGXGXGXGXGXGXGXGXGXGXGXGXGXGX",
"GXGXGXGXGXGXGXGXGXGXGXGXGXGXGXVXzXdX) *.y.4.w.w.w.w.w.w.6.6.6.4.6.6.w.w.e.6.w.6.6.6.6.6.v.|.' nXZXVXFXGXGXGXGXGXGXGXGXGXGXGXGXGX",
"GXGXGXGXGXGXGXGXGXGXGXGXGXGXzXzXsX] -.y.4.w.6.w.w.6.w.w.w.6.w.e.w.6.w.w.6.6.6.e.6.6.6.6.w.w.x B cXZXzXxXGXGXGXGXGXGXGXGXGXGXGXGX",
"GXGXGXGXGXGXGXGXGXGXGXGXGXzXpXdXG 3.e.w.w.w.w.6.w.6.w.w.w.w.w.w.w.w.w.w.6.6.6.w.e.6.e.w.w.w.y.-.] OXdXzXtXFXGXGXGXGXGXGXGXGXGXGX",
"GXGXGXGXGXGXGXGXGXGXGXGXtX{ d l.6.r.6.6.6.6.6.6.6.6.w.6.w.w.w.6.w.w.6.6.e.6.e.w.w.6.6.w.w.w.5.y.6.0 @ uXxXlXGXGXGXGXGXGXGXGXGXGX",
"GXGXGXGXGXGXGXGXGXGXSXcX' # e.s.6.w.6.w.6.6.w.6.6.e.w.w.6.w.6.e.w.6.w.6.6.6.6.6.6.e.6.w.w.6.w.w.w.y.F < nXGXsXbXGXGXGXGXGXGXGXGX",
"GXGXGXGXGXGXGXGXFXbXBX:Xr 6.6.6.6.6.6.6.6.6.6.6.6.6.6.6.6.6.w.6.w.6.6.6.6.6.6.w.6.6.6.6.w.6.6.6.w.w.r.*.k.bXGXyXaXGXGXGXGXGXGXGX",
"GXGXGXGXGXGXGXGXbXsX<Xl.4.w.6.w.6.6.w.w.6.w.w.w.6.w.w.6.w.6.w.w.w.e.4.w.w.6.w.6.w.6.w.6.6.6.6.w.w.w.e.6.a.oXOXSXcXjXGXGXGXGXGXGX",
"GXGXGXGXGXGXSXcXdXyXQ t.6.w.w.w.w.6.w.4.6.w.w.w.6.w.6.w.w.6.w.w.w.w.6.6.6.w.w.6.w.w.6.6.w.6.w.w.w.6.r.@.8XGX2Xn.bXAXSXGXGXGXGXGX",
"GXGXGXGXGXZXsXAX<XSXbX>.6.6.6.w.w.e.w.e.e.w.w.w.e.6.6.6.e.e.t.e.e.w.w.e.w.6.w.w.w.t.e.r.w.w.e.6.6.6.r.=.&XGXGXaXoXbXSXGXGXGXGXGX",
"GXGXGXGXGXbX<XbXFXGXaX$.r.w.w.w.e.P G J J G J G <.e.w.w.<.G G G J J G <.w.6.w.<.G J J J G G <.w.6.w.w.5.l.FXGXGXAXyXSXGXGXGXGXGX",
"GXGXGXGXGXGXbXBXGXGX8Xj r.6.w.w.1.u.W.Y.G.G.Y.I.I 6.w.5.I J.Y.G.C.Y.Y.q.>.w.6.I P.Y.H.C.R.I.0.5.6.6.6.5.a.SXGXGXGXGXGXGXGXGXGXGX",
"GXGXGXGXGXGXGXGXGXGXsX$.r.w.w.e.1.p.(./.I.U.(.^.0.6.w.6.W ~.(.R.P./.(.p.<.e.5.9.~.(.R.T.(./.i.1.e.e.e.:.@XGXGXGXGXGXGXGXGXGXGXGX",
"GXGXGXGXGXGXGXGXGXGXSXb.3.e.w.w.1.p.(./.U.U.(.~.9.6.t.6.,.~.(.R.P././.i.1.e.5.9.^.(.R.U.(./.u.1.e.6.w.6.a.SXGXGXGXGXGXGXGXGXGXGX",
"GXGXGXGXGXGXGXGXGXGXGX>X&.e.6.w.5.u.I.T.C.C.U.L.I 5.w.6.I J.T.G.V.T.T.0.1.r.6.I J.T.G.C.U.L.0.2.w.6.w.=.>XGXGXGXGXGXGXGXGXGXGXGX",
"GXGXGXGXGXGXGXGXGXGXGX>X&.t.6.e.1.p.W.W.H.H.~.R.9.6.w.6.I T.W.L.C.~.E.u.1.e.5.W Y.Q.U.H.W.W.0.5.e.6.r.$.jXGXGXGXGXGXGXGXGXGXGXGX",
"GXGXGXGXGXGXGXGXGXGXGX$X-.w.6.e.1.p.(.(.U.U.(.~.9.6.r.6.W ~./.R.J././.i.1.e.5.9.~.(.Y.U./.^.u.5.e.6.r.=.jXGXGXGXGXGXGXGXGXGXGXGX",
"GXGXGXGXGXGXGXGXGXGXGXb.3.w.w.e.1.Z.(.(.U.U.(.^.0.6.r.6.9.^.(.Q.P.(.(.M.1.e.5.9.^.(.Q.P.(.(.i.5.e.6.r.&.hXGXGXGXGXGXGXGXGXGXGXGX",
"GXGXGXGXGXGXGXGXGXGXGX@X3.w.6.e.1.,.C.C.B.A.C.C.K 5.w.5.A V.C.A.M.C.C.W <.e.6.A V.C.B.B.C.C.K 5.r.6.r.$.iXGXGXGXGXGXGXGXGXGXGXGX",
"GXGXGXGXGXGXGXGXGXGXGX%X-.e.6.6.w.*.z F G G F x <.6.w.6.<.F F G J F F Y w.t.5.P F F G F x F <.6.6.6.r.@.iXGXSXGXGXGXGXGXGXGXGXGX",
"GXGXGXGXGXGXGXGXGXGXGX%X-.e.6.6.w.e.s.e.s.r.r.s.w.w.w.w.e.r.r.t.e.r.e.e.w.w.6.e.r.r.r.s.e.y.e.6.6.w.w.&.0XGXGXGXGXGXGXGXGXGXGXGX",
"GXGXGXGXGXGXGXGXGXGXGX@X:.e.6.6.6.w.6.6.4.6.6.6.w.w.w.w.w.6.w.w.w.6.w.6.w.6.6.w.6.6.w.w.w.w.6.w.e.6.r.&.6XGXGXGXGXGXGXGXGXGXGXGX",
"GXGXGXGXGXGXGXGXGXGXAXt.6.w.6.6.w.w.6.6.6.6.6.6.w.w.6.6.w.6.w.w.w.w.w.w.6.6.6.w.w.6.w.w.6.e.6.w.w.w.r.&.6XGXGXGXGXGXGXGXGXGXGXGX",
"GXGXGXGXGXGXGXGXGXGXbX5.w.w.6.e.w.w.e.w.6.6.6.w.w.w.w.w.w.w.w.6.w.w.6.w.w.e.6.w.w.6.r.6.6.6.6.e.6.w.r.:.%XGXGXGXGXGXGXGXGXGXGXGX",
"GXGXGXGXGXGXGXGXGXGXBXw.6.6.w.6.5.e.w.w.6.w.w.6.w.4.6.w.6.6.w.6.6.w.w.6.6.w.w.6.6.6.6.6.6.e.6.6.w.6.r.&.>XGXGXGXGXGXGXGXGXGXGXGX",
"GXGXGXGXGXGXGXGXGXGXFXv.4.e.w.6.w.6.w.w.6.w.6.w.w.w.w.w.e.6.6.6.w.w.6.w.6.e.e.6.6.6.r.w.w.6.6.6.w.6.r.&.6XGXGXGXGXGXGXGXGXGXGXGX",
"GXGXGXGXGXGXGXGXGXGXGXv.5.w.6.6.w.w.w.w.w.6.6.w.w.w.6.6.3.4.6.6.4.4.5.4.6.6.6.6.6.6.6.6.e.6.w.6.e.6.r.-.&XGXGXGXGXGXGXGXGXGXGXGX",
"GXGXGXGXGXGXGXGXGXGXGX%X-.e.6.w.w.5.w.e.e.e.e.e.e.w.e.c.b.c.s.s.s.c.c.s.c.6.6.e.s.e.e.e.e.e.e.6.w.w.t.3.@XGXGXGXGXGXGXGXGXGXGXGX",
"GXGXGXGXGXGXGXGXGXGXGX6X&.r.w.6.w.4.1.<.1.1.1.<.5.4.l.oX*XoX|.'..X*X[.*X.Xh.6.5.;.;.1.>.1.1.6.6.w.w.w.:.@XGXGXGXGXGXGXGXGXGXGXGX",
"GXGXGXGXGXGXGXGXGXGXGX%X=.w.w.6.t.P i.Z.p.0.p.Z.I 2.w.s @ , , , , = = , = 5.6.I M.M.u.u.Z.p.U 6.w.w.w.-.@XGXGXGXGXGXGXGXGXGXGXGX",
"GXGXGXGXGXGXGXGXGXGXGX%X-.e.6.w.w.P W.(.E.L.(.(.B.*.s.U i M M M M N M n g r.1.p.(.(.I.I.(.^.9.6.w.6.t.-.@XGXGXGXGXGXGXGXGXGXGXGX",
"GXGXGXGXGXGXGXGXGXGXGX+X3.w.w.w.e.P R./.W.G.^.(.A.*.7.G < N N n n N N n i w.1.p././.J.U.(.~.9.6.w.w.e.=.=XGXGXGXGXGXGXGXGXGXGXGX",
"GXGXGXGXGXGXGXGXGXGXhX&.t.6.6.w.w.Y T./.Y.G.~.^.B._ XXH y N N n n N N n i w.1.p.~.~.J.P.^.R.9.5.w.w.r.$.6XGXGXGXGXGXGXGXGXGXGXGX",
"GXGXGXGXGXGXGXGXGXGXAXw.6.w.6.w.w.Y C.P.G.A.J.P.8.} m.H y N N i n N N n p w.5.q.P.L.V.V.U.H.P 6.e.6.r.#.0XGXGXGXGXGXGXGXGXGXGXGX",
"yXbXDXDXDXSXSXNXmXmXgXy.6.w.w.w.w.Y Q./.Q.J././.N.[ m.H y N N n n B B i i 6.1.p./.(.U.U.(.~.9.6.e.6.r.&.8XDXDXNXNXDXDXvXMXAXcX$X",
"# r U U ( ` ` ` z k l w.w.w.6.w.s.D D.!.K.F.!.!.N.} m.H y N N n n n M y i t.1.p.^./.K.K.!.E.9.6.e.6.6.e.<.S ` F S ` ` w z S *.>.",
"V h r p p f t t d S N 2.6.6.6.w.6.R eXrXeX5XeXrXS._ XXG u N N N N N n n p t.1.p.E.^.5X5X).).<.6.e.6.6.e.Y h g g p t t h d f 6.r.",
"h h B h h V h B h q % ,.w.w.6.e.4.` =X.X=X=X.Xj.] <.4.G u B N N N B v : a w.2.A 9.a.oX:X|.j.A 5.e.w.w.e.x + # p h h V h g h 5.w.",
"h h g h h S V a p .X[.2.w.5.6.6.w.5.=.=.=.*.-.1.4.w.e.G u N N N a V v c d 6.w.w.5.1.-.=.-.5.e.6.6.6.w.3.*XuX=XS t h h g g h 6.w.",
"h h g t r q 9 % 9XjXbX$X:.t.6.w.6.w.r.r.r.r.e.e.e.w.e.G u N N N N N n n p w.w.w.e.e.e.r.e.e.6.e.w.6.w.:.6XhXiXyXg h g h g g 6.e.",
"h h f ) h.'.x.8XZ.1 +Xb.4.w.6.6.6.w.6.w.w.6.6.6.w.6.w.G u N N N N N B N i 6.6.6.6.6.w.6.6.6.6.6.6.6.6.r.$.2 2 4.` f h a g g 5.6.",
") h ) +Xd.7X7Xd.| 7 2 4.e.6.6.w.4.w.w.w.6.6.6.6.w.6.w.G u N N N N N N i a 6.w.6.6.w.w.w.6.6.6.6.e.w.6.w.$.6 7 3 q h t p a V 6.r.",
"9 % 9 | | |  . ...5 O 4.6.w.6.6.e.w.w.6.6.w.6.6.6.w.r.G u B N V B N V B a t.w.w.w.6.w.w.6.s.6.e.6.6.6.r.$.l ^ ( g.q ^ h p q 2.6.",
"oX*X'.3 2 6 6 6 4   O w.4.w.w.5.w.6.w.6.w.6.6.6.w.4.=.s < u i i m m y $ $ =.4.w.6.w.w.w.6.6.6.6.w.w.w.w.D / ^ d ~ q / ! / k.w.w.",
"GXGXGXa.q.%.%.8 7 b 5 ,.e.w.w.e.w.6.w.6.6.6.6.6.4.s.].T > O * - - * T { E E l.e.6.w.w.6.w.w.4.6.6.6.w.r.Z & ! & & q ! ! / hX@X3.",
"GXGXGXFXDXDXBXvXBXBXsXt.w.w.,.=.4.t.r.w.e.w.w.s.L R '.E > ; ; * - ; E { Q _.{ b 2.r.w.w.5.h.x.=X9Xt.6.5.c.,Xg.] x.x.k.! ! g.b.3.",
"GXGXGXGXGXGXGXGXSXGXAX,.@.4.@X%Xl.=.=.&.-.3.3.L e o { }.;X2Xn.E ; - X . . . . X Z 4.4.3.#X1X1XOXz.h.r.+.6XGXDXGXSXcXaX1XuXkX+X6.",
"GXSXGXGXGXGXGXGXGXGXSX8XiXNXGXGXDXjXgXaX6Xl.v.b : v v X > v : > ; : : : : ; b C C j.c.c.x.x.x.x.z.z.v.h.8XGXGXGXGXGXSXGXGXGXl.+.",
"GXGXGXGXGXGXGXMXhXAXkX3X4XvXDXGXGXGXGXGXGXbXMXDXMXMXbXwX`.`.{.`.`.n.n.n.{.n.;XSXSXSXSXGXAXMXBXMXnXnXDXDXAXSXGXSXGXSXGXGXGXGX0X8X",
"GXSXGXGXGXGXmXO.o.7.o.o.O.d.3XjXvXgXhXgXgXd.f.7XDXGXGXGXuXn. X X}. X X X X X{.<XaXcXBXFXGXGXGXGXGXGXGXGXGXGXGXGXGXGXGXGXGXSXGXGX",
"GXGXGXGXGXGXDXhXmXmXmXmXZXGXvXf.X.o.o. .o.o.X.X.4XhXFXSXGXqX{.}.}.}. X}.}.}. Xn.n.`.}.-X;XqXuXsXMXGXSXGXSXGXGXGXGXSXGXGXGXGXGXSX"
};
