/* XPM */
static char *result[] = {
/* columns rows colors chars-per-pixel */
"64 64 190 2 ",
"   c black",
".  c #010101",
"X  c #020202",
"o  c gray1",
"O  c #040404",
"+  c gray2",
"@  c #060606",
"#  c #070707",
"$  c gray3",
"%  c #090909",
"&  c gray4",
"*  c #0B0B0B",
"=  c #0C0C0C",
"-  c gray5",
";  c #0E0E0E",
":  c gray6",
">  c #101010",
",  c #111111",
"<  c gray7",
"1  c #131313",
"2  c gray8",
"3  c #151515",
"4  c #161616",
"5  c gray9",
"6  c #181818",
"7  c #191919",
"8  c gray10",
"9  c #1B1B1B",
"0  c gray11",
"q  c #1D1D1D",
"w  c #1E1E1E",
"e  c gray12",
"r  c #202020",
"t  c gray13",
"y  c #222222",
"u  c #232323",
"i  c gray14",
"p  c #252525",
"a  c gray15",
"s  c #272727",
"d  c #282828",
"f  c gray16",
"g  c #2A2A2A",
"h  c #2C2C2C",
"j  c #2D2D2D",
"k  c gray18",
"l  c #2F2F2F",
"z  c #313131",
"x  c #323232",
"c  c gray20",
"v  c #343434",
"b  c #353535",
"n  c gray21",
"m  c gray22",
"M  c #393939",
"N  c #3A3A3A",
"B  c #3E3E3E",
"V  c #3F3F3F",
"C  c gray25",
"Z  c #414141",
"A  c #434343",
"S  c #444444",
"D  c gray28",
"F  c #494949",
"G  c gray29",
"H  c gray30",
"J  c gray31",
"K  c #505050",
"L  c #515151",
"P  c gray32",
"I  c #535353",
"U  c gray33",
"Y  c #565656",
"T  c #585858",
"R  c gray35",
"E  c #5A5A5A",
"W  c #5B5B5B",
"Q  c #5D5D5D",
"!  c gray37",
"~  c #606060",
"^  c gray38",
"/  c #646464",
"(  c #656565",
")  c gray40",
"_  c #6A6A6A",
"`  c #6C6C6C",
"'  c gray44",
"]  c gray45",
"[  c gray46",
"{  c gray47",
"}  c #797979",
"|  c #7B7B7B",
" . c #7C7C7C",
".. c gray49",
"X. c #7E7E7E",
"o. c gray50",
"O. c #808080",
"+. c #818181",
"@. c gray51",
"#. c #838383",
"$. c #848484",
"%. c gray52",
"&. c #868686",
"*. c gray53",
"=. c #898989",
"-. c gray54",
";. c gray55",
":. c #8D8D8D",
">. c #8E8E8E",
",. c gray56",
"<. c #929292",
"1. c gray58",
"2. c #959595",
"3. c gray59",
"4. c gray60",
"5. c #9B9B9B",
"6. c gray61",
"7. c #9D9D9D",
"8. c gray62",
"9. c #9F9F9F",
"0. c #A0A0A0",
"q. c #A2A2A2",
"w. c gray64",
"e. c #A4A4A4",
"r. c #A5A5A5",
"t. c #A7A7A7",
"y. c gray66",
"u. c #A9A9A9",
"i. c #AAAAAA",
"p. c gray67",
"a. c gray68",
"s. c #AFAFAF",
"d. c #B1B1B1",
"f. c #B2B2B2",
"g. c gray70",
"h. c #B4B4B4",
"j. c gray71",
"k. c #B6B6B6",
"l. c #B7B7B7",
"z. c gray72",
"x. c #B9B9B9",
"c. c #BCBCBC",
"v. c gray",
"b. c #C0C0C0",
"n. c #C1C1C1",
"m. c gray77",
"M. c #C5C5C5",
"N. c #C6C6C6",
"B. c gray78",
"V. c #C8C8C8",
"C. c gray79",
"Z. c #CACACA",
"A. c #CBCBCB",
"S. c gray80",
"D. c #CDCDCD",
"F. c #D0D0D0",
"G. c gray82",
"H. c #D2D2D2",
"J. c LightGray",
"K. c gray83",
"L. c #D5D5D5",
"P. c gray84",
"I. c #D7D7D7",
"U. c #D8D8D8",
"Y. c gainsboro",
"T. c #DDDDDD",
"R. c gray87",
"E. c #E2E2E2",
"W. c #E4E4E4",
"Q. c #E6E6E6",
"!. c #E7E7E7",
"~. c gray91",
"^. c gray92",
"/. c #ECECEC",
"(. c gray93",
"). c gray94",
"_. c #F1F1F1",
"`. c gray95",
"'. c #F4F4F4",
"]. c gray96",
"[. c #F6F6F6",
"{. c gray97",
"}. c #F8F8F8",
"|. c #F9F9F9",
" X c gray98",
".X c #FBFBFB",
"XX c gray99",
"oX c #FDFDFD",
"OX c #FEFEFE",
"+X c white",
/* pixels */
". . . . . . . . . . . . . . . . . . . . . . . . . . . . . . . . . . . . . . . . . . . . . . . . . . . . . . . . . . . . . . . . ",
". . . . . . . . . . . . . . . . . . . . . . . . . . . . . . . . . . . . . . . . . . . . . . . . . . . . . . . . . . . . . . . . ",
". . . . . . . . . . . . . . . . . . . . . . . . . . . . . . . . . . . . . . . . . . . . . . . . . . . . . . . . . . . . . . . . ",
". . . . . . . . . . . . . . . . . . . . . . . . . . . . . . . . . . . . . . . . . . . . . . . . . . . . . . . . . . . . . . . . ",
". . . . . . . . . . . . . . . . . . . . . . . . . . . . . . . . . . . . . . . . . . . . . . . . . . . . . . . . . . . . . . . . ",
". . . . . . . . . . . . . . . . . . . . . . . . . . . . . . . . . . . . . . . . . . . . . . . . . . . . . . . . . . . . . . . . ",
". . . . . . . . . . . . . . . . . . . . . . . . . . . . . . . . . . . . . . . . . . . . . . . . . . . . . . . . . . . . . . . . ",
". . . . . . . . . . . . . . . . . . . . . . . . . . . . . . . . . . . . . . . . . . . . . . . . . . . . . . . . . . . . . . . . ",
". . . . . . . . . . . . . . . . . . . . . . . . . . . . . . . . . . . . . . . . . . . . . . . . . . . . . . . . . . . . . . . . ",
". . . . . . . . . . . . . . . . . . . . . . . . . . . . . . . . . . . . . . . . . . . . . . . . . . . . . . . . . . . . . . . . ",
". . . . . . . . . . . . . . . . . . . . . . . . . . . . . . . . . . . . . . . . . . . . . . . . . . . . . . . . . . . . . . . . ",
". . . . . . . . . . . . . . . . . . . . . . . . . . . . . . . . . . . . . . . . . . . . . . . . . . . . . . . . . . . . . . . . ",
". . . . . . . . . . . . . . . . . . . . . . . . . . . . . . . . . . . . . . . . . . . . . . . . . . . . . . . . . . . . . . . . ",
". . . . . . . . . . . . . . . . . . . . . . . . . . . . . . . . . . . . . . . . . . . . . . . . . . . . . . . . . . . . . . . . ",
". . . . . . . . . . . . . . . . . . . . . . . . . . . . . . . . . . . . . . . . . . . . . . . . . . . . . . . . . . . . . . . . ",
". . . . . . . . . . . . . . . . . . . . . . . . . . . . . . . . . . . . . . . . . . . . . . . . . . . . . . . . . . . . . . . . ",
". . . . . . . . . . . . . . . . . . . . . . . . . . . . . . . . . . . . . . . . . . . . .   . . . . . . . . . . . . . . . . . . ",
". . . . . .                         . . .               .                                                               . . . . ",
". . . .       N 1.:.>.>.>.>.,.3.#         ; 5.:.:.,.;.    . .   w 4.:.4.# X . .   <.:.3.D     U.F.G.G.G.G.G.G.G.G.J.F.    . . . ",
". . .   .     ~ +X+X+X+X+X+X+X+Xy     X   + +X+X+X+X+X    . .   B +X+X+X    o     +X+X+X*.  * +X+X+X+X+X+X+X+X+X+X+X+X      . . ",
". .       & +X+X+Xs.e k k k k v $       W._.+Xj.f /.+X+Xq.      m +X+X+X+X!.  p. XOXOX+XX.  % +X+X+XX.                  .   . . ",
".       i A +XoX+Xq.              . : + oX+X+X9.  H.{.+Xj.x -   N +X+X+X+X~.@ N.+XOX+X+XX.  $ +XOX+Xo.                  . . . . ",
".       K.+X+X_.                    &.+X+X+X          +X+X+XV   M +X+X+X+X+X+X+XoX+X+X+XX.  $ +XOX+X[           .   X . . . . . ",
". .     m.+X+X].      $...| ..$.@   } +X+X+X        1 +X+X+XN   N +X+X+X+X+X+X+X+X+X+X+XX.  # +XOX+XE.M.S.A.L.]       . . . . . ",
". . .   m.+X+X].      +X+X+X+X+X8   } +X+X+X          +XOX+XN   N +X+XOX+X+XoX+X+XoXOX+XX.  # +XOX+X+X+X+X+X+Xq.    . . . . . . ",
". .     N.+X+X'.      M -.+XOX+X4   } +X+X+X).`.`._.`.OXOX+XN   N +X+X+XD ^ +X0.5 +X+X+XX.  # +XOX+X&.  $ $ * X     . . . . . . ",
".       m.+X+X[.i >     P +X+X+X5   } +X+X+XoX+X+X+X+XXX+X+Xm   m +X+X+X- k +X .  +X+X+XX.  # +XOX+X+.                    . . . ",
".     o     +X+X+X>.    K +X+X+X5   } +X+X+X          +X+X+Xm   m +X+X+X9         +X+X+XX.  # +XOX+X{                 X .   . . ",
". .   X     d.S.+XN. . .a.+X+X+X5   } +X+X+X        > +X+X+Xm   m +X+X+X9     .   +X+X+XX.  # +XOX+XG.9.w.w.w.e.e.r.t.  .   . . ",
". .           J +X+X+X+X+X+X+X+X7   *.+X+X+X        1 +X+X+XC   Z +X+X+Xi   . .   +X+X+X=.  % +X+X+X+X+X+X+X+X+X+X+X+X  .   . . ",
". . .     X   * c l j k k k l c O   3 z k x         X b l c &   & c j c O     .   x l c 3   . < > , , , , , , , , < ,     . . . ",
". . . .   X .                                 . . .           X               X .         X                             . . . . ",
". . . .   X X X       .         .               . .   . . . . X . . . .         .     . . X . X                     . . . . . . ",
". . .   .                     .   X         . .               .                           .                           . . . . . ",
". .       # h.u.y.t.t.u.u.f.T       L f.u.s.  .     - k.y.j.h   u +X(.^.)._._._._._._.[.l.  2 z.y.u.u.u.u.u.u.i.g.o     . . . . ",
".   . .   O +X+X+X+X+X+X+X+X%.  .   @.+X+X+X    .   < +X+X+XV   p +X+X+XXXXXXX.X.X.X.X+Xn.  0 +X+X+X+X+X+X+X+X+X+X        . . . ",
". .     m.+X+X].X > : @ ( +X+X+Xq   ..+X+X+X    .   > +XOX+XM   u +XOX+Xa                   7 +XOX+X) + : ; . `.+X+XJ.    . . . ",
". .     C.+X+X'.        Y +XOX+X6   } +X+X+X        > +X+X+Xm   t +XOX+Xv   .               6 +XOX+XW         '.+X+XZ.  . . . . ",
". .     M.+X+X].    .   R +X+X+X6   } +X+X+X    .   . +X+X+Xm   t +XOX+Xu               .   6 +XOX+X!   X     ).+X+XC.  . . . . ",
". . .   N.+X+X].    .   R +X+X+X6   { +X+X+XV.;.  6.g.+X+X+Xm   t +X+X+X].`.].].+XS     .   5 +X+X+XQ     / v.}.+X+XC.    . . . ",
". . .   N.+X+X].    .   R +X+X+X6   *.+X+X+X+Xd.  [.+X+X+X+XV   t +X+X+X+X+X+X+X+XI   . .   5 +X+X+XU     ..+X+X+X+XR.      . . ",
". . .   N.+X+X].    .   R +X+X+X6   - & ~.+X+X+X+X+XoX+Xl.  .   t +X+X+Xs               .   5 +X+X+X+X+X+X+X+XP   % $   X   . . ",
". . .   N.+X+X].    .   R +X+X+X6       H.`.+X+X+X+X+XY.2.      t +X+X+Xn                   5 +X+X+X!.T.+XOX+X2.U     . X   . . ",
". .     D.+X+X`.        H +X+X+Xq   X .   + +X+X.X+X+X    X X   t +X+X+Xd                   5 +X+X+XG   +X+XoX+X+X    . X   . . ",
". .     ` >.+X|.x.b.b.c.P.+XN.' +   . .   = 4.v.+X7.]     . .   y +X+X+XW.Y.R.R.R.R.R.Q.8.  6 +X+X+XE   4.D.+X+X+XB.O.  .   . . ",
". . .       +X+X+X+X+X+X+X+X8.    .     .     } +XF             g +X+X+X+X+X+X+X+X+X+X+XI.  9 +X+X+X_     #.+X+X+X+XQ.  .   . . ",
". . .       0 6 6 6 6 6 6 9 @   . . . .   .   & r +     . .   .   .                     X     9 6 8 $     X 0 5 5 6 3   .   . . ",
". . . .                         . . . . . . .         . . . .                             X             X                 . . . ",
". . . . . . . . . . . . . . . . . . . . . . . . . . . . . . . .     . . . . . . . . . .     . . . . . .       . . . . . . . . . ",
". . . . . . . . . . . . . . . . . . . . . . . . . . . . . . . . . . . . . . . . . . . . . . . . . . . . . . . . . . . . . . . . ",
". . . . . . . . . . . . . . . . . . . . . . . . . . . . . . . . . . . . . . . . . . . . . . . . . . . . . . . . . . . . . . . . ",
". . . . . . . . . . . . . . . . . . . . . . . . . . . . . . . . . . . . . . . . . . . . . . . . . . . . . . . . . . . . . . . . ",
". . . . . . . . . . . . . . . . . . . . . . . . . . . . . . . . . . . . . . . . . . . . . . . . . . . . . . . . . . . . . . . . ",
". . . . . . . . . . . . . . . . . . . . . . . . . . . . . . . . . . . . . . . . . . . . . . . . . . . . . . . . . . . . . . . . ",
". . . . . . . . . . . . . . . . . . . . . . . . . . . . . . . . . . . . . . . . . . . . . . . . . . . . . . . . . . . . . . . . ",
". . . . . . . . . . . . . . . . . . . . . . . . . . . . . . . . . . . . . . . . . . . . . . . . . . . . . . . . . . . . . . . . ",
". . . . . . . . . . . . . . . . . . . . . . . . . . . . . . . . . . . . . . . . . . . . . . . . . . . . . . . . . . . . . . . . ",
". . . . . . . . . . . . . . . . . . . . . . . . . . . . . . . . . . . . . . . . . . . . . . . . . . . . . . . . . . . . . . . . ",
". . . . . . . . . . . . . . . . . . . . . . . . . . . . . . . . . . . . . . . . . . . . . . . . . . . . . . . . . . . . . . . . ",
". . . . . . . . . . . . . . . . . . . . . . . . . . . . . . . . . . . . . . . . . . . . . . . . . . . . . . . . . . . . . . . . ",
". . . . . . . . . . . . . . . . . . . . . . . . . . . . . . . . . . . . . . . . . . . . . . . . . . . . . . . . . . . . . . . . ",
". . . . . . . . . . . . . . . . . . . . . . . . . . . . . . . . . . . . . . . . . . . . . . . . . . . . . . . . . . . . . . . . ",
". . . . . . . . . . . . . . . . . . . . . . . . . . . . . . . . . . . . . . . . . . . . . . . . . . . . . . . . . . . . . . . . ",
". . . . . . . . . . . . . . . . . . . . . . . . . . . . . . . . . . . . . . . . . . . . . . . . . . . . . . . . . . . . . . . . "
};
