/* XPM */
static char *result[] = {
/* columns rows colors chars-per-pixel */
"64 64 224 2 ",
"   c #080305",
".  c #04040C",
"X  c #180C0D",
"o  c #0B0A14",
"O  c #0D1217",
"+  c #12151A",
"@  c #15191E",
"#  c #29120E",
"$  c #351D19",
"%  c #3C241A",
"&  c #171A24",
"*  c #232429",
"=  c #2D2C33",
"-  c #36363C",
";  c #4F1311",
":  c #641A1D",
">  c #46210D",
",  c #4A291A",
"<  c #572816",
"1  c #522C1A",
"2  c #5B2C1B",
"3  c #54311B",
"4  c #59301B",
"5  c #622C1E",
"6  c #692A1D",
"7  c #451921",
"8  c #591220",
"9  c #631322",
"0  c #7C2623",
"q  c #705600",
"w  c #7A433A",
"e  c #184960",
"r  c #554A49",
"t  c #7C5347",
"y  c #7C6462",
"u  c #8F161D",
"i  c #AE0003",
"p  c #B5000B",
"a  c #B70017",
"s  c #BA0014",
"d  c #BC001C",
"f  c #BB2C17",
"g  c #BB3C1E",
"h  c #8E0123",
"j  c #8D1D24",
"k  c #981624",
"l  c #BD0223",
"z  c #B40D25",
"x  c #BF0A27",
"c  c #B40229",
"v  c #BD022B",
"b  c #BE0B29",
"n  c #A71125",
"m  c #B71129",
"M  c #BD2E23",
"N  c #BC2D33",
"B  c #C10018",
"V  c #C10A27",
"C  c #C40529",
"Z  c #C10C2A",
"A  c #CB0A2A",
"S  c #C1152E",
"D  c #C03D21",
"F  c #C62539",
"G  c #B04D1A",
"H  c #947809",
"J  c #8A742A",
"K  c #C35817",
"L  c #C96B11",
"P  c #C63544",
"I  c #8C6056",
"U  c #8D746D",
"Y  c #CE5057",
"T  c #D15F71",
"R  c #D56C78",
"E  c #CE7C77",
"W  c #768637",
"Q  c #5FA979",
"!  c #74AE6A",
"~  c #65A973",
"^  c #9B8610",
"/  c #A8940E",
"(  c #AD950C",
")  c #BCA90F",
"_  c #B99D36",
"`  c #9BAD38",
"'  c #BDBD23",
"]  c #ABB330",
"[  c #D08711",
"{  c #C4A608",
"}  c #CCB60B",
"|  c #DABC07",
" . c #EABF03",
".. c #E3BD26",
"X. c #CFC40C",
"o. c #E4C502",
"O. c #EBC502",
"+. c #E6C902",
"@. c #EBCB01",
"#. c #E3C90B",
"$. c #F4CC00",
"%. c #FBCE00",
"&. c #E9D400",
"*. c #EBDA00",
"=. c #F7D401",
"-. c #E6CC1F",
";. c #EEE300",
":. c #F0E600",
">. c #C8C521",
",. c #B2955C",
"<. c #8FA941",
"1. c #9CBB48",
"2. c #A98B71",
"3. c #AE9377",
"4. c #B19476",
"5. c #B4967A",
"6. c #BB9A7E",
"7. c #84B861",
"8. c #E3BD52",
"9. c #DD8374",
"0. c #E08F7A",
"q. c #DEBA62",
"w. c #DFBC7C",
"e. c #E0BB6A",
"r. c #E9CD57",
"t. c #D37282",
"y. c #168F9A",
"u. c #15919B",
"i. c #1B939C",
"p. c #3C988E",
"a. c #219097",
"s. c #23959E",
"d. c #3BA09E",
"f. c #1692AB",
"g. c #1D98B5",
"h. c #1C99B9",
"j. c #2087A1",
"k. c #2398A3",
"l. c #2D9CA4",
"z. c #2C9CAB",
"x. c #329DA5",
"c. c #3C9AA7",
"v. c #329EA9",
"b. c #249BB2",
"n. c #259BB4",
"m. c #36A2A8",
"M. c #35A9B1",
"N. c #429887",
"B. c #51A58A",
"V. c #44A394",
"C. c #66B586",
"Z. c #55AAAE",
"A. c #59AAAB",
"S. c #6FB5BA",
"D. c #8E8B8E",
"F. c #A8938A",
"G. c #BE9D85",
"H. c #B1A9AB",
"J. c #DF909B",
"K. c #E19488",
"L. c #E08B96",
"P. c #C3A483",
"I. c #C6A48A",
"U. c #CCAB89",
"Y. c #D2AF8C",
"T. c #CEB38D",
"R. c #DAB887",
"E. c #CBB790",
"W. c #D9B893",
"Q. c #DEBA95",
"!. c #E5AA90",
"~. c #E6BB97",
"^. c #E8BE92",
"/. c #DE96A3",
"(. c #CEB9A9",
"). c #E3A2A8",
"_. c #E4BCA3",
"`. c #E4B6B9",
"'. c #B2CA9F",
"]. c #DEC19A",
"[. c #EAC195",
"{. c #E6C19A",
"}. c #EAC49C",
"|. c #EEC89F",
" X c #F1E382",
".X c #EBC6A2",
"XX c #EDCAA1",
"oX c #E6C7A9",
"OX c #EBC4AB",
"+X c #EACBAD",
"@X c #F2CBA2",
"#X c #F3CCAA",
"$X c #EFD3A7",
"%X c #EDDAAD",
"&X c #F3D4A8",
"*X c #F3DBAC",
"=X c #E8CCB4",
"-X c #EBD2BA",
";X c #FBDABA",
":X c #F1E8A4",
">X c #F7E5B1",
",X c #88C4C5",
"<X c #ABD1D1",
"1X c #C9C7C9",
"2X c #D3CFD3",
"3X c #DAD8D8",
"4X c #EED0CD",
"5X c #EBD8C8",
"6X c #EADCD3",
"7X c #F4E2CB",
"8X c #F6EAD7",
"9X c #F7F2D1",
"0X c #C4DCE2",
"qX c #D0E7E9",
"wX c #E8E8E7",
"eX c #EAEAEA",
"rX c #F4E9E8",
"tX c #F6F4EA",
"yX c #EAEEF3",
"uX c #EBEFFA",
"iX c #EEF2F3",
"pX c #F2F2F3",
"aX c #F7F9F6",
"sX c #FFFFFF",
/* pixels */
"sXsXsXsXsXsXsXsXsXsXsXsXsXsXsXsXsXsXsXsXsXsXsXsXsXsXsXsXsXsXsXsXsXsXsXsXsXsXsXsXsXsXsXsXsXsXsXsXsXsXsXsXsXsXsXsXsXsXsXsXsXsXsXsX",
"sXsXsXsXsXsXsXsXsXsXsXsXsXsXsXsXsXsXsXsXsXsXsXsXsXsXsXsXsXsXsXsXsXsXsXsXsXsXsXsXsXsXsXsXsXsXsXsXsXsXsXsXsXsXsXsXsXsXsXsXsXsXsXsX",
"sXsXsXsXsXsXsXsXsXsXsXsXsXsXsXsXsXsXsXsXsXsXsXsXsXsXsXsXsXsXsXsXsXsXsXsXsXsXsXsXsXsXsXsXsXsXsXsXsXsXsXsXsXsXsXsXsXsXsXsXsXsXsXsX",
"sXsXsXsXsXsXsXsXsXsXsXsXsXsXsXsXsXsXsXsXsXsXsXsXsXsXsXsXsXsXsXsXsXsXsXsXsXsXsXsXsXsXsXsXsXsXsXsXsXsXsXsXsXsXsXsXsXsXsXsXsXsXsXsX",
"sXsXsXsXsXsXsXsXsXsXsXsXsXsXsXsXsXsXsXsXsXsXsXsXsXsXsXsXsXsXsXsXsXsXsXsXsXsXsXsXsXsXsXsXsXsXsXsXsXsXsXsXsXsXsXsXsXsXsXsXsXsXsXsX",
"sXsXsXsXsXsXsXsXsXsXsXsXsXsXsXsXsXsXsXsXsXsXsXsXsXsXsXsXsXsXsXsXsXsXsXsXsXsXsXsXsXsXsXsXsXsXsXsXsXsXsXsXsXsXsXsXsXsXsXsXsXsXsXsX",
"sXsXsXsXsXsXsXsXsXsXsXsXsXsXsXsXsXsXsXsXsXsXsXsXsXsXsXsXsXsXsXsXsXsXsXsXaXsXsXsXsXsXsXsXsXsXsXsXsXsXsXsXsXsXsXsXsXsXsXsXsXsXsXsX",
"sXsXsXsXsXsXsXsXsXsXsXsXsXsXsXsXsXsXsXsXsXsXsXsXsXsXsXsXsXsXsXsXsXsXsXsXsXsXsXsXsXsXsXsXsXsXsXsXsXsXsXsXsXsXsXsXsXsXsXsXsXsXsXsX",
"sXsXsXsXsXsXsXsXsXsXsXsXsXsXsXsXsXsXsXsXsXsXsXsXsXsXsXsXsXsXsXsXsXsXsXsXsXaXsXsXsXsXsXsXsXsXsXsXsXsXsXsXsXsXsXsXsXsXsXsXsXsXsXsX",
"sXsXsXsXsXsXsXsXsXsXsXsXsXsXsXsXsXsXsXsXsXsXsXsXsXsXsXsX>X9XsXsXsXsXsXsXsXsXsXsXsXsXsXsXsXsXsXsXsXsXsXsXsXsXsXsXsXsXsXsXsXsXsXsX",
"sXsXsXsXsXsXsXsXsXsXsXsXsXsXsXsXsXsXsXsXsXsXsXsXtXr.-.o.o.o.#.r.:XsXsXsXsXsXsXsXsXsXsXsXsXsXsXsXsXsXsXsXsXsXsXsXsXsXsXsXsXsXsXsX",
"sXsXsXsXsXsXsXsXsXsXsXsXsXsXsXsXsXsXsXsXsXsXsX Xo.@.+.+.+.+.@.O.$.'.0XwXsXsXsXsXsXsXsXsXsXsXsXsXsXsXsXsXsXsXsXsXsXsXsXsXsXsXsXsX",
"sXsXsXsXsXsXsXsXsXsXsXsXsXsXsXsXsXsXsXsXsXsX@.@.@.' %.O.$.%.} ` <.f.k.i.i.Z.<XsXsXsXsXsXsXsXsXsXsXsXsXsXsXsXsXsXsXsXsXsXsXsXsXsX",
"sXsXsXsXsXsXsXsXsXsXsXsXsXsXsXsXsXsXsXsXqXA.} { N.Q <.f.p.N.h.n.b.x.x.l.x.k.s.a.<XsXsXsXsXsXsXsXsXsXsXsXsXsXsXsXsXsXsXsXsXsXsXsX",
"sXsXsXsXsXsXsXsXsXsXsXsXsXsXsXsXsXsXeXm.y.l.g.b.z.z.n.z.v.z.x.x.l.x.x.l.x.x.x.x.i.V.uXsXsXsXsXsXsXsXsXsXsXsXsXsXsXsXsXsXsXsXsXsX",
"sXsXsXsXsXsXsXsXsXsXsXsXsXsXsXsXsX,Xi.l.v.v.x.l.x.v.v.v.x.x.x.x.v.x.x.x.x.x.x.v.v.s.i.,XsXsXsXsXsXsXsXsXsXsXsXsXsXsXsXsXsXsXsXsX",
"sXsXsXsXsXsXsXsXsXsXsXsXsXsXsXsXV.k.l.x.x.v.x.x.x.c.v.v.x.x.x.x.x.x.x.v.m.x.l.v.x.x.v.i.A.sXsXsXsXsXsXsXsXsXsXsXsXsXsXsXsXsXsXsX",
"sXsXsXsXsXsXsXsXsXsXsXsXsXsXaXs.z.z.x.x.x.m.x.x.x.x.x.x.x.x.x.x.x.x.v.v.M.x.x.m.x.x.x.m.k.A.sXsXsXsXsXsXsXsXsXsXsXsXsXsXsXsXsXsX",
"sXsXsXsXsXsXsXsXsXsXsXsXsXaXs.l.v.x.x.x.x.l.x.x.c.x.x.c.x.v.z.z.l.b.z.v.@ b.z.z.v.v.m.v.v.s.,XsXsXsXsXsXsXsXsXsXsXsXsXsXsXsXsXsX",
"sXsXsXsXsXsXsXsXsXsXsXsXsXx.l.x.v.v.l.v.v.m.M.m.v.z.b.n.b.z.V.~ ! 7.~ + W Q B.d.z.h.g.b.z.z.u.qXsXsXsXsXsXsXsXsXsXsXsXsXsXsXsXsX",
"sXsXsXsXsXsXsXsXsXsXsXsXS.s.x.x.x.x.v.v.v.M.& e j.C.1.>.O.%.$.&.%.{ % o.O.O.$.%.%.@.>.` ! V.g.u.sXsXsXsXsXsXsXsXsXsXsXsXsXsXsXsX",
"sXsXsXsXsXsXsXsXsXsXsXyXi.m.l.x.l.x.l.z.b.g.C.) H q q ( r.w.W.oXU y ;X=X_._._.Q.R.e.r...O.$.O.] '.sXsXsXsXsXsXsXsXsXsXsXsXsXsXsX",
"sXsXsXsXsXsXsXsXsXsXsXA.k.m.l.v.v.l.h.x.1.O.$.-.q.=X8XH.U @X|.0.(.aXeXyXyX6X^.}..X.X}..XOX_.w.8.| sXsXsXsXsXsXsXsXsXsXsXsXsXsXsX",
"sXsXsXsXsXsXsXsXsXsXaXy.l.m.v.l.h.V.' %. .q.Q.4XuXyXeXyXuX=X^.5XuXeXeXeXeXyXeX~.}.}.}.}.}.{..X.X~.sXsXsXsXsXsXsXsXsXsXsXsXsXsXsX",
"sXsXsXsXsXsXsXsXsXsX<Xk.x.x.h.m.' %...R.OX}.5XuXwXwXwXeXeXyX{.eXwXwXeXeXeXeXeXwX^.XX}.}.{.}.{.}.^.rXsXsXsXsXsXsXsXsXsXsXsXsXsXsX",
"sXsXsXsXsXsXsXsXsXsXS.k.b.z.] %...W.OX}.{.+XuXwXeXeXeXeXeXeX2XpXyXeXeXeXeXeXeXyX=X}.}.}.}.}.}.}.[.7XsXsXsXsXsXsXsXsXsXsXsXsXsXsX",
"sXsXsXsXsXsXsXsXsXsXc.h.7.$...Q.OX}.|.}.[.wXpXeXeXeXeXeXeXyX1X2XH.eXeXeXeXeXeXeX6X[.}.}.{.|.}.}.[.;XsXsXsXsXsXsXsXsXsXsXsXsXsXsX",
"sXsXsXsXsXsXsXsXsXsXp.X.O.R.OX}.~.}.}.{.}.2XH.pXeXeXeXeXeXeX6X1XD.yXeXeXeXeXeXeXeX[.}.}.}.}.}.}.}.5XsXsXsXsXsXsXsXsXsXsXsXsXsXsX",
"sXsXsXsXsXsXsXsXsXaXo.q.OX.X}.{.}.}.}.}.+X1XD.pXeXwXeXeXeXeX7XwXpXeXeXeXeXeXeXeXeX[.}.}.{.}.}.}.[.7XsXsXsXsXsXsXsXsXsXsXsXsXsXsX",
"sXsXsXsXsXsXsXsXsXsX_.|.}.{..X}.}.}.}.}..XiXpXeXeXeXeXeXwXiX+X+XyXeXeXwXeXeXeXeX6X[.}.|.}.}.}.}.[.7XsXsXsXsXsXsXsXsXsXsXsXsXsXsX",
"sXsXsXsXsXsXsXsXsXsX-X[.}.}..X}.}.}..X}.[.eXeXeXeXeXeXeXeXwX^.[.5XyXeXeXeXeXeXyXXX}.}.}.}.}.}.}.^.aXsXsXsXsXsXsXsXsXsXsXsXsXsXsX",
"sXsXsXsXsXsXsXsXsXsX6X[.}.{.}.}.}.}.}.}.{.=XiXeXwXeXeXeXeX}.}.}.^.-XyXyXeXyXeX=X[.}.}.}.}.}.}.}.}.sXsXsXsXsXsXsXsXsXsXsXsXsXsXsX",
"sXsXsXsXsXsXsXsXsXsXaXQ.}.}.}.}.}.}.}.}.}.[.-XyXyXyXyX6X~.}.}.}.}.}.^.+X-X=X^.}.{.}.|.|.{.}.}.}.9XsXsXsXsXsXsXsXsXsXsXsXsXsXsXsX",
"sXsXsXsXsXsXsXsXsXsXsXoX}.}.}.}.}.}.{.}.|.}.^.}.oX+X}.^.|.}.}.}.}.}.}.}.}.}.}.}.}.|.}.{.}.|.W.&Xs L.sXsXsXsXsXsXsXsXsXsXsXsXsXsX",
"sXsXsXsXsXsXsXsXsXsXsXaX[.}.}.}.}.{.{.}.}.}.}.}.|.{.}.}.}.}.}.}.}.}.}.}.}.}.}.|.}.}.}.}.|.Y.E.Y l s d ).sXsXsXsXsXsXsXsXsXsXsXsX",
"sXsXsXsXsXsXsXsXsXsXsXR 0.|.}.|.}.}.}.}.}.}.}.|.}.}.}.}.}.}.}.}.}.}.}.|..X}.}.}.}.|.}.|.T.T.!.d Z Z x s P sXsXsXsXsXsXsXsXsXsXsX",
"sXsXsXsXsXsXsXsXsXsXt.p l $X|.XX}.}.}..X}.}.}.}.}.}.}.}.}.{.|.}.}.}.@X|.}.}.}.}.}.|.@XG.W.&Xl V Z Z Z Z d Y sXsXsXsXsXsXsXsXsXsX",
"sXsXsXsXsXsXsXsXsX`.s b b F %XT.@X|.|.}.}.}.}..X}.}.}.}.}.^.{.@XXX}.2.|.|.}.}.}.|.{.3.}.%XS l x Z Z Z Z b s ).sXsXsXsXsXsXsXsXsX",
"sXsXsXsXsXsXsXsXsXa x b Z l F %X3.U.@X|.|.}.}..X}.}.}.}.}.}.6.5.5.4..X|.}.}.|.@XP.5.&XXXS V V Z Z Z S Z v x p rXsXsXsXsXsXsXsXsX",
"sXsXsXsXsXsXsXsX/.d b Z Z b l F &XQ.5.W.@X}.}.}.}.}.}.}.|.|.@X@X@X@XXXU.{.|.~.3.~.*X!.d V x v Z Z Z Z Z x Z l N sXsXsXsXsXsXsXsX",
"sXsXsXsXsXsXsXsXF c Z b Z Z Z C l K.>XT.5.W.@X|.Q..X{.}.{.P.I.U.U.Y.U.}.~.G.I.&X$XY d x Z Z Z x b x x Z Z x Z p sXsXsXsXsXsXsXsX",
"sXsXsXsXsXsXsXsXp b Z b Z Z Z x b d F !.>XT.5.P.w.T.{..X|.XX#X+X#X_.I.P.P.@X$XR d B V Z Z Z Z Z Z x b b b x Z d `.sXsXsXsXsXsXsX",
"sXsXsXsXsXsXsX4Xp b b b Z b Z Z Z Z l d F 9.XX*X$X].U.I.I.G.,._ J _ 8.^.L.Y l l V x Z Z b Z Z Z Z Z Z b Z Z b d E sXsXsXsXsXsXsX",
"sXsXsXsXsXsXsX`.d b b b b x Z V Z Z Z Z l d d F Y 9.!.!.q.o.+.&.=.^ @.@.| f v Z Z Z x x Z Z b Z x Z Z b b Z Z d E sXsXsXsXsXsXsX",
"sXsXsXsXsXsXsX4Xp b Z b b Z Z b Z Z Z x b Z Z b l d l L &.+.+.@.{ ( @.+.@.;.L v b Z b V Z Z Z Z b b Z Z Z Z Z l R sXsXsXsXsXsXsX",
"sXsXsXsXsXsXsXsXb V Z Z b b b b Z Z b b Z b Z b Z Z z ;.+.+.+.@.^ o.@.@.+.+.;.m Z x Z b b Z Z Z Z V Z Z Z b Z d R sXsXsXsXsXsXsX",
"sXsXsXsXsXsXsXsX).d V b Z b Z Z Z Z Z V b b Z v b v M *.o.+.@.+.=.( { @.+.+.*.D b Z Z Z Z Z Z Z b Z Z S Z Z Z d J.sXsXsXsXsXsXsX",
"sXsXsXsXsXsXsXsXpXs x Z Z S Z Z Z b Z Z x Z V b b b M &.+.+.+.@.) ^ X.@.+.+.*.D v Z x Z b S b b b Z V Z b Z v p 4XsXsXsXsXsXsXsX",
"sXsXsXsXsXsXsXsXsXm b b b Z Z Z Z Z Z b b Z Z b Z Z z :.+.+.+.+.H =.@.+.+.+.:.m v b Z b b x Z b b b Z Z Z b Z i sXsXsXsXsXsXsXsX",
"sXsXsXsXsXsXsXsXsXT l b b Z Z Z x x b Z b b b b b Z b L ;.O.+.O.X.( @.@.+.;.[ v Z b Z b Z Z b V b Z S b V A s `.sXsXsXsXsXsXsXsX",
"sXsXsXsXsXsXsXsXsX/.a b Z Z Z b Z b Z Z b b b b b b b v G +.*.*./ *.*.*.&.K c Z Z Z Z Z S Z Z Z Z C A A B u I sXsXsXsXsXsXsXsXsX",
"sXsXsXsXsXsXsXsXsXsXb a b b b Z b V v b x x b b m b b b C c N L [ G L g c v Z Z Z Z A Z m n n u j j 0 5 1 > 1XsXsXsXsXsXsXsXsXsX",
"sXsXsXsXsXsXsXsXsXsXsXt.B Z b l b b b Z V b b b b Z Z Z b b v v C 8 h c V Z Z Z A k 6 1 1 3 1 4 < 1 1 2 2 < sXsXsXsXsXsXsXsXsXsX",
"sXsXsXsXsXsXsXsXsXsXsXsXw n A Z b b b b Z Z b x Z Z S b b b b b Z m m c A C b j 2 1 2 2 < 2 2 < 2 2 2 2 ; F.sXsXsXsXsXsXsXsXsXsX",
"sXsXsXsXsXsXsXsXsXsXsXsXF.> 5 j m A A A Z A A A A A A A A A A m z m n j j 5 1 4 2 2 2 2 5 2 < 2 2 2 5 2 > rXsXsXsXsXsXsXsXsXsXsX",
"sXsXsXsXsXsXsXsXsXsXsXsXsX; 2 5 1 1 2 : 9 9 9 8 8 8 7 7 % % , 3 1 3 3 2 1 , > % $ $ $ $ $ $ $ , 1 < 5 < t sXsXsXsXsXsXsXsXsXsXsX",
"sXsXsXsXsXsXsXsXsXsXsXsXD.    . . o O O + + @ & @ @ O o . . . . X # X O & @ * = - - - - - - = * + O o   r pXsXsXsXsXsXsXsXsXsXsX",
"sXsXsXsXsXsXsXsXsXsXsXsX3X1XpXsXsXsXsXsXsXsXsXsXsXsXsXsXsXsXsXsXsXsXsXsXsXsXsXsXsXsXsXsXsXsXsXsXsXsXsXsXaXaXsXsXsXsXsXsXsXsXsXsX",
"sXsXsXsXsXsXsXsXsXsXsXsXsXsXsXsXsXsXsXsXsXsXsXsXsXsXsXsXsXsXsXsXsXsXsXsXsXsXsXsXsXsXsXsXsXsXsXsXsXsXsXsXsXsXsXsXsXsXsXsXsXsXsXsX",
"sXsXsXsXsXsXsXsXsXsXsXsXsXsXsXsXsXsXsXsXsXsXsXsXsXsXsXsXsXsXsXsXsXsXsXsXsXsXsXsXsXsXsXsXsXsXsXsXsXsXsXsXsXsXsXsXsXsXsXsXsXsXsXsX",
"sXsXsXsXsXsXsXsXsXsXsXsXsXsXsXsXsXsXsXsXsXsXsXsXsXsXsXsXsXsXsXsXsXsXsXsXsXsXsXsXsXsXsXsXsXsXsXsXsXsXsXsXsXsXsXsXsXsXsXsXsXsXsXsX",
"sXsXsXsXsXsXsXsXsXsXsXsXsXsXsXsXsXsXsXsXsXsXsXsXsXsXsXsXsXsXsXsXsXsXsXsXsXsXsXsXsXsXsXsXsXsXsXsXsXsXsXsXsXsXsXsXsXsXsXsXsXsXsXsX",
"sXsXsXsXsXsXsXsXsXsXsXsXsXsXsXsXsXsXsXsXsXsXsXsXsXsXsXsXsXsXsXsXsXsXsXsXsXsXsXsXsXsXsXsXsXsXsXsXsXsXsXsXsXsXsXsXsXsXsXsXsXsXsXsX",
"sXsXsXsXsXsXsXsXsXsXsXsXsXsXsXsXsXsXsXsXsXsXsXsXsXsXsXsXsXsXsXsXsXsXsXsXsXsXsXsXsXsXsXsXsXsXsXsXsXsXsXsXsXsXsXsXsXsXsXsXsXsXsXsX"
};
