/* XPM */
static char *result[] = {
/* columns rows colors chars-per-pixel */
"64 64 216 2 ",
"   c #030107",
".  c #03030B",
"X  c #0C050A",
"o  c #130405",
"O  c #0C0C13",
"+  c #131319",
"@  c #311610",
"#  c #2B221B",
"$  c #36261B",
"%  c #3E231B",
"&  c #4E120F",
"*  c #750E17",
"=  c #49210B",
"-  c #523C04",
";  c #47271B",
":  c #552814",
">  c #542D1A",
",  c #5C2C1A",
"<  c #55311C",
"1  c #5A321C",
"2  c #612C1B",
"3  c #70291E",
"4  c #5D2F21",
"5  c #712621",
"6  c #655000",
"7  c #595E20",
"8  c #346559",
"9  c #18627D",
"0  c #4D404E",
"q  c #6A534A",
"w  c #615C60",
"e  c #8A1116",
"r  c #B5000E",
"t  c #BA0014",
"y  c #B40E13",
"u  c #BB001B",
"i  c #8E0B21",
"p  c #8B1C22",
"a  c #931A23",
"s  c #9B1824",
"d  c #A70C25",
"f  c #AE0C26",
"g  c #BE0223",
"h  c #B30B27",
"j  c #BE0A27",
"k  c #BC022B",
"l  c #BF0B29",
"z  c #A61425",
"x  c #AA1626",
"c  c #AD1426",
"v  c #B91227",
"b  c #BF1F30",
"n  c #C42715",
"m  c #C00A27",
"M  c #C40529",
"N  c #C10B2A",
"B  c #CA0B2B",
"V  c #C21A36",
"C  c #C93722",
"Z  c #C52936",
"A  c #816A00",
"S  c #997600",
"D  c #CE561C",
"F  c #D26B15",
"G  c #CA3746",
"H  c #896759",
"J  c #CB434C",
"K  c #CD4856",
"L  c #D25959",
"P  c #D4635E",
"I  c #CB5468",
"U  c #DB6664",
"Y  c #D4716B",
"T  c #5AA052",
"R  c #73A859",
"E  c #71AD6B",
"W  c #92810C",
"Q  c #9AAE39",
"!  c #A7B230",
"~  c #DC9500",
"^  c #D98712",
"/  c #E09D0F",
"(  c #D8B116",
")  c #E4BC02",
"_  c #E7BE25",
"`  c #DBC704",
"'  c #C8C213",
"]  c #E5C501",
"[  c #ECC300",
"{  c #E6C802",
"}  c #EBCB01",
"|  c #F4C700",
" . c #F2CB00",
".. c #FBCD00",
"X. c #E7D206",
"o. c #E8D400",
"O. c #EBDD00",
"+. c #FFD200",
"@. c #EDE300",
"#. c #E7CD29",
"$. c #E8C839",
"%. c #9AB945",
"&. c #8DB350",
"*. c #A1856D",
"=. c #A18477",
"-. c #AE9175",
";. c #B6987B",
":. c #DBA444",
">. c #E2B84C",
",. c #E3BD58",
"<. c #DB8878",
"1. c #DF927D",
"2. c #DFBB6E",
"3. c #C1A17C",
"4. c #DEBA77",
"5. c #E1BB7C",
"6. c #E9D351",
"7. c #EAD768",
"8. c #E8C570",
"9. c #F1E27E",
"0. c #D77686",
"q. c #16919A",
"w. c #1D949D",
"e. c #22959E",
"r. c #369493",
"t. c #1592A9",
"y. c #1696B3",
"u. c #1C99BA",
"i. c #228FA1",
"p. c #2699A3",
"a. c #2D9CA4",
"s. c #2699AA",
"d. c #2B9CAC",
"f. c #329DA5",
"g. c #319DA8",
"h. c #3A9FA9",
"j. c #249CB3",
"k. c #2FA1AE",
"l. c #36A3A7",
"z. c #2DA4B4",
"x. c #459B82",
"c. c #4D9B9B",
"v. c #52A78A",
"b. c #43A295",
"n. c #4E9EA2",
"m. c #4BA6A9",
"M. c #53ABAE",
"N. c #77B6AF",
"B. c #72BBCB",
"V. c #9A979A",
"C. c #BE9E81",
"Z. c #BCA181",
"A. c #8BBFB7",
"S. c #B6B0B1",
"D. c #CC998E",
"F. c #E29A83",
"G. c #C2A283",
"H. c #C8AB88",
"J. c #CEAC8A",
"K. c #D1AD8C",
"L. c #CCB18D",
"P. c #D8B58C",
"I. c #D8B793",
"U. c #E3BC8C",
"Y. c #E2BC95",
"T. c #E9BE93",
"R. c #E8BC98",
"E. c #DEBBA7",
"W. c #E3BDA6",
"Q. c #E6B2BB",
"!. c #D9C399",
"~. c #EBD589",
"^. c #EAC196",
"/. c #E4C39B",
"(. c #EAC49D",
"). c #EFC89F",
"_. c #F1C79C",
"`. c #F1E48E",
"'. c #EBC4A2",
"]. c #E6C9A7",
"[. c #EECAA1",
"{. c #EAC3AC",
"}. c #F2CBA2",
"|. c #F5CEAC",
" X c #EFD6A8",
".X c #F2D7A9",
"XX c #F3DBAC",
"oX c #EACDB3",
"OX c #EBD1B8",
"+X c #F7D3B1",
"@X c #F7E4B2",
"#X c #E9B7C2",
"$X c #99C5C4",
"%X c #AAD6DA",
"&X c #BDDEE1",
"*X c #C7C9C5",
"=X c #D3CCC9",
"-X c #DAD9DB",
";X c #EAD6C3",
":X c #E9D8CB",
">X c #E9DDD5",
",X c #EEE4C4",
"<X c #FAF4C6",
"1X c #EBE2DB",
"2X c #F3E9D6",
"3X c #C5E1E4",
"4X c #D9E9E7",
"5X c #EAE5E4",
"6X c #E7E5E8",
"7X c #EAEBEB",
"8X c #F3F1EE",
"9X c #EAEEF3",
"0X c #EDF1F6",
"qX c #F4F6F7",
"wX c #F6F9F7",
"eX c #FFFFFF",
/* pixels */
"eXeXeXeXeXeXeXeXeXeXeXeXeXeXeXeXeXeXeXeXeXeXeXeXeXeXeXeXeXeXeXeXeXeXeXeXeXeXeXeXeXeXeXeXeXeXeXeXeXeXeXeXeXeXeXeXeXeXeXeXeXeXeXeX",
"eXeXeXeXeXeXeXeXeXeXeXeXeXeXeXeXeXeXeXeXeXeXeXeXeXeXeXeXeXeXeXeXeXeXeXeXeXeXeXeXeXeXeXeXeXeXeXeXeXeXeXeXeXeXeXeXeXeXeXeXeXeXeXeX",
"eXeXeXeXeXeXeXeXeXeXeXeXeXeXeXeXeXeXeXeXeXeXeXeXeXeXeXeXeXeXeXeXeXeXeXeXeXeXeXeXeXeXeXeXeXeXeXeXeXeXeXeXeXeXeXeXeXeXeXeXeXeXeXeX",
"eXeXeXeXeXeXeXeXeXeXeXeXeXeXeXeXeXeXeXeXeXeXeXeXeXeXeXeXeXeXeXeXeXeXeXeXeXeXeXeXeXeXeXeXeXeXeXeXeXeXeXeXeXeXeXeXeXeXeXeXeXeXeXeX",
"eXeXeXeXeXeXeXeXeXeXeXeXeXeXeXeXeXeXeXeXeXeXeXeXeXeXeXeXeXeXeXeXeXeXeXeXeXeXeXeXeXeXeXeXeXeXeXeXeXeXeXeXeXeXeXeXeXeXeXeXeXeXeXeX",
"eXeXeXeXeXeXeXeXeXeXeXeXeXeXeXeXeXeXeXeXeXeXeXeXeXeXeXeXeXeXeXeXeXeXeXeXeXeXeXeXeXeXeXeXeXeXeXeXeXeXeXeXeXeXeXeXeXeXeXeXeXeXeXeX",
"eXeXeXeXeXeXeXeXeXeXeXeXeXeXeXeXeXeXeXeXeXeXeXeXeXeXeXeXeXeXeXeXeXeXeXeXeXeXeXeXeXeXeXeXeXeXeXeXeXeXeXeXeXeXeXeXeXeXeXeXeXeXeXeX",
"eXeXeXeXeXeXeXeXeXeXeXeXeXeXeXeXeXeXeXeXeXeXeXeXeXeXeXeXeXeXeXeXeXeXeXeXeXeXeXeXeXeXeXeXeXeXeXeXeXeXeXeXeXeXeXeXeXeXeXeXeXeXeXeX",
"eXeXeXeXeXeXeXeXeXeXeXeXeXeXeXeXeXeXeXeXeXeXeXeXeXeXeXeXeXeXeXeXeXeXeXeXeXeXeXeXeXeXeXeXeXeXeXeXeXeXeXeXeXeXeXeXeXeXeXeXeXeXeXeX",
"eXeXeXeXeXeXeXeXeXeXeXeXeXeXeXeXeXeXeXeXeXeXeXeXeXeXeXeXeXeXeXeXeXeXeXeXeXeXeXeXeXeXeXeXeXeXeXeXeXeXeXeXeXeXeXeXeXeXeXeXeXeXeXeX",
"eXeXeXeXeXeXeXeXeXeXeXeXeXeXeXeXeXeXeXeXeXeXeXeXeXeXeXeXeXeXeX@X6.6.9.#.9.eXeXeXeXeXeXeXeXeXeXeXeXeXeXeXeXeXeXeXeXeXeXeXeXeXeXeX",
"eXeXeXeXeXeXeXeXeXeXeXeXeXeXeXeXeXeXeXeXeXeXeXeXeXeXeXeXeX7.[ ) } ] ] ] ) ) 7.wXeXeXeXeXeXeXeXeXeXeXeXeXeXeXeXeXeXeXeXeXeXeXeXeX",
"eXeXeXeXeXeXeXeXeXeXeXeXeXeXeXeXeXeXeXeXeXeXeXeXeXeX0X%XN.....&.` ..| | }  .[ 6.eXeXeXeXeXeXeXeXeXeXeXeXeXeXeXeXeXeXeXeXeXeXeXeX",
"eXeXeXeXeXeXeXeXeXeXeXeXeXeXeXeXeXeXeXeXeXeXeXeX&Xm.q.w.p.i.r.u.R x.x.! Q E ! x.i.N.4XeXeXeXeXeXeXeXeXeXeXeXeXeXeXeXeXeXeXeXeXeX",
"eXeXeXeXeXeXeXeXeXeXeXeXeXeXeXeXeXeXeXeXeXeX&Xa.e.e.d.l.f.f.f.f.d.d.g.j.j.s.j.s.a.p.w.m.7XeXeXeXeXeXeXeXeXeXeXeXeXeXeXeXeXeXeXeX",
"eXeXeXeXeXeXeXeXeXeXeXeXeXeXeXeXeXeXeXeXeXM.w.f.a.l.f.a.f.f.f.f.g.f.g.f.f.f.f.f.d.f.f.a.q.$XeXeXeXeXeXeXeXeXeXeXeXeXeXeXeXeXeXeX",
"eXeXeXeXeXeXeXeXeXeXeXeXeXeXeXeXeXeXeX4Xw.p.f.f.f.a.l.f.f.f.f.f.f.f.f.f.f.f.f.f.f.f.f.f.f.e.c.eXeXeXeXeXeXeXeXeXeXeXeXeXeXeXeXeX",
"eXeXeXeXeXeXeXeXeXeXeXeXeXeXeXeXeXeX4Xq.a.g.a.f.f.f.f.f.f.f.f.f.f.f.f.f.f.f.f.f.f.g.f.f.f.f.p.c.eXeXeXeXeXeXeXeXeXeXeXeXeXeXeXeX",
"eXeXeXeXeXeXeXeXeXeXeXeXeXeXeXeXeXqXq.g.f.f.l.f.l.d.k.d.f.d.k.g.g.f.f.f.f.f.f.g.a.f.f.f.f.g.f.p.n.eXeXeXeXeXeXeXeXeXeXeXeXeXeXeX",
"eXeXeXeXeXeXeXeXeXeXeXeXeXeXeXeXeXh.a.g.f.a.a.f.a.d.s.z.z.z.9 k.f.f.f.j.u.j.j.z.d.d.f.f.f.f.f.f.e.A.eXeXeXeXeXeXeXeXeXeXeXeXeXeX",
"eXeXeXeXeXeXeXeXeXeXeXeXeXeXeXeX%Xw.f.d.a.d.j.u.j.v.&.! 7 A ..+.........[ ` W 8 E l.z.j.d.g.f.f.f.w.wXeXeXeXeXeXeXeXeXeXeXeXeXeX",
"eXeXeXeXeXeXeXeXeXeXeXeXeXeXeXeXe.a.d.s.u.b.&.' +.) 6 q >.8.!.I.U.U.U.P.4.,.$.( - S X.%.v.u.j.d.d.a.m.eXeXeXeXeXeXeXeXeXeXeXeXeX",
"eXeXeXeXeXeXeXeXeXeXeXeXeXeXeX3Xt.u.b.%.` | _ ,.3.0 W.+X7X0X9X9X9X{.R.(.T.oX:X:X+X=.+ 6 +.} %.b.u.d.q.4XeXeXeXeXeXeXeXeXeXeXeXeX",
"eXeXeXeXeXeXeXeXeXeXeXeXeXeXeXB.R ` | $.5.{.'.'.}._.oX0X7X7X7X7X7X9X^.^.6X9X9X7X0X:X'.C.W.2.#...` E y.M.eXeXeXeXeXeXeXeXeXeXeXeX",
"eXeXeXeXeXeXeXeXeXeXeXeXeXeXeX] _ 5.{.{.'.^.(./.(.(.0X7X7X6X7X7X7X7X:X1X7X7X7X7X7X9X:X).(.'.{.E.,.| } T eXeXeXeXeXeXeXeXeXeXeXeX",
"eXeXeXeXeXeXeXeXeXeXeXeXeXeXeXE.{.'.(.(.(.(.(.(.^.>XS.8X7X7X7X7X7X7X=XqX7X7X7X7X7X6X9X/.(.(.(.(.{.W.4.) <XeXeXeXeXeXeXeXeXeXeXeX",
"eXeXeXeXeXeXeXeXeXeXeXeXeXeXeXR.(.(.(.(.(.(.(.(.^.6Xw wX7X5X7X7X7X7X-XV.-X7X7X7X7X7X7X>X^.(.(.(./.'.'.'.@XeXeXeXeXeXeXeXeXeXeXeX",
"eXeXeXeXeXeXeXeXeXeXeXeXeXeXeX/.(.(.(.(.(.(.(.(.^.9XqX7X7X7X7X7X7X7X1XV.-X7X7X7X7X7X7X6X^.(.(.(.(.(.^.Y.2XeXeXeXeXeXeXeXeXeXeXeX",
"eXeXeXeXeXeXeXeXeXeXeXeXeXeXeX].(.(.(.(./.(.(.(.^.7X7X7X7X7X7X7X7X9X].qX7X7X7X7X7X7X7X7XT.(.(.(.(.(.(.T.2XeXeXeXeXeXeXeXeXeXeXeX",
"eXeXeXeXeXeXeXeXeXeXeXeXeXeXeX;X^.(.(.(.(.(.'.(.(.;X7X7X7X7X7X7X9XoXT.5X7X7X7X7X7X7X7X1X^.'.(.(.(.(.(.T.wXeXeXeXeXeXeXeXeXeXeXeX",
"eXeXeXeXeXeXeXeXeXeXeXeXeXeXeX1XT.^.(.(.(.(.(.(.(.^.5X9X7X9X7X9XoX^.(.].9X7X7X7X7X7X9X;X^.(.(.(.(.(.(.R.eXeXeXeXeXeXeXeXeXeXeXeX",
"eXeXeXeXeXeXeXeXeXeXeXeXeXeXeXeX(.(.(.(./.(.^.(.^.(.T.oX:X:XOX(.^.(.(.^.OX9X7X7X7X9X5X^.(.(.(.(./.(.R. XeXeXeXeXeXeXeXeXeXeXeXeX",
"eXeXeXeXeXeXeXeXeXeXeXeXeXeXeX#X<.[.).(.(.(.(.(.(.(.(.(.^.^.^.(.(.(.(.^.(.[.:X5X1X;X^./.(.(.(.(.(.(./.2XeXeXeXeXeXeXeXeXeXeXeXeX",
"eXeXeXeXeXeXeXeXeXeXeXeXeXQ.l t u [.(. X(.(.(.(.(.(.(.'.(.(.(.(.(.^.(.(.(.(.^.^.^.^./.(.(.(.(.(.(.[.~.eXeXeXeXeXeXeXeXeXeXeXeXeX",
"eXeXeXeXeXeXeXeXeXeXeXeXI t l l g G !.Z.|.(.).(.(.(.(.(.(.(.(.(.(.(.(.(.(.(.(.(.(.(.(.(.(.).(.(.[. XZ G wXeXeXeXeXeXeXeXeXeXeXeX",
"eXeXeXeXeXeXeXeXeXeXeX0.t N N N l u Y ).;.}.(.(.(.[.(.(.(.(.^.(.(.(.(.'.(.(.'.(.).'.(.(.(.(.(.(.!.F.u g t eXeXeXeXeXeXeXeXeXeXeX",
"eXeXeXeXeXeXeXeXeXeXQ.r N j N N l l u 1.XX-.).).(.(.(.(.(.(.(.(.}.}.[.}.(.(.(.[.).(.(.(.(.}.I.Z.R.u N N u G eXeXeXeXeXeXeXeXeXeX",
"eXeXeXeXeXeXeXeXeX8Xr l N N N N N l l t Y @X;.I.}.(.(.(.(.(.)./.*.;.;.G.[.(.(.(.(.).).}./.G.I.R.g g l l l u D.eXeXeXeXeXeXeXeXeX",
"eXeXeXeXeXeXeXeXeXk k N l N l l N l j l u J @XL.-.(.(.).(.(.Y.[.}.}.}.Y.J.).(.(.).).I.;.H.@X1.u l l l k k l y U.eXeXeXeXeXeXeXeX",
"eXeXeXeXeXeXeXeX:.~ F k k m k l j l l l N g m F.@XH.Z.Z.Y.)./.H.J.K.K.J.K.Y.).}.G.;.K.XX XG u l l l k ^ O.O.@.} $.eXeXeXeXeXeXeX",
"eXeXeXeXeXeXeX#.] } o.O.F k k l l N N m N N j u Z F.XX.XL.G.3.G.K.[.[.[.I.;.G.G.[.XX[.P u M l l j k D O.{ { { ] ) eXeXeXeXeXeXeX",
"eXeXeXeXeXeXqX) { { { { o.{ C k l N N m N N N N M u k L F.XXXXXX/.L.L.L./.XX@X(.<.G u g m N j j l j @.{ { { { { ] ,XeXeXeXeXeXeX",
"eXeXeXeXeXeX8X] { { { { { { @.F k m N N l N m m l N N g g u V G K U Y P L Z j u u g N N N l l N k / X.] { { ] { ] ~.eXeXeXeXeXeX",
"eXeXeXeXeXeXeX] ] { { ] { { { O.C k N N l N N l l N l N N N j g M * d g u j N N N N j N N N N k C @.{ { { { ] { ] 6.eXeXeXeXeXeX",
"eXeXeXeXeXeXeX`.) { { ] { { { O.^ M N l l N N l l N l N N N N N M i f N N j N N N l j N N N l N C @.o.O.} { { ] ] ~.eXeXeXeXeXeX",
"eXeXeXeXeXeXeXeX7.) O.O.O.O.O.) Z N N l N N N l N N N N N N N N m B h N N N N N l j N N N N N N l k k k ^ @.O.] 7.eXeXeXeXeXeXeX",
"eXeXeXeXeXeXeXeXeXeXn N k k k k g j N N N m N l l l l N N N N N N B f B N N N j N l l N N l N N N N N N k N n >XeXeXeXeXeXeXeXeX",
"eXeXeXeXeXeXeXeXeXeXb k N l N N N l N N j N l N N l N l N N N N N h f m N N j N N N N N N N N l N N N l l k r eXeXeXeXeXeXeXeXeX",
"eXeXeXeXeXeXeXeXeXeXI g j l l N N l l j l l j l l N l N N l l N B & c M l l l N l l N N l l l l l N N N l g b eXeXeXeXeXeXeXeXeX",
"eXeXeXeXeXeXeXeXeXeX0.u l N N l N N l N l l l l l N N N N l l N N B d m l l l l l l N l l N N l N N N N l u Y eXeXeXeXeXeXeXeXeX",
"eXeXeXeXeXeXeXeXeXeXeXZ M N N l l l j j l j N l N N l N l N l N l N d N N l l l l l l l N N l l N N N l u g eXeXeXeXeXeXeXeXeXeX",
"eXeXeXeXeXeXeXeXeXeXeX*Xe B N l l l N N l N l l l N N v l N N l N B d N l l N l N N N B N B M M m M B m K eXeXeXeXeXeXeXeXeXeXeX",
"eXeXeXeXeXeXeXeXeXeXeXeX= 2 h M N j N N N N N j v N N l l l l N d & h k M N M B B h s a a p a a a p * q eXeXeXeXeXeXeXeXeXeXeXeX",
"eXeXeXeXeXeXeXeXeXeXeXeXH = > 3 s j B M N M m N N B B N N N l l N j f B M B v p > < > < > > > > < < ; L.eXeXeXeXeXeXeXeXeXeXeXeX",
"eXeXeXeXeXeXeXeXeXeXeXeX=X= 4 4 1 < 2 5 p s z z c c c x x z z z z z a a 5 2 < : , , , , 2 , , , , , = eXeXeXeXeXeXeXeXeXeXeXeXeX",
"eXeXeXeXeXeXeXeXeXeXeXeXeX: 2 4 2 2 > ; ; $ # # # # $ $ $ < < 1 < 4 4 > > ; ; % $ % % ; ; ; > , 2 : H eXeXeXeXeXeXeXeXeXeXeXeXeX",
"eXeXeXeXeXeXeXeXeXeXeXeX*XX o       . O O O + + O . .         o @ o   O O O O + + + + O O O O .   o w wXeXeXeXeXeXeXeXeXeXeXeXeX",
"eXeXeXeXeXeXeXeXeXeXeXeX7XS.-XwXeXeXeXeXeXeXeXeXeXeXeXeXeXwX8X9X9XeXeXeXeXeXeXeXeXeXeXeXeXeXeXeXeXwX7XwXeXeXeXeXeXeXeXeXeXeXeXeX",
"eXeXeXeXeXeXeXeXeXeXeXeXeXeXeXeXeXeXeXeXeXeXeXeXeXeXeXeXeXeXeXeXeXeXeXeXeXeXeXeXeXeXeXeXeXeXeXeXeXeXeXeXeXeXeXeXeXeXeXeXeXeXeXeX",
"eXeXeXeXeXeXeXeXeXeXeXeXeXeXeXeXeXeXeXeXeXeXeXeXeXeXeXeXeXeXeXeXeXeXeXeXeXeXeXeXeXeXeXeXeXeXeXeXeXeXeXeXeXeXeXeXeXeXeXeXeXeXeXeX",
"eXeXeXeXeXeXeXeXeXeXeXeXeXeXeXeXeXeXeXeXeXeXeXeXeXeXeXeXeXeXeXeXeXeXeXeXeXeXeXeXeXeXeXeXeXeXeXeXeXeXeXeXeXeXeXeXeXeXeXeXeXeXeXeX",
"eXeXeXeXeXeXeXeXeXeXeXeXeXeXeXeXeXeXeXeXeXeXeXeXeXeXeXeXeXeXeXeXeXeXeXeXeXeXeXeXeXeXeXeXeXeXeXeXeXeXeXeXeXeXeXeXeXeXeXeXeXeXeXeX",
"eXeXeXeXeXeXeXeXeXeXeXeXeXeXeXeXeXeXeXeXeXeXeXeXeXeXeXeXeXeXeXeXeXeXeXeXeXeXeXeXeXeXeXeXeXeXeXeXeXeXeXeXeXeXeXeXeXeXeXeXeXeXeXeX",
"eXeXeXeXeXeXeXeXeXeXeXeXeXeXeXeXeXeXeXeXeXeXeXeXeXeXeXeXeXeXeXeXeXeXeXeXeXeXeXeXeXeXeXeXeXeXeXeXeXeXeXeXeXeXeXeXeXeXeXeXeXeXeXeX"
};
