/* XPM */
static char *result[] = {
/* columns rows colors chars-per-pixel */
"64 64 231 2 ",
"   c #1A312F",
".  c #1B3935",
"X  c #28252D",
"o  c #2C2831",
"O  c #2E2F35",
"+  c #363139",
"@  c #3C343E",
"#  c #672917",
"$  c #763114",
"%  c #1C453D",
"&  c #20433E",
"*  c #757812",
"=  c #4C553D",
"-  c #695C3B",
";  c #3D3941",
":  c #1F4F48",
">  c #1B524C",
",  c #1B564D",
"<  c #264A42",
"1  c #244C43",
"2  c #265345",
"3  c #25554B",
"4  c #25584D",
"5  c #365C4D",
"6  c #265E54",
"7  c #25625A",
"8  c #28645C",
"9  c #4B4946",
"0  c #475B45",
"q  c #5D5C60",
"w  c #537A7B",
"e  c #716F70",
"r  c #9E3A0F",
"t  c #894D0D",
"y  c #9B4118",
"u  c #AB430E",
"i  c #B3450D",
"p  c #BA430C",
"a  c #AA4616",
"s  c #B44A13",
"d  c #B94814",
"f  c #BC551B",
"g  c #947115",
"h  c #AD6D0E",
"j  c #915A2B",
"k  c #B46327",
"l  c #C84E0E",
"z  c #D34E0C",
"x  c #DA4F0A",
"c  c #D75609",
"v  c #DC520C",
"b  c #C44D13",
"n  c #CC4D13",
"m  c #D24F10",
"M  c #C65716",
"N  c #CC5213",
"B  c #D45514",
"V  c #D45915",
"C  c #DB5812",
"Z  c #E24F0D",
"A  c #E2550C",
"S  c #E85708",
"D  c #ED5C0D",
"F  c #F45706",
"G  c #FD5500",
"H  c #FF5D05",
"J  c #F45D0C",
"K  c #FF5E09",
"L  c #E85C11",
"P  c #C76509",
"I  c #D7650B",
"U  c #D6720A",
"Y  c #EA6309",
"T  c #FF6207",
"R  c #FE6209",
"E  c #FA650B",
"W  c #D2662E",
"Q  c #E36727",
"!  c #EC743A",
"~  c #D67F53",
"^  c #3B871B",
"/  c #239E1F",
"(  c #3DBE01",
")  c #2BA31B",
"_  c #28A41D",
"`  c #36AB17",
"'  c #36B012",
"]  c #39B717",
"[  c #0C9623",
"{  c #059923",
"}  c #0A9A26",
"|  c #0D9A2B",
" . c #199925",
".. c #149D2D",
"X. c #139C30",
"o. c #1B9D32",
"O. c #239825",
"+. c #279B34",
"@. c #1BA22D",
"#. c #27A530",
"$. c #25A336",
"%. c #698618",
"&. c #46BD0D",
"*. c #49AD17",
"=. c #5DA211",
"-. c #43B413",
";. c #49B414",
":. c #48BA16",
">. c #4ABC14",
",. c #68AB08",
"<. c #6B8523",
"1. c #56B826",
"2. c #44AC37",
"3. c #5EB832",
"4. c #63BB39",
"5. c #3FC302",
"6. c #3DC813",
"7. c #43C304",
"8. c #44C805",
"9. c #45C50A",
"0. c #49C60D",
"q. c #46C80A",
"w. c #4AC90C",
"e. c #4DC613",
"r. c #46C914",
"t. c #4EC813",
"y. c #51C615",
"u. c #51CA14",
"i. c #56C21D",
"p. c #45D814",
"a. c #58C325",
"s. c #5FC431",
"d. c #61C432",
"f. c #6CCA37",
"g. c #77CA39",
"h. c #36A643",
"j. c #51AE54",
"k. c #6AB14F",
"l. c #75B75A",
"z. c #5BB361",
"x. c #65B461",
"c. c #79B867",
"v. c #6BC342",
"b. c #72C44C",
"n. c #79C557",
"m. c #8E8E0C",
"M. c #9D970D",
"N. c #B68C08",
"B. c #87A710",
"V. c #99882F",
"C. c #84BB69",
"Z. c #8BBB72",
"A. c #97BF77",
"S. c #E28A5D",
"D. c #D8906F",
"F. c #8ECD53",
"G. c #8CD06F",
"H. c #8BC979",
"J. c #99C47D",
"K. c #AFD26D",
"L. c #C4D77F",
"P. c #7E9692",
"I. c #8C9898",
"U. c #BEA483",
"Y. c #9AB3BB",
"T. c #D19D87",
"R. c #C4AB87",
"E. c #DBBE98",
"W. c #D8BDB4",
"Q. c #E7B4A6",
"!. c #98CF86",
"~. c #9AC589",
"^. c #A5C988",
"/. c #ABD08F",
"(. c #A9D493",
"). c #ACE194",
"_. c #AFD2AB",
"`. c #B5D7A4",
"'. c #BCD4B2",
"]. c #B9E4A6",
"[. c #C7CD95",
"{. c #CFCD96",
"}. c #D8D49B",
"|. c #E6D59E",
" X c #C2D8B8",
".X c #E9CCA5",
"XX c #E9D7A7",
"oX c #F7D4A7",
"OX c #F6D6AC",
"+X c #F9D6AC",
"@X c #F6D9AE",
"#X c #F9D9AE",
"$X c #E9D1B7",
"%X c #F6DAB1",
"&X c #FBDAB2",
"*X c #F6DBB8",
"=X c #FEDCB9",
"-X c #C4E8B4",
";X c #FBE1BA",
":X c #BEC1C1",
">X c #CFD1C9",
",X c #D4DADA",
"<X c #DCDCDD",
"1X c #E8D4C8",
"2X c #FADEC3",
"3X c #E3DEDF",
"4X c #CBE7C5",
"5X c #D5E5CB",
"6X c #DDE6D9",
"7X c #F5E1C4",
"8X c #F8E5CC",
"9X c #E2E7DD",
"0X c #F2E6D3",
"qX c #F8EAD8",
"wX c #DFDEE0",
"eX c #DCE2E2",
"rX c #E3E2E4",
"tX c #E9E8E7",
"yX c #ECEBED",
"uX c #F9EFE4",
"iX c #ECF1E8",
"pX c #F7F2E8",
"aX c #E7EBF1",
"sX c #F0EEF0",
"dX c #EFF4F5",
"fX c #F3F4F4",
"gX c #F4F8F6",
"hX c #FCF8F5",
"jX c #F5F7F9",
"kX c #F4FAFB",
"lX c #FFFFFF",
/* pixels */
"lXlXlXlXlXlXlXlXlXlXlXlXlXlXlXlXlXlXlXlXlXlXlXlXlXlXlXlXlXlXlXlXlXlXlXlXlXlXlXlXlXlXlXlXlXlXlXlXlXlXlXlXlXlXlXlXlXlXlXlXlXlXlXlX",
"lXlXlXlXlXlXlXlXlXlXlXlXlXlXlXlXyXsXsXyXyXyXyXyXsXfXjXhXhXhXlXlXlXlXlXlXlXlXlXlXlXlXlXlXlXlXlXlXlXlXlXlXlXlXlXlXlXlXlXlXlXlXlXlX",
"lXlXlXlXlXlXlXlXlXlXlXlXlXlXlX6Xk.3.d.3.3.4.3.4.4.k.k.k.l.C.C.Z.Z.Z.J.^./.`.'.'.'.'.'.5X5X5X6XtXfXlXlXlXlXlXlXlXlXlXlXlXlXlXlXlX",
"lXlXlXlXlXlXlXlXlXlXlXlXlXlXtX4.8.0.q.w.q.q.w.9.9.0.0.0.0.7.q.7.&.&.7.&.&.7.7.&.-.&.:.:.1.1.1.1.4.^.jXlXlXlXlXlXlXlXlXlXlXlXlXlX",
"lXlXlXlXlXlXlXlXlXlXlXlXlXlX!.7.e.y.r.e.e.t.t.e.e.y.e.e.y.t.e.e.t.e.0.e.e.e.e.e.w.t.e.w.w.w.w.q.q.5.G.lXlXlXlXlXlXlXlXlXlXlXlXlX",
"lXlXlXlXlXlXlXlXlXlXlXlXlXlXF.7.t.t.t.t.w.0.e.t.y.0.w.u.e.t.t.t.e.0.e.w.e.e.e.e.y.e.e.w.u.0.e.y.e.w.q.-XlXlXlXlXlXlXlXlXlXlXlXlX",
"lXlXlXlXlXlXlXlXlXlXlXlXlXjXb.9.t.y.t.e.e.y.y.u.y.y.t.t.e.t.t.t.e.0.e.e.t.t.y.e.t.e.e.e.0.y.u.0.e.e.5.).lXlXlXlXlXlXlXlXlXlXlXlX",
"lXlXlXlXlXlXlXlXlXlXlXlXlXjXf.q.u.t.u.u.u.t.u.u.0.u.t.t.t.t.0.e.t.u.t.e.e.u.t.t.t.t.e.y.e.u.y.y.e.t.7.).lXlXlXlXlXlXlXlXlXlXlXlX",
"lXlXlXlXlXlXlXlXlXlXlXlXlXfXd.0.e.y.y.y.y.y.y.y.u.t.y.u.u.y.u.u.u.u.u.u.y.u.u.u.u.u.u.u.y.y.u.y.t.e.5.).lXlXlXlXlXlXlXlXlXlXlXlX",
"lXlXlXlXlXlXlXlXlXlXlXlXlXfXd.w.>./ / / / ` ) ) ` ` ` ` ` -.' ' -.-.-.-.&.&.&.;.>.>.>.y.e.y.e.y.t.e.5.).lXlXlXlXlXlXlXlXlXlXlXlX",
"lXlXlXlXlXlXlXlXlXlXlXlXlXfXd.w.] X.X.X. .....X...| ...... .....| ..@. .[ @.@.@./ @./ / / / / / ) e.7.).lXlXlXlXlXlXlXlXlXlXlXlX",
"lXlXlXlXlXlXlXlXlXlXlXlXlXfXd.w.] ..X.X.....X.X.........X.o.@.| @.........@.| X...| ..........X.@.0.5.].lXlXlXlXlXlXlXlXlXlXlXlX",
"lXlXlXlXlXlXlXlXlXlXlXlXlXsXs.w.] X.X...................@...| ..@.| ..@.| ....X.................@.r.7.].lXlXlXlXlXlXlXlXlXlXlXlX",
"lXlXlXlXlXlXlXlXlXlXlXlXlXiXa.w.] X.X...o.................@.....@...........X.@.@.........o.X.| @.r.7.].lXlXlXlXlXlXlXlXlXlXlXlX",
"lXlXlXlXlXlXlXlXlXlXlXlXlXiXa.w.` X.......@.@...........| @.@...| ......@.................X.....o.t.7.].lXlXlXlXlXlXlXlXlXlXlXlX",
"lXlXlXlXlXlXlXlXlXlXlXlXlX9X*.;.) ....................X.....| ..X.....@.....@.| ........o.@.....#.t.q.].lXlXlXlXlXlXlXlXlXlXlXlX",
"lXlXlXlXlXlXlXlXlXlXlXlXlX~.-.u.] ....| ..@.....@.@.| ..........@.....................X.X.....| @.*.-.-XlXlXlXlXlXlXlXlXlXlXlXlX",
"lXlXlXlXlXlXlXlXlXlXlXlX'.;.w.u.` X...@.| } { { { } { [ [ [ [  .{ } } { { } } } | ......o...| ..@.r.' -XlXlXlXlXlXlXlXlXlXlXlXlX",
"lXlXlXlXlXlXlXlXlXlXlX9X1.q.e.u._ | } @.$.h.j.z.l.c.P.!.~.~.A.J.A.Z.C.l.x.j.j.+.+...[ { [ | ....#.t.0.l.fXlXlXlXlXlXlXlXlXlXlXlX",
"lXlXlXlXlXlXlXlXlXlXhXl.&.e.e.y.] 2.^.[.XXOX+X+X8XhXhXlXlXhXqX#X=X&X;XuXhXhXuX5X{.^.A.c.j.+...[ @.u.w.5.~.lXlXlXlXlXlXlXlXlXlXlX",
"lXlXlXlXlXlXlXlXlXlX X;.t.y.e.t.5.F.;X=X&X#X#XqXkXkXjXkXkXkXkX0XoX;XgXkXkXkXkXkXuX2X=X=X&X.X[.2.] w.t.w.3.6XlXlXlXlXlXlXlXlXlXlX",
"lXlXlXlXlXlXlXlXlXlXl.8.t.t.y.t.8.K.=X#X#X+X8XkXkXfXjXhXfXkXkXfX*XpXkXkXjXjXkXkXhXsX@X+X&X&X=Xf.q.t.t.u.7.Z.lXlXlXlXlXlXlXlXlXlX",
"lXlXlXlXlXlXlXlXlX>X>.t.t.u.e.e.q.L.=X#XoX;XhXkXgXjXjXjXkXfXgXkX9XgXkXgXjXjXjXjXgXkX0X+X+X&X+XF.q.t.t.y.e.1.6XlXlXlXlXlXlXlXlXlX",
"lXlXlXlXlXlXlXlXlX!.7.t.e.e.e.r.a.XX#XOXoXqXkXgXjXjXjXjXjXkXgXdX,XkXlXkXjXjXjXjXgXgXfX*X+X+X=XF.q.t.y.y.e.7.~.lXlXlXlXlXlXlXlXlX",
"lXlXlXlXlXlXlXlXfXk.q.u.t.e.e.5.F.&X@XoX+XhXe e lXjXjXjXgXgXgXdX<XtXI.tXjXjXjXjXkXgXkX7XOX%X=XK.0.e.t.t.e.w.4.fXlXlXlXlXlXlXlXlX",
"lXlXlXlXlXlXlXlX5X>.w.t.e.t.e.0.L.;X#X@X+XpX X:XlXjXjXjXkXgXkXfXpX,X9 6XlXjXjXjXfXgXkX0XOXOX&X}.y.r.t.t.e.e.:.5XlXlXlXlXlXlXlXlX",
"lXlXlXlXlXlXlXlX`.7.t.t.t.t.q.g.#X#X@X@X+XuXlXlXjXjXjXjXkXgXkXpX;XkXlXkXjXjXjXjXgXgXkX0XOX#X#X+Xg.9.t.y.y.t.7.!.lXlXlXlXlXlXlXlX",
"lXlXlXlXlXlXlXlX!.7.t.t.t.w.q.K.;X+X+X@XOX0XkXkXjXjXjXjXdXkXgX7X+XuXkXgXgXjXjXjXkXgXkX7XOX#XOX=XK.5.t.t.y.t.9.n.lXlXlXlXlXlXlXlX",
"lXlXlXlXlXlXlXlXG.8.e.e.t.9.g.#X+X#X#X&X#X%XpXkXkXjXgXkXkXkX8XoXOX;XgXkXgXjXgXgXkXkXsX%X@X#X+X&X.Xi.e.e.t.y.0.d.fXlXlXlXlXlXlXlX",
"lXlXlXlXlXlXlXlXG.7.e.y.0.y.}.=X+X#X#X#X@X+X%XpXkXkXkXkXpX7XOX#X@XoX;XhXkXkXkXkXkXkX7XOX+X@X&X#X=XF.5.e.e.e.0.a.9XlXlXlXlXlXlXlX",
"lXlXlXlXlXlXlXlXG.5.t.0.0.`.2X@X@X@X&X#X#X#XOX@X7X8X8X7X%XOX@X#X#X+X+X*XqXfXgXfXuX*XOX@X&X#X&X&X=X|.i.0.e.e.0.e.5XlXlXlXlXlXlXlX",
"lXlXlXlXlXlXlXlX`.5.7.7.(.lXqXOX@X@X@X#X#X#X@XOX+X+XOX@X@X%X@X@X#XOX@X+X#X*X*X*X#XOX@X@X@X#X+X#X+X2X~.7.e.y.0.0.5XlXlXlXlXlXlXlX",
"lXlXlXlXlXlXlXlXkXH.n. XlXlXjX*X@X@X@X#X&X%X@X@X@X@X@X@X%X&X&X#X@X#X#X#X#X#X+X#X#X&X@X@X@X@X#X&XOXuXfXv.7.t.0.&.5XlXlXlXlXlXlXlX",
"lXlXlXlXlXlXlXlXlXlXlXlXlXlXlXqX+X@X@X;X%X%X@X@X@X@X%X%X#X&X+X#X@X+X#X#X#X#X#X#X@X%X&X%X%X%X%X+X2XkXlX5Xa.7.8.a.iXlXlXlXlXlXlXlX",
"lXlXlXlXlXlXlXlXlXlXlXlXlXlXlXkX*X@X@X@X@X%X&X@X#X%X&X#X&X#X+X+X#X@X@X#X#X&X&X@X%X%X@X%X&X&X@X%XhXlXlXlX5Xb.1.(.lXlXlXlXlXlXlXlX",
"lXlXlXlXlXlXlXlXlXlXlXlXlXlXlXlXfX$X@X@X@X%X%X@X@X&X%X@X#X&X#X+X#X&X;X#X#X#X@X%X%X#X#X&X@X@XOXqXlXlXlXlXlXgX6XlXlXlXlXlXlXlXlXlX",
"lXlXlXlXlXlXlXlXlXlXlXlXlXlXlXlXlXtX%X#X@X%X@X@X@X#X@X%X&XE.E..X.X.XR..X&X#X#X@X#X#X#X&X#XOX8XlXlXlXlXlXlXlXlXlXlXlXlXlXlXlXlXlX",
"lXlXlXlXlXlXlXlXlXlXlXlXlXlXlXlXlXlX>XXX;XXX#X#X+X#X@X%X&X{.R.R.R.R.U.XX#X@X#X#X#X#X#X+X&X8XkXlXlXlXlXlXlXlXlXlXlXlXlXlXlXlXlXlX",
"lXlXlXlXlXlXlXlXlXlXlXlXlXlXlXlXlXkXD.V.}.;X#X+X@X+X#X@X@X&X=X#X=X=X*X#X#X#XOX@X#X#X=X;XJ._.lXlXlXlXlXlXlXlXlXlXlXlXlXlXlXlXlXlX",
"lXlXlXlXlXlXlXlXlXlXlXlXlXlXlXlXlXW.J J V.^.;X=X&X@X&X+X#X&X+X+X&X+X#X#X#X&X@X@X#X;XXXz.^ k tXkXlXlXlXlXlXlXlXlXlXlXlXlXlXlXlXlX",
"lXlXlXlXlXlXlXlXlXlXlXlXlXlXlXlXaXW G R F g k.[.=X=X&X#X@X+X#X#X#X+X#X&X+X&X=X=XOXA.o.^ I G D.kXlXlXlXlXlXlXlXlXlXlXlXlXlXlXlXlX",
"lXlXlXlXlXlXlXlXlXlXlXlXlXlXlXkXT.F K J R K P <.z./.XX=X=X=X*X=X&X&X&X=X*X%X{.Z.h.[ * J K H J 1XlXkXlXlXlXlXlXlXlXlXlXlXlXlXlXlX",
"lXlXlXlXlXlXlXlXlXlXlXlXlXlXlXrXQ H K E K K K K h * 2.z.H./.}.}.}.}.[.^.c.j.o. .* I H K R R G ~ kXkXhXlXlXlXlXlXlXlXlXlXlXlXlXlX",
"lXlXlXlXlXlXlXlXlXlXlXlXlXlXlXT.G K R R E R R R H H P * ^ O.+.+.+.+... . .^ g I J R R R T R T F $XlXkXlXlXlXlXlXlXlXlXlXlXlXlXlX",
"lXlXlXlXlXlXlXlXlXlXlXlXlXlXaXQ H R K K R R K R T H R R E I h h t g g h Y R R R E R R R R R R G ~ kXlXlXlXlXlXlXlXlXlXlXlXlXlXlX",
"lXlXlXlXlXlXlXlXlXlXlXlXlXlXW.F T K R R R E K K E D D D J E E T p Z K K Z m z m N L T R R R R H L rXlXlXlXlXlXlXlXlXlXlXlXlXlXlX",
"lXlXlXlXlXlXlXlXlXlXlXlXlXkXS.H R R R J T T R c $ y u u $ N R R i B R Z # f x v $ a E S C R R R G Q.lXlXlXlXlXlXlXlXlXlXlXlXlXlX",
"lXlXlXlXlXlXlXlXlXlXlXlXlXsXQ H K R D b R R R n y B E A y B R R i B R v a s E b s f E D b R K K G S.kXlXlXlXlXlXlXlXlXlXlXlXlXlX",
"lXlXlXlXlXlXlXlXlXlXlXlXlX1XF H E K Z n R R R l B b s d A v R R i B T x M A r M A f R R b K K K G ! jXlXlXlXlXlXlXlXlXlXlXlXlXlX",
"lXlXlXlXlXlXlXlXlXlXlXlXlXQ.S M.B.N.s m R R R l N T d D F B R R i V T c d E v R v s R R d h M.B.N.Q tXlXlXlXlXlXlXlXlXlXlXlXlXlX",
"lXlXlXlXlXlXlXlXlXlXlXlXlXR.,.6.r.:.*.g K R R l N R R T F m R R i V T c M R T E S s K L %.*.6.6.6.m.1XlXlXlXlXlXlXlXlXlXlXlXlXlX",
"lXlXlXlXlXlXlXlXlXlXlXlXjXn.8.r.:.*.p.=.J K R l b J D L z N R R i V T v a z z z p a K P r.y.*.e.r.&.(.lXlXlXlXlXlXlXlXlXlXlXlXlX",
"lXlXlXlXlXlXlXlXlXlXlXlXdXa.0.y.e.;.] m.K K R A u p p p u x R R i V T K N N N n N A R D =.] :.y.y.9.G.kXlXlXlXlXlXlXlXlXlXlXlXlX",
"lXlXlXlXlXlXlXlXlXlXlXlXhXn.5.y.e.0.0.U K K K K K R K R R K K R i V R R R R R R T R K H M.6.0.e.e.( `.lXlXlXlXlXlXlXlXlXlXlXlXlX",
"lXlXlXlXlXlXlXlXlXlXlXlXlX6Xv.5.7.e.m.F K K K K K R K R K K K R i B R R R R R K K K K H S ,.9.7.&.H.jXlXlXlXlXlXlXlXlXlXlXlXlXlX",
"lXlXlXlXlXlXlXlXlXlXlXlXlXlXkX'.].4XQ.W B J R J K H H H H K K H p C R H H T H H R K D M ~ $X4X].4XlXlXlXlXlXlXlXlXlXlXlXlXlXlXlX",
"lXlXlXlXlXlXlXlXlXlXlXlXlXlXlXlXlXlXlXw 2 0 - j j f V B L S J R u N D L C V M k j - 5 % Y.lXlXlXlXlXlXlXlXlXlXlXlXlXlXlXlXlXlXlX",
"lXlXlXlXlXlXlXlXlXlXlXlXlXlXlXlXlXlXkXw 7 8 7 7 6 6 6 5 0 0 0 0 = = = 0 5 5 6 7 7 7 8 4 I.kXkXlXlXlXlXlXlXlXlXlXlXlXlXlXlXlXlXlX",
"lXlXlXlXlXlXlXlXlXlXlXlXlXlXlXlXlXlX<X3 2 3 > > > > 3 : 1 < < < < 1 : > > > > > 3 3 , % P.lXlXlXlXlXlXlXlXlXlXlXlXlXlXlXlXlXlXlX",
"lXlXlXlXlXlXlXlXlXlXlXlXlXlXlXlXlXkX<X3 2 3 3 3 3 3 3 4 4 4 4 4 4 4 4 4 , 3 4 4 3 3 : % I.kXlXlXlXlXlXlXlXlXlXlXlXlXlXlXlXlXlXlX",
"lXlXlXlXlXlXlXlXlXlXlXlXlXlXlXlXlXlXeX1 1 1 & & & . & . .           . . . % & & & & < . P.lXlXlXlXlXlXlXlXlXlXlXlXlXlXlXlXlXlXlX",
"lXlXlXlXlXlXlXlXlXlXlXlXlXlXlXlXhXI.q O X o O o o o o o + ; @ @ ; ; ; @ @ + o X X X X X ; q >XlXlXlXlXlXlXlXlXlXlXlXlXlXlXlXlXlX",
"lXlXlXlXlXlXlXlXlXlXlXlXlXlXlXlXlXtX3XrX<X<X,X<X<X<XrXtXyXsXfXsXfXfXfXsXyXtXrX3XwX<X<XrXrXrXfXlXlXlXlXlXlXlXlXlXlXlXlXlXlXlXlXlX",
"lXlXlXlXlXlXlXlXlXlXlXlXlXlXlXlXlXlXlXlXlXlXlXlXlXlXlXlXlXlXlXlXlXlXlXlXlXlXlXlXlXlXlXlXlXlXlXlXlXlXlXlXlXlXlXlXlXlXlXlXlXlXlXlX"
};
