/* XPM */
static char *result[] = {
/* columns rows colors chars-per-pixel */
"64 64 209 2 ",
"   c #000005",
".  c #020409",
"X  c #0B0A0E",
"o  c #0D0D11",
"O  c #0C1415",
"+  c #151318",
"@  c #17390C",
"#  c #2A3232",
"$  c #2D6E12",
"%  c #327A1F",
"&  c #2C493B",
"*  c #3D7E20",
"=  c #514D3A",
"-  c #705A36",
";  c #145449",
":  c #195C56",
">  c #254B46",
",  c #335750",
"<  c #26635C",
"1  c #236561",
"2  c #415F4A",
"3  c #5B5A5A",
"4  c #69594E",
"5  c #7A7B7B",
"6  c #942E00",
"7  c #B43F0B",
"8  c #DF3D00",
"9  c #B04D15",
"0  c #967214",
"q  c #935D2C",
"w  c #AE5D22",
"e  c #AC6637",
"r  c #C3460A",
"t  c #D44807",
"y  c #CB5511",
"u  c #FD4E00",
"i  c #E75708",
"p  c #EA5A0B",
"a  c #F55604",
"s  c #FD5500",
"d  c #F35B05",
"f  c #FE5C05",
"g  c #F65C09",
"h  c #FD5E09",
"j  c #E95A10",
"k  c #DE660B",
"l  c #FE6207",
"z  c #FE610A",
"x  c #F56511",
"c  c #F36A14",
"v  c #F46C1F",
"b  c #CD5C21",
"n  c #CA792F",
"m  c #EB722B",
"M  c #EC7D45",
"N  c #02941B",
"B  c #2D8A0C",
"V  c #32930A",
"C  c #379A0C",
"Z  c #338714",
"A  c #338B14",
"S  c #399614",
"D  c #1BA11F",
"F  c #35B10D",
"G  c #29A91C",
"H  c #059621",
"J  c #089828",
"K  c #179525",
"L  c #139B2E",
"P  c #0C9D30",
"I  c #139C30",
"U  c #2C972E",
"Y  c #1FA22B",
"T  c #20A424",
"R  c #449C1B",
"E  c #41BF0B",
"W  c #43A919",
"Q  c #48B717",
"!  c #4DBD15",
"~  c #53BF1D",
"^  c #459726",
"/  c #5A8F30",
"(  c #4EBB24",
")  c #55BA27",
"_  c #54B430",
"`  c #6CBC34",
"'  c #75B93C",
"]  c #3EC202",
"[  c #42C204",
"{  c #44C50A",
"}  c #4BC60E",
"|  c #44C90B",
" . c #4DCA0F",
".. c #50C50E",
"X. c #47C015",
"o. c #4DC613",
"O. c #4EC913",
"+. c #50C614",
"@. c #51CA14",
"#. c #53C41A",
"$. c #55CC1A",
"%. c #5DC81F",
"&. c #53D114",
"*. c #4FC020",
"=. c #53C227",
"-. c #5BC321",
";. c #5BC336",
":. c #6CCB32",
">. c #2BA446",
",. c #52AD52",
"<. c #6BB14E",
"1. c #69B66B",
"2. c #65C347",
"3. c #74CA57",
"4. c #F18037",
"5. c #86944F",
"6. c #9C856C",
"7. c #A4907B",
"8. c #87B96D",
"9. c #CA8E45",
"0. c #E88957",
"q. c #F29050",
"w. c #EC9568",
"e. c #F89767",
"r. c #F6AB78",
"t. c #96CA55",
"y. c #9CD756",
"u. c #88D566",
"i. c #89C977",
"p. c #BAC56F",
"a. c #B4C276",
"s. c #B6D874",
"d. c #C4D67E",
"f. c #5A8F8A",
"g. c #7CB287",
"h. c #7DC78C",
"j. c #9D9A90",
"k. c #B49E82",
"l. c #CEB38D",
"z. c #FBB693",
"x. c #EABDA7",
"c. c #95D587",
"v. c #87C893",
"b. c #AAD393",
"n. c #9DD3AA",
"m. c #A7D8A4",
"M. c #B4DCA7",
"N. c #AFDABA",
"B. c #B7E0AF",
"V. c #BDE1B8",
"C. c #C7D185",
"Z. c #D4DA8D",
"A. c #D6C396",
"S. c #DAD694",
"D. c #EEC595",
"F. c #D9C8A5",
"G. c #ECCAAD",
"H. c #F2CDA6",
"J. c #E9D8A5",
"K. c #F6D5A4",
"L. c #FBD4A5",
"P. c #F6D6AD",
"I. c #F9D7AD",
"U. c #F6D9AE",
"Y. c #F9D9AE",
"T. c #F4D6B1",
"R. c #FCD6B3",
"E. c #F6D9B1",
"W. c #FBDAB2",
"Q. c #F4DCBC",
"!. c #FDDCBA",
"~. c #C2E3BF",
"^. c #FDE1B5",
"/. c #F7E1B9",
"(. c #FCE3BA",
"). c #BAD4C2",
"_. c #C8C6C8",
"`. c #CDCDCD",
"'. c #CCDADE",
"]. c #D6D6D7",
"[. c #EED7CC",
"{. c #F2DEC3",
"}. c #FFDEC6",
"|. c #C7E3C7",
" X c #CDE4D1",
".X c #D6EADA",
"XX c #FBE3C5",
"oX c #F4E2CB",
"OX c #EFE3D0",
"+X c #F9E7D5",
"@X c #F6ECDB",
"#X c #DCE5E2",
"$X c #DFEAE7",
"%X c #E4E3E4",
"&X c #E1EAE6",
"*X c #E4ECE9",
"=X c #FDECE3",
"-X c #F9EBE9",
";X c #EEF1EB",
":X c #F7F3EB",
">X c #F4F2EC",
",X c #ECF1F1",
"<X c #F4F6F6",
"1X c #FAF6F6",
"2X c #F3F8F6",
"3X c #FAF9F5",
"4X c #F4F6F9",
"5X c #F4FAFB",
"6X c #FFFFFF",
/* pixels */
"6X6X6X6X6X6X6X6X6X6X6X6X6X6X6X6X6X6X6X6X6X6X6X6X6X6X6X6X6X6X6X6X6X6X6X6X6X6X6X6X6X6X6X6X6X6X6X6X6X6X6X6X6X6X6X6X6X6X6X6X6X6X6X6X",
"6X6X6X6X6X6X6X6X6X6X6X6X6X6X6X6X6X6X6X6X6X6X6X6X6X6X6X6X6X6X6X6X6X6X6X6X6X6X6X6X6X6X6X6X6X6X6X6X6X6X6X6X6X6X6X6X6X6X6X6X6X6X6X6X",
"6X6X6X6X6X6X6X6X6X6X6X6X6X6X6X6X;X;X4X6X6X6X6X6X6X6X6X6X3X6X6X6X6X6X6X6X6X6X6X6X6X6X6X6X6X6X6X6X6X6X6X6X6X6X6X6X6X6X6X6X6X6X6X6X",
"6X6X6X6X6X6X6X6X6X6X6X6X6X6X.XX.F ] Q Q ~ *.;.;.;.2.3.3.i.c.c.b.m.M.B.B.V.~.|.|. X.X*X4X5X6X6X6X6X6X6X6X6X6X6X6X6X6X6X6X6X6X6X6X",
"6X6X6X6X6X6X6X6X6X6X6X6X6X3X{ } o.} } } } o.} } X.} } [ [ { [ [ [ [ [ E ] ] ] ] F [ { E X.( ) ) <.m.6X6X6X6X6X6X6X6X6X6X6X6X6X6X",
"6X6X6X6X6X6X6X6X6X6X6X6X6Xc.[ O.+.o.o.o.O.o.o.o.O.O.o.o.+.+.o.o.@.o...+.O.O.o.o.o...O.+.O.o.O. .| ] _ 6X6X6X6X6X6X6X6X6X6X6X6X6X",
"6X6X6X6X6X6X6X6X6X6X6X6X6Xu.{ o.o.+.+.+.o.! o.+.o.o.+.+.+.+.o.o. .o.o.o.X.o.o.o.o.+.o.o.O.O.o.o.@.o.[ i.6X6X6X6X6X6X6X6X6X6X6X6X",
"6X6X6X6X6X6X6X6X6X6X6X6X6X3.{ o.O.o.o.o.+.o.o.o.o.o.o.o. .+.+.o. .+.+.o.o.o.o.o.+.+.o.o.X.o.o.!  .o.} ( 6X6X6X6X6X6X6X6X6X6X6X6X",
"6X6X6X6X6X6X6X6X6X6X6X6X$XG O.O.o.! } o.+.+.o.O.o.o.#.O.+.o...+.o.} o.o.} ! O.+.o.} o.+.o.o.o.o.o.O.@.[ ,X6X6X6X6X6X6X6X6X6X6X6X",
"6X6X6X6X6X6X6X6X6X6X6X6XU J F O.o.o.o.o.+.o.+.+.o.o.o.O.o. .+.@.o. . .o...+.+.o.! +.+.o.o.+.+.#.+.@. .[ *X6X6X6X6X6X6X6X6X6X6X6X",
"6X6X6X6X6X6X6X6X6X6X6X.XN I G @.+.o.+.o.o.+.+.+.o.+.O.o. .+.+.+.+.+. .} } } o.o.o.+.+.o.O.+.+.+.+.O.o.F *X6X6X6X6X6X6X6X6X6X6X6X",
"6X6X6X6X6X6X6X6X6X6X6Xn.N I G @.o.o.+.o.+.! o.O.o. .o.+.o.+.+.+.+.@.+...! +.o.+.! +.o.+.+.+.+.o.o.o.} { *X6X6X6X6X6X6X6X6X6X6X6X",
"6X6X6X6X6X6X6X6X6X6X6Xh.H L T @.+.O.+.O.o.o.+.o.o.o.+.o.o.o.o.o.o.+.O.o. .o.o.o.+.+.o.+.+.} o.o.O. .o.E *X6X6X6X6X6X6X6X6X6X6X6X",
"6X6X6X6X6X6X6X6X6X6X6Xh.J I Y @.o.+.+.@.o.o.+. .o.o.o.o.o.o. . . .O.O.o.} o.O.+.+.o.o.o.+.o.o.o.o.#.} [ &X6X6X6X6X6X6X6X6X6X6X6X",
"6X6X6X6X6X6X6X6X6X6X6Xv.H I L { o.+.o.O.o.+.o.o.O.o.o.o.@.$.#.~ ! ! #.#.O.o.O.@.o.+.+.o.O.o.o.+.+.o.+.E &X6X6X6X6X6X6X6X6X6X6X6X",
"6X6X6X6X6X6X6X6X6X6X6Xm.N L L D @.O.O.O.@.O.+.X.o.O.@.Q B B V V V V V V A V C Q +.@. .o.o.O.+.o.+. .} E &X6X6X6X6X6X6X6X6X6X6X6X",
"6X6X6X6X6X6X6X6X6X6X6XN.N L L I G @.O.^ $ &.O.o.O. .( Z +.+.@.O.O.@.@. .$.#.! S Z Q O.} o.o.o.O.! o.o.E #X6X6X6X6X6X6X6X6X6X6X6X",
"6X6X6X6X6X6X6X6X6X6X6X.XN H J J H G O.O.* @ V &. .@.% @.o. .} o. .} O.O.o.@.@.O.$.R V &.X.o.O.X.o. . .F #X6X6X6X6X6X6X6X6X6X6X6X",
"6X6X6X6X6X6X6X6X6X6X6X6X2Xv.,.,.1.b.F.l.p.a.4 @ W ;.B &.o.o.O.o. . .o.o.o.O.o.O.o.O.( Z &.O.o.o.o. ...[ #X6X6X6X6X6X6X6X6X6X6X6X",
"6X6X6X6X6X6X6X6X6X6X6X6X6X+XXX3X6X6X6X1X=XXX(.G.= 5. .O.o.o.o.o.} o.o.O.O.o.o.o.O.O.O.( S O.@.@.o. .@.[ #X6X6X6X6X6X6X6X6X6X6X6X",
"6X6X6X6X6X6X6X6X6X6X6X6X6XOX5X2X<X4X2X4X5X3X/.W.XXJ.] } O.o.@.o.o.o.o.o.o.o.o. .o.o.o.O.^ E @.@. .o. .[ #X6X6X6X6X6X6X6X6X6X6X6X",
"6X6X6X6X6X6X6X6X6X6X6X6X6X>X5X2X4X4X2X2X2X2X3XQ.R.Z.] } o.O.o.o.+.o.o.o.O.O.o.o.O.O.O.O.=.Z O.O.O.@.&.F &X6X6X6X6X6X6X6X6X6X6X6X",
"6X6X6X6X6X6X6X6X6X6X6X6X6X,X<X<X4X4X4X4X2X2X5X3X!.s.{ O.o.o. .+.o.@.o.O.+.O.o.o.+.+.O.O.&.S $.O.o.o.O.] &X6X6X6X6X6X6X6X6X6X6X6X",
"6X6X6X6X6X6X6X6X6X6X6X6X6X6X3 5 6X4X4X4X4X2X2X5X}.y.{ O.O.O.o.o. .o.o.+.+.+.+.+.+.+.o. .$.A O.o.o.o.O.] &X6X6X6X6X6X6X6X6X6X6X6X",
"6X6X6X6X6X6X6X6X6X6X6X6X6X;X5X5X4X4X4X4X4X<X<X5X=Xy.{ o.o.o.@.o.+.o.O.+.+.+.+.O.o.+.O.o._ C O.O.O.O.O.[ &X6X6X6X6X6X6X6X6X6X6X6X",
"6X6X6X6X6X6X6X6X6X6X6X6X6XoX6X<X4X4X4X4X4X5X5X5X=Xy.{ +.O.@.o.o.o.+.O.O.O.O.O.o.o.o.O.$.Z &.o.o.O.O.} [ &X6X6X6X6X6X6X6X6X6X6X6X",
"6X6X6X6X6X6X6X6X6X6X6X6X6XQ.@X5X2X2X<X2X<X,X5X5X+Xd.{ O.O.O.o.o.o.@.O.o.o.o.#.o.+.o.+.W W @.O.o.} O.} ] $X6X6X6X6X6X6X6X6X6X6X6X",
"6X6X6X6X6X6X6X6X6X6X6X6X6XoXP.>X5X5X2X<X<X5X5X2XW.E.O.O.o.o.o.O.O.o.O.+.O.@.o.o.} +.} <.| O.O.O.O.} o.E &X6X6X6X6X6X6X6X6X6X6X6X",
"6X6X6X6X6X6X6X6X6X6X6X6X6X>XK.L.@X2X2X5X5X5X3XXXI.!.:.} O.O.o.o.o.O.@.+.#.o.o.X.o.{ ~ !.a.} O.O.o.O.X.] *X6X6X6X6X6X6X6X6X6X6X6X",
"6X6X6X6X6X6X6X6X6X6X6X6X6X6XP.Y.P.T.oX+X@XoXP.U.R.R.s.[ o.O.o.O.o.o.o.o.O.o.O.O.} ! S.!.!.A.) X.O.o.o.] ,X6X6X6X6X6X6X6X6X6X6X6X",
"6X6X6X6X6X6X6X6X6X6X6X6X6X6X{.P.T.I.I.I.L.L.U.Y.R.Y.^.%.{ O.O.o.O.O.o.+.o.O.o.X.o.S.W.I.Y.!.D.` |  .} { 6X6X6X6X6X6X6X6X6X6X6X6X",
"6X6X6X6X6X6X6X6X6X6X6X6X6X6X>XK.U.Y.I.U.Y.Y.U.U.Y.P.!.Z.[ } O.O.o.! o.o.X.o.| -.C.!.Y.I.I.I.W.H.:.| F M.6X6X6X6X6X6X6X6X6X6X6X6X",
"6X6X6X6X6X6X6X6X6X6X6X6X6X6X6XQ.Y.E.E.U.U.W.Y.E.R.T.R.W.Z.%.X.O.o.o.o.{ { o.t.!.!.P.I.Y.U.Y.U.W.H.' M.6X6X6X6X6X6X6X6X6X6X6X6X6X",
"6X6X6X6X6X6X6X6X6X6X6X6X6X6X6X:XP.E.U.U.U.E.Y.E.U.U.Y.U.!./.:.o.{ { { -.t.S.!.R.U.U.Y.U.Y.U.U.U.I.:X6X6X6X6X6X6X6X6X6X6X6X6X6X6X",
"6X6X6X6X6X6X6X6X6X6X6X6X6X6X6X6XXXP.U.U.E.^.W.W.E.R.R.U.I.R.W.J.Z.C.S.R.!.!.P.Y.U.E.U.T.U.E.E.P.{.6X6X6X6X6X6X6X6X6X6X6X6X6X6X6X",
"6X6X6X6X6X6X6X6X6X6X6X6X6X6X6X6X5XP.P.^.T.l.l.A.Y.U.P.E.U.U.E.R.R.R.R.R.P.U.U.R.W.U.E.E.U.Y.Y.U.3X6X6X6X6X6X6X6X6X6X6X6X6X6X6X6X",
"6X6X6X6X6X6X6X6X6X6X6X6X6X6X6X6X6X3XI.6.4 7.7.6.P.Y.U.U.U.U.U.U.U.R.Y.U.U.U.E.U.Y.U.E.U.P.R.K.<X6X6X6X6X6X6X6X6X6X6X6X6X6X6X6X6X",
"6X6X6X6X6X6X6X6X6X6X6X6X6X6X6X6X6X6X3Xl.^.W.^.^.Y.U.P.I.I.U.Y.Y.Y.Y.U.U.Y.Y.P.U.P.U.U.U.U.K.>X6X6X6X6X6X6X6X6X6X6X6X6X6X6X6X6X6X",
"6X6X6X6X6X6X6X6X6X6X6X6X6X6X6X6X6X6X6X3XP.K.U.Y.I.Y.P.Y.Y.Y.W.U.Y.I.P.U.R.P.P.R.R.I.I.I.P.>X6X6X6X6X6X6X6X6X6X6X6X6X6X6X6X6X6X6X",
"6X6X6X6X6X6X6X6X6X6X6X6X6X6X6X6X6X6X6X6X6XQ.K.U.R.E.E.I.U.U.E.Y.I.Y.P.R.U.E.U.R.R.I.I.{.5X6X6X6X6X6X6X6X6X6X6X6X6X6X6X6X6X6X6X6X",
"6X6X6X6X6X6X6X6X6X6X6X6X6X6X6X6X6X6X6X6X6X6X@XP.P.I.I.Y.I.I.Y.P.P.Y.U.U.Y.Y.Y.R.!./.8.,X6X6X6X6X6X6X6X6X6X6X6X6X6X6X6X6X6X6X6X6X",
"6X6X6X6X6X6X6X6X6X6X6X6X6X6X6X6X6X6X6X6X6X6X6X3XOXR.!.W.W.I.Y.^.U.Y.U.U.Y.Y.^.^.i.U N g.6X6X6X6X6X6X6X6X6X6X6X6X6X6X6X6X6X6X6X6X",
"6X6X6X6X6X6X6X6X6X6X6X6X6X6X6X6X6X6X6X6X6X6X6X6X6X>.<.b.P.!.^.(.(.(././.L.l.,.P H J I J 4X6X6X6X6X6X6X6X6X6X6X6X6X6X6X6X6X6X6X6X",
"6X6X6X6X6X6X6X6X6X6X6X6X6X6X6X6X6X6X6X6X6X6X6X6X,X% K J K U / 5.9.4.m z f s k 0 / U U N ).6X6X6X6X6X6X6X6X6X6X6X6X6X6X6X6X6X6X6X",
"6X6X6X6X6X6X6X6X6X6X6X6X6X6X6X6X6X6X6X6X6X6X6X6X}.u k k k k d f f s a a a h h h f f i n 6X6X6X6X6X6X6X6X6X6X6X6X6X6X6X6X6X6X6X6X",
"6X6X6X6X6X6X6X6X6X6X6X6X6X6X6X6X6X6X6X6X6X6X6X6Xe.6 t 7 i l l z g f h h h a h z l h h j 5X6X6X6X6X6X6X6X6X6X6X6X6X6X6X6X6X6X6X6X",
"6X6X6X6X6X6X6X6X6X6X6X6X6X6X6X6X6X6X6X6X6X6X6X6Xb t y 7 i f z z g h h h h h g z h h z u -X6X6X6X6X6X6X6X6X6X6X6X6X6X6X6X6X6X6X6X",
"6X6X6X6X6X6X6X6X6X6X6X6X6X6X6X6X6X6X6X6X6X6X6X=Xt j y j p h g z f z h h h h a z z h h s [.3X6X6X6X6X6X6X6X6X6X6X6X6X6X6X6X6X6X6X",
"6X6X6X6X6X6X6X6X6X6X6X6X6X6X6X6X6X6X6X6X6X6X6Xz.8 h l r z z z z f z z z z z d z z h h s x.6X6X6X6X6X6X6X6X6X6X6X6X6X6X6X6X6X6X6X",
"6X6X6X6X6X6X6X6X6X6X6X6X6X6X6X6X6X6X6X6X6X6X6XM t l z r z l l z z z z z z z d z h z h s w.6X6X6X6X6X6X6X6X6X6X6X6X6X6X6X6X6X6X6X",
"6X6X6X6X6X6X6X6X6X6X6X6X6X6X6X6X6X6X6X6X6X6X6Xh r 7 9 a z l z g z z l z z z f z z h h s w.6X6X6X6X6X6X6X6X6X6X6X6X6X6X6X6X6X6X6X",
"6X6X6X6X6X6X6X6X6X6X6X6X6X6X6X6X6X6X6X6X6X6X+Xu h z j h z z z h h z z z z z f h z h h f 0.6X6X6X6X6X6X6X6X6X6X6X6X6X6X6X6X6X6X6X",
"6X6X6X6X6X6X6X6X6X6X6X6X6X6X6X6X6X6X6X6X6X6Xx.u h h h z h z z d f s f f l l f h h h h s 0.5X6X6X6X6X6X6X6X6X6X6X6X6X6X6X6X6X6X6X",
"6X6X6X6X6X6X6X6X6X6X6X6X6X6X6X6X6X6X6X6X6X6Xe.s h h h z z z l a x q.q.q.v a h l z h h f M 6X6X6X6X6X6X6X6X6X6X6X6X6X6X6X6X6X6X6X",
"6X6X6X6X6X6X6X6X6X6X6X6X6X6X6X6X6X6X6X6X6X6XM s h h h h z z f m /.(.(.(.(.D.s h z h f f m 4X6X6X6X6X6X6X6X6X6X6X6X6X6X6X6X6X6X6X",
"6X6X6X6X6X6X6X6X6X6X6X6X6X6X6X6X6X6X6X6X6X6Xx s s h h h z l s H./.Y.Y.U.R./.z h z h h s v 6X6X6X6X6X6X6X6X6X6X6X6X6X6X6X6X6X6X6X",
"6X6X6X6X6X6X6X6X6X6X6X6X6X6X6X6X6X6X6X6X6X6XG.M g s l l z z x (.P.I.U.U.U.^.l h h l h s a 6X6X6X6X6X6X6X6X6X6X6X6X6X6X6X6X6X6X6X",
"6X6X6X6X6X6X6X6X6X6X6X6X6X6X6X6X6X6X6X6X6X6X6X6X6X=Xe y p z c (.Y.Y.U.P.^.r.s l z z i w.OX6X6X6X6X6X6X6X6X6X6X6X6X6X6X6X6X6X6X6X",
"6X6X6X6X6X6X6X6X6X6X6X6X6X6X6X6X6X6X6X6X6X6X6X6X6X6Xf.: < 2 = F.(././.^.A.w w q - & '.6X6X6X6X6X6X6X6X6X6X6X6X6X6X6X6X6X6X6X6X6X",
"6X6X6X6X6X6X6X6X6X6X6X6X6X6X6X6X6X6X6X6X6X6X6X6X6X<X, > > > ; # 6.k.l.j., : < 1 < ; #X6X6X6X6X6X6X6X6X6X6X6X6X6X6X6X6X6X6X6X6X6X",
"6X6X6X6X6X6X6X6X6X6X6X6X6X6X6X6X6X6X6X6X6X6X6X6Xj.3 # + + o o X .       X X X X O # `.6X6X6X6X6X6X6X6X6X6X6X6X6X6X6X6X6X6X6X6X6X",
"6X6X6X6X6X6X6X6X6X6X6X6X6X6X6X6X6X6X6X6X6X6X6X6X6X6X6X4X%X].].].`.`.`.`.`.`.`._.<X6X6X6X6X6X6X6X6X6X6X6X6X6X6X6X6X6X6X6X6X6X6X6X",
"6X6X6X6X6X6X6X6X6X6X6X6X6X6X6X6X6X6X6X6X6X6X6X6X6X6X6X6X6X6X6X6X6X6X6X6X6X6X6X6X6X6X6X6X6X6X6X6X6X6X6X6X6X6X6X6X6X6X6X6X6X6X6X6X",
"6X6X6X6X6X6X6X6X6X6X6X6X6X6X6X6X6X6X6X6X6X6X6X6X6X6X6X6X6X6X6X6X6X6X6X6X6X6X6X6X6X6X6X6X6X6X6X6X6X6X6X6X6X6X6X6X6X6X6X6X6X6X6X6X"
};
