/* XPM */
static char *result[] = {
/* columns rows colors chars-per-pixel */
"64 64 210 2 ",
"   c #1A312F",
".  c #1A3431",
"X  c #1D3A36",
"o  c #27262D",
"O  c #2A242D",
"+  c #2C2831",
"@  c #2E2F35",
"#  c #363139",
"$  c #3C343E",
"%  c #6B381E",
"&  c #773F25",
"*  c #3B7B1D",
"=  c #1D433C",
"-  c #1B473E",
";  c #20433E",
":  c #364C3F",
">  c #3B7B20",
",  c #765C16",
"<  c #536D1A",
"1  c #6A6318",
"2  c #544633",
"3  c #69422B",
"4  c #766922",
"5  c #3D3941",
"6  c #094741",
"7  c #1D4F48",
"8  c #17524C",
"9  c #1A524C",
"0  c #264A42",
"q  c #244C43",
"w  c #384940",
"e  c #245147",
"r  c #25554B",
"t  c #25584D",
"y  c #5D5C60",
"u  c #666368",
"i  c #8B3D1F",
"p  c #993C1A",
"a  c #BA3E0A",
"s  c #A83B15",
"d  c #B43A12",
"f  c #BA3B11",
"g  c #CF2700",
"h  c #CE2B00",
"j  c #D12E00",
"k  c #D82C00",
"l  c #CE3506",
"z  c #CE3609",
"x  c #C53B0C",
"c  c #CB3A0D",
"v  c #D13606",
"b  c #DC3505",
"n  c #D13807",
"m  c #DD3806",
"M  c #D23609",
"N  c #DD350A",
"B  c #D13B0B",
"V  c #DB3A0A",
"C  c #CF3F14",
"Z  c #D03E14",
"A  c #E03508",
"S  c #954F11",
"D  c #B4420E",
"F  c #A54B11",
"G  c #834023",
"H  c #CF461D",
"J  c #D1491E",
"K  c #D0512A",
"L  c #8E7A6A",
"P  c #D56543",
"I  c #D7785C",
"U  c #058D1A",
"Y  c #048D1C",
"T  c #29831F",
"R  c #35B400",
"E  c #3AB506",
"W  c #37BA07",
"Q  c #3AB906",
"!  c #3DB60B",
"~  c #3DBA0B",
"^  c #3FBB10",
"/  c #0E8F22",
"(  c #138E26",
")  c #1D8B23",
"_  c #0D9324",
"`  c #0B9628",
"'  c #089828",
"]  c #139126",
"[  c #159228",
"{  c #1D932C",
"}  c #1A9A34",
"|  c #268522",
" . c #20932E",
".. c #259431",
"X. c #33973A",
"o. c #40B70D",
"O. c #41B90E",
"+. c #45B613",
"@. c #45BA14",
"#. c #48BB16",
"$. c #49B718",
"%. c #49BC19",
"&. c #52B91D",
"*. c #59AE27",
"=. c #4EB627",
"-. c #52BC24",
";. c #55BB2C",
":. c #5DB92B",
">. c #5BBB34",
",. c #68AB37",
"<. c #71AD3C",
"1. c #69B039",
"2. c #54C028",
"3. c #5EC331",
"4. c #62C539",
"5. c #63C73A",
"6. c #469943",
"7. c #5D9F52",
"8. c #58A157",
"9. c #6FB744",
"0. c #75A361",
"q. c #69B877",
"w. c #7EBB70",
"e. c #6BC745",
"r. c #71C54D",
"t. c #79CA58",
"y. c #839E5C",
"u. c #87A756",
"i. c #92A75E",
"p. c #87B453",
"a. c #8AA163",
"s. c #95A367",
"d. c #9AB963",
"f. c #97A775",
"g. c #A3A573",
"h. c #B2A87D",
"j. c #ABB975",
"k. c #DB846A",
"l. c #DC8B72",
"z. c #E0967F",
"x. c #83CA69",
"c. c #8CCD70",
"v. c #94D37A",
"b. c #7C928F",
"n. c #799995",
"m. c #909B9A",
"M. c #B3AA83",
"N. c #B0B28F",
"B. c #D39885",
"V. c #E39E89",
"C. c #C5AB94",
"Z. c #D5AD9C",
"A. c #D8AD9F",
"S. c #CDB499",
"D. c #D4B397",
"F. c #D6B59D",
"G. c #D9B59D",
"H. c #DBAFA2",
"J. c #DCB5A3",
"K. c #DCBAA4",
"L. c #D8BEAB",
"P. c #E0B5A6",
"I. c #E4B9A6",
"U. c #E2B6A8",
"Y. c #E3B7AF",
"T. c #E9B9AB",
"R. c #96CC82",
"E. c #9ED587",
"W. c #A1D394",
"Q. c #A9D799",
"!. c #AAD59E",
"~. c #ACDB9A",
"^. c #ABD4A7",
"/. c #B1D6A4",
"(. c #B1DAA1",
"). c #B5D8A9",
"_. c #BDDAB2",
"`. c #BCE1AC",
"'. c #EAC4B9",
"]. c #C7E6BB",
"[. c #CCCBCD",
"{. c #DCCFC2",
"}. c #D7DFDE",
"|. c #DDDCDE",
" X c #E3C9C0",
".X c #E9D5CC",
"XX c #F0D6CE",
"oX c #E8DAD5",
"OX c #F4D9D5",
"+X c #CDE3C4",
"@X c #CBE8C2",
"#X c #D2E8C9",
"$X c #D5E3D3",
"%X c #D7E9D5",
"&X c #DEF2D6",
"*X c #E7E9DF",
"=X c #E2F1DC",
"-X c #DFDEE0",
";X c #CCE1E2",
":X c #DCE7E2",
">X c #E4E2E4",
",X c #EBEBEB",
"<X c #F4E8E4",
"1X c #F5ECEB",
"2X c #E8F6E3",
"3X c #EAF3E6",
"4X c #EDF2EC",
"5X c #F3F3F3",
"6X c #F7F6F8",
"7X c #FFFFFF",
/* pixels */
"7X7X7X7X7X7X7X7X7X7X7X7X7X7X7X7X7X7X7X7X7X7X7X7X7X7X7X7X7X7X7X7X7X7X7X7X7X7X7X7X7X7X7X7X7X7X7X7X7X7X7X7X7X7X7X7X7X7X7X7X7X7X7X7X",
"7X7X7X7X7X7X7X7X7X7X7X7X7X7X7X7X7X7X7X7X7X7X7X7X7X7X7X7X7X7X7X7X7X7X7X7X7X7X7X7X7X7X7X7X7X7X7X7X7X7X7X7X7X7X7X7X7X7X7X7X7X7X7X7X",
"7X7X7X7X7X7X7X7X7X7X7X7X7X7X7X7X6X5X5X5X4X5X,X4X:X$X$X+X#X+X#X@X+X+X]._.)./././.(.(.~.(.~.E.R.R.Q.%X7X7X7X7X7X7X7X7X7X7X7X7X7X7X",
"7X7X7X7X7X7X7X7X7X7X7X7X7X,XR.9.>.>.;.3.;.;.;.-.=.=.+.^ ^ #.@.O.+.+.+.! ! E E E Q Q ~ ~ ! E E E Q -.].7X7X7X7X7X7X7X7X7X7X7X7X7X",
"7X7X7X7X7X7X7X7X7X7X7X7X6Xw.R Q ~ ~ ~ ~ O.#.O.O.~ @.O.#.^ #.#.#.@.@.@.+.+.@.@.@.@.@.@.#.@.#.#.@.@.W t.6X7X7X7X7X7X7X7X7X7X7X7X7X",
"7X7X7X7X7X7X7X7X7X7X7X7X$X=.~ @.@.@.#.@.@.#.#.#.^ #.%.^ #.^ #.%.$.@.@.@.$.@.^ @.@.@.@.+.@.#.#.@.@.~ 4.3X7X7X7X7X7X7X7X7X7X7X7X7X",
"7X7X7X7X7X7X7X7X7X7X7X7X_.^ @.@.@.@.@.@.O.#.#.#.%.@.@.^ ^ ^ #.@.%.@.@.@.^ @.@.^ O.@.O.#.#.+.+.#.@.O.3.=X7X7X7X7X7X7X7X7X7X7X7X7X",
"7X7X7X7X7X7X7X7X7X7X7X7X).~ ^ @.+.O.@.#.#.#.#.+.@.@.#.%.#.#.@.@.@.@.@.@.$.$.@.+.$.+.@.@.#.#.#.+.@.O.4.2X7X7X7X7X7X7X7X7X7X7X7X7X",
"7X7X7X7X7X7X7X7X7X7X7X7X/.O.+.+.#.+.#.#.+.@.@.#.@.@.@.#.@.@.#.@.#.@.@.+.+.@.+.@.$.#.@.+.+.$.#.$.+.@.e.2X7X7X7X7X7X7X7X7X7X7X7X7X",
"7X7X7X7X7X7X7X7X7X7X7X7X/.~ +.+.+.@.#.@.+.+.+.+.@.+.O.@.#.#.@.@.@.@.@.+.@.+.+.@.+.+.@.@.+.+.+.@.+.O.e.4X7X7X7X7X7X7X7X7X7X7X7X7X",
"7X7X7X7X7X7X7X7X7X7X7X7X/.o.+.#.#.+.+.+.@.$.+.$.@.@.@.#.@.O.@.@.#.#.@.@.+.+.#.+.@.+.+.@.+.@.$.+.@.O.e.2X7X7X7X7X7X7X7X7X7X7X7X7X",
"7X7X7X7X7X7X7X7X7X7X7X7X/.o.O.@.@.O.+.@.@.+.#.@.+.#.@.#.#.@.@.#.O.@.@.@.@.+.+.@.+.+.@.@.@.#.+.+.+.+.5.2X7X7X7X7X7X7X7X7X7X7X7X7X",
"7X7X7X7X7X7X7X7X7X7X7X7XQ.E +.+.+.@.#.@.#.#.#.#.#.@.@.#.+.@.#.#.@.@.@.O.#.@.+.+.+.+.@.@.@.%.#.#.O.O.5.=X7X7X7X7X7X7X7X7X7X7X7X7X",
"7X7X7X7X7X7X7X7X7X7X7X7X!.! +.+.+.+.+.+.#.#.#.#.@.#.+.+.@.#.#.#.#.#.#.#.O.@.@.+.@.@.+.$.@.@.#.#.#.O.5.=X7X7X7X7X7X7X7X7X7X7X7X7X",
"7X7X7X7X7X7X7X7X7X7X7X7X!.! O.+.+.$.@.@.#.#.#.+.@.#.@.@.#.#.@.@.#.#.#.@.+.+.+.@.+.@.#.@.$.$.+.@.#.O.3.@X7X7X7X7X7X7X7X7X7X7X7X7X",
"7X7X7X7X7X7X7X7X7X7X7X7X!.o.o.$.#.#.+.@.@.+.+.+.+.#.#.#.#.+.O.@.@.@.#.#.@.@.@.#.#.@.@.@.+.@.@.@.#.O.-.].7X7X7X7X7X7X7X7X7X7X7X7X",
"7X7X7X7X7X7X7X7X7X7X7X7X^.! +.$.$.@.%.@.@.@.@.@.O.#.#.#.@.O.@.@.+.@.O.#.@.@.@.@.@.@.@.@.^ %.@.@.#.#.O.~.7X7X7X7X7X7X7X7X7X7X7X7X",
"7X7X7X7X7X7X7X7X7X7X7X7XW.! ^ $.@.%.@.@.@.@.%.@.#.#.O.@.#.#.@.@.O.O.O.O.+.+.@.@.@.%.@.@.^ @.@.+.O.O.o.t.6X7X7X7X7X7X7X7X7X7X7X7X",
"7X7X7X7X7X7X7X7X7X7X7X7Xw.! $.^ @.@.%.@.^ %.^ @.#.O.^ O.@.%.@.@.#.#.@.@.@.#.@.@.@.#.%.@.%.@.@.@.@.@.O.@.~.7X7X7X7X7X7X7X7X7X7X7X",
"7X7X7X7X7X7X7X7X7X7X7X$X=.^ $.$.@.@.@.@.^ ^ @.@.%.^ #.#.@.O.@.@.@.+.@.@.@.@.%.%.O.@.^ ^ %.^ @.^ ^ @.+.O.2.@X7X7X7X7X7X7X7X7X7X7X",
"7X7X7X7X7X7X7X7X7X7X6Xx.~ ^ @.@.#.#.^ @.%.^ %.^ #.^ #.#.%.#.^ O.O.@.@.O.%.#.@.%.^ #.@.O.@.@.@.@.@.@.@.@.~ e.4X7X7X7X7X7X7X7X7X7X",
"7X7X7X7X7X7X7X7X7X7X$X@.^ %.^ @.^ @.%.@.^ %.%.%.^ %.#.#.^ %.%.#.@.O.@.#.%.^ ^ ^ %.#.@.#.@.@.@.#.#.@.#.@.#.~ E.7X7X7X7X7X7X7X7X7X",
"7X7X7X7X7X7X7X7X7X7Xv.Q %.%.%.%.#.#.@.@.@.@.%.^ %.%.^ %.#.%.#.^ ^ #.@.O.@.@.#.%.@.#.@.@.%.#.#.@.#.#.@.@.#.^ 2.&X7X7X7X7X7X7X7X7X",
"7X7X7X7X7X7X7X7X7X2X2.^ #.#.%.@.#.#.#.@.@.%.%.%.^ %.%.^ #.^ ^ #.%.#.@.#.@.#.#.%.^ %.@.#.#.#.#.@.#.#.%.@.%.@.W v.7X7X7X7X7X7X7X7X",
"7X7X7X7X7X7X7X7X7XQ.E @.%.@.@.@.#.#.#.#.@.@.%.#.#.#.^ #.#.#.#.#.#.#.#.^ @.#.O.#.@.#.@.@.%.@.%.%.#.#.@.$.@.+.O.;.4X7X7X7X7X7X7X7X",
"7X7X7X7X7X7X7X7X7Xr.Q @.@.@.@.@.^ %.^ #.%.@.@.@.#.#.^ #.#.%.#.^ #.^ #.@.#.@.#.#.@.@.@.@.@.@.@.@.@.#.+.@.@.@.+.^ `.7X7X7X7X7X7X7X",
"7X7X7X7X7X7X7X7X2X%.O.@.@.@.@.%.%.%.#.#.#.#.#.@.#.%.^ #.^ %.%.#.%.#.#.#.#.#.@.@.@.@.@.#.%.@.@.@.^ %.@.%.%.+.@.E x.7X7X7X7X7X7X7X",
"7X7X7X7X7X7X7X7X_.~ #.@.@.@.@.@.^ #.#.^ #.#.#.#.^ ^ #.#.#.^ %.%.#.#.^ #.@.@.+.@.@.@.@.%.%.#.#.@.^ ^ @.@.@.@.@.! 4.4X7X7X7X7X7X7X",
"7X7X7X7X7X7X7X7XE.Q @.#.#.#.@.~ ~ %.#.#.@.#.#.#.%.%.%.#.^ #.^ %.%.#.@.@.#.@.@.^ @.@.@.@.@.@.@.@.^ 9.-.O.@.^ ^ ^ %.#X7X7X7X7X7X7X",
"7X7X7X7X7X7X7X7Xx.Q @.@.^ @.@.p.1.W ^ ^ @.@.@.#.%.^ ^ #.^ #.#.#.@.@.@.@.+.@.@.#.+.+.@.@.@.@.~ +.i.Y.d.Q @.@.@.+.O.`.7X7X7X7X7X7X",
"7X7X7X7X7X7X7X7Xr.o.@.@.@.W :.K.F.u.@.W @.%.@.@.#.#.^ ^ %.^ #.O.@.@.@.#.@.@.@.@.+.@.$.@.+.~ *.h.P.J.G.:.! +.@.+.! ~.7X7X7X7X7X7X",
"7X7X7X7X7X7X7X7X4.O.O.@.@.~ j.U.G.U.h.,.~ ~ @.#.#.#.#.#.^ #.#.#.#.@.+.+.@.@.+.@.@.@.@.~ O.u.Z.P.F.G.I.N.@.o.+.+.E E.7X7X7X7X7X7X",
"7X7X7X7X7X7X7X7Xr.E @.@.Q w. XG.G.G.P.F.s.*.~ ~ @.+.@.+.@.#.#.@.@.#.#.+.O.+.+.$.+.! ! ,.h.H.J.F.F.F.L.6X!.E o.+.E ~.7X7X7X7X7X7X",
"7X7X7X7X7X7X7X7Xc.E @.R e.5X<XD.G.F.F.K.K.C.s.*.O.~ ~ +.#.+.@.@.@.@.#.+.O.O.~ ~ $.9.g.A.P.J.K.F.F.D.oX7X7XQ.$.R -.=X7X7X7X7X7X7X",
"7X7X7X7X7X7X7X7X#X%.Q t.2X7X7X{.D.G.G.G.G.G.U.A.h.u.<.:.&.#.@.#.#.$.$.$.&.*.<.i.M.H.K.K.G.F.H.F.Z.L.6X7X7X7X&XE.+X7X7X7X7X7X7X7X",
"7X7X7X7X7X7X7X7X7X%X].7X7X7X7X5XL.F.G.I.I.I.F.D.S.C.M.f.a.a.y.u.a.s.s.g.h.C.A.T.T.T.T.K.J.G.F.F.F.*X7X7X7X7X7X7X7X7X7X7X7X7X7X7X",
"7X7X7X7X7X7X7X7X7X7X7X7X7X7X7X7X*XJ.J.f.7.6.X...{ ] ] ] ] ] [ { { {  .......X.6.7.0.f.M.S.I.K.D..X7X7X7X7X7X7X7X7X7X7X7X7X7X7X7X",
"7X7X7X7X7X7X7X7X7X7X7X7X7X7X7X7X7X{.6.Y / U / ] ( ] _ ] / ] ] ] ] ( ] ] ( / ( Y Y Y Y _ ..0.G.{.6X7X7X7X7X7X7X7X7X7X7X7X7X7X7X7X",
"7X7X7X7X7X7X7X7X7X7X7X7X7X7X7X7X7Xq.U ( ] ( ] ] ] ] ] ] ( ( ] [ ] ] ] ] ] ( ( ] ] ] ] ( ] U 8.5X7X7X7X7X7X7X7X7X7X7X7X7X7X7X7X7X",
"7X7X7X7X7X7X7X7X7X7X7X7X7X7X7X7X$X] ( ] ] ( ] ] ] ] ] ] [ [ [ ( ] ] ] ] ] ] [ [ [ ( ] ] ] / ' ^.7X7X7X7X7X7X7X7X7X7X7X7X7X7X7X7X",
"7X7X7X7X7X7X7X7X7X7X7X7X7X7X7X7X:X} _ ( ] _ ] _ [ ` [ ` ` ` ` ' ' ] _ _ ] [ [ ] ] ] [ ] ] ] U q.7X7X7X7X7X7X7X7X7X7X7X7X7X7X7X7X",
"7X7X7X7X7X7X7X7X7X7X7X7X7X7X7X7XOX4 _ ' ' ' _ ( ) | | * * > > * * T T T ) ] ` ' ` ' ` ] ] ' U f.7X7X7X7X7X7X7X7X7X7X7X7X7X7X7X7X",
"7X7X7X7X7X7X7X7X7X7X7X7X7X7X7X7XI k F , 1 , F d a x c z B M M B n n H x D D F S , < T ) ] | , K 5X7X7X7X7X7X7X7X7X7X7X7X7X7X7X7X",
"7X7X7X7X7X7X7X7X7X7X7X7X7X7X7X'.v V N A k b b v N B M V B B B N B B m n V A H A A b v a D c N v z.7X7X7X7X7X7X7X7X7X7X7X7X7X7X7X",
"7X7X7X7X7X7X7X7X7X7X7X7X7X7X6XP v H B B M M B B B B B Z B B H m B B n B B B B B B B v v b V B B B .X7X7X7X7X7X7X7X7X7X7X7X7X7X7X",
"7X7X7X7X7X7X7X7X7X7X7X7X7X7X'.v n B B B M M B B B B B B B n n n B B n n B B B B B B v B n B B B l k.7X7X7X7X7X7X7X7X7X7X7X7X7X7X",
"7X7X7X7X7X7X7X7X7X7X7X7X7X7Xl.j V n B n M v M B B B B n B B B H H n B n n B B B B B B v v B B B v J <X7X7X7X7X7X7X7X7X7X7X7X7X7X",
"7X7X7X7X7X7X7X7X7X7X7X7X7X7Xl.h B B z M n v v B B B B n n H B B n n B H B B B B B B B n z B n B B z XX7X7X7X7X7X7X7X7X7X7X7X7X7X",
"7X7X7X7X7X7X7X7X7X7X7X7X7X7XXXC h B M z v B B v B B n B B H n B B B H n n m B B B B B z z B z c j K 1X7X7X7X7X7X7X7X7X7X7X7X7X7X",
"7X7X7X7X7X7X7X7X7X7X7X7X7X7X7X'.H h z M v v z n B B n B c n n m B n n B c n H B B B n v v n z g J XX7X7X7X7X7X7X7X7X7X7X7X7X7X7X",
"7X7X7X7X7X7X7X7X7X7X7X7X7X7X7X7X1XI h M v v z z B z n z B B n H H n n n H n B V B B v v v v z I <X7X7X7X7X7X7X7X7X7X7X7X7X7X7X7X",
"7X7X7X7X7X7X7X7X7X7X7X7X7X7X7X7X7XJ.h v v v n n B B B B B B n B m n H n n m n n B B B v v j K 6X7X7X7X7X7X7X7X7X7X7X7X7X7X7X7X7X",
"7X7X7X7X7X7X7X7X7X7X7X7X7X7X7X7X7XV.g z v v z n n B B B z B B B n n B B B B B H B B B v v v H <X7X7X7X7X7X7X7X7X7X7X7X7X7X7X7X7X",
"7X7X7X7X7X7X7X7X7X7X7X7X7X7X7X7X7XB.g v v z n n M B n B n B B B H n B B B Z Z B Z B B v v h C <X7X7X7X7X7X7X7X7X7X7X7X7X7X7X7X7X",
"7X7X7X7X7X7X7X7X7X7X7X7X7X7X7X7X7Xk.h v z v z n z z B B B B B B B B B B B B B B B B v v v v c oX7X7X7X7X7X7X7X7X7X7X7X7X7X7X7X7X",
"7X7X7X7X7X7X7X7X7X7X7X7X7X7X7X7X7XP g v v n z n n B n c c B B B n B B B B B B B B B B v v v l '.7X7X7X7X7X7X7X7X7X7X7X7X7X7X7X7X",
"7X7X7X7X7X7X7X7X7X7X7X7X7X7X7X7X7Xk.C M b b b B V B B Z B c B Z H n B B B H V B H n m b b j l Y.7X7X7X7X7X7X7X7X7X7X7X7X7X7X7X7X",
"7X7X7X7X7X7X7X7X7X7X7X7X7X7X7X7X7X7X,XL % p d x M b A A V V N N m m V V V V V V A A x s i B.OX6X7X7X7X7X7X7X7X7X7X7X7X7X7X7X7X7X",
"7X7X7X7X7X7X7X7X7X7X7X7X7X7X7X7X7X7X6Xn.6 8 q w 2 3 & i p s d f D a f f s s p G 3 2 : 9 8 ;X7X7X7X7X7X7X7X7X7X7X7X7X7X7X7X7X7X7X",
"7X7X7X7X7X7X7X7X7X7X7X7X7X7X7X7X7X7X7Xn.- e r r 8 8 8 8 7 e e 0 ; e 0 e e 7 9 9 8 8 r e e $X7X7X7X7X7X7X7X7X7X7X7X7X7X7X7X7X7X7X",
"7X7X7X7X7X7X7X7X7X7X7X7X7X7X7X7X7X7X7Xm.= e e q r r r r r t t t t t t t t r r r r r r e e }.7X7X7X7X7X7X7X7X7X7X7X7X7X7X7X7X7X7X",
"7X7X7X7X7X7X7X7X7X7X7X7X7X7X7X7X7X7X7Xb.. 0 0 7 7 X ; X X . . .     . X X = = ; = ; q ; 0 :X7X7X7X7X7X7X7X7X7X7X7X7X7X7X7X7X7X7X",
"7X7X7X7X7X7X7X7X7X7X7X7X7X7X7X7X7X[.u 5 o o o o O + # $ 5 5 $ $ 5 5 5 # + + O O + @ + o @ y m.6X7X7X7X7X7X7X7X7X7X7X7X7X7X7X7X7X",
"7X7X7X7X7X7X7X7X7X7X7X7X7X7X7X7X7X6X:X>X>X}.|.-X>X>X,X1X,X5X5X5X5X5X5X,X>X>XoX|.|.|.|.-X>X-X,X7X7X7X7X7X7X7X7X7X7X7X7X7X7X7X7X7X"
};
