/* XPM */
static char *result[] = {
/* columns rows colors chars-per-pixel */
"64 64 208 2 ",
"   c #000005",
".  c #020409",
"X  c #0B0A0E",
"o  c #0D0D11",
"O  c #0C1415",
"+  c #151318",
"@  c #17390C",
"#  c #2A3232",
"$  c #2D6E12",
"%  c #327A1F",
"&  c #2C493B",
"*  c #514D3A",
"=  c #705A36",
"-  c #145449",
";  c #195C56",
":  c #254B46",
">  c #335750",
",  c #26635C",
"<  c #5B5A5A",
"1  c #69594E",
"2  c #7A7B7B",
"3  c #942E00",
"4  c #B43F0B",
"5  c #DF3D00",
"6  c #B04D15",
"7  c #967214",
"8  c #935D2C",
"9  c #AE5D22",
"0  c #AC6637",
"q  c #C3460A",
"w  c #D44807",
"e  c #D4530E",
"r  c #CB5511",
"t  c #FD4E00",
"y  c #E75708",
"u  c #EA5A0B",
"i  c #F55604",
"p  c #FD5500",
"a  c #F35B05",
"s  c #FE5C05",
"d  c #F65C09",
"f  c #FD5E09",
"g  c #E95A10",
"h  c #DE660B",
"j  c #FE6207",
"k  c #FE610A",
"l  c #F56511",
"z  c #F36A14",
"x  c #F46C1F",
"c  c #CD5C21",
"v  c #CA792F",
"b  c #EB722B",
"n  c #807C69",
"m  c #EC7D45",
"M  c #02941B",
"N  c #2D8A0C",
"B  c #32930A",
"V  c #379A0C",
"C  c #2A8B11",
"Z  c #338714",
"A  c #338B14",
"S  c #399614",
"D  c #1BA11F",
"F  c #35B10D",
"G  c #29A91C",
"H  c #059621",
"J  c #089828",
"K  c #179525",
"L  c #139B2E",
"P  c #0C9D30",
"I  c #139C30",
"U  c #2C972E",
"Y  c #20A424",
"T  c #449C1B",
"R  c #41BF0B",
"E  c #43A919",
"W  c #48B717",
"Q  c #4DBD15",
"!  c #53BF1D",
"~  c #459726",
"^  c #5A8F30",
"/  c #4EBB24",
"(  c #55BA27",
")  c #54B430",
"_  c #6CBC34",
"`  c #75B93C",
"'  c #3EC202",
"]  c #42C204",
"[  c #44C50A",
"{  c #4BC60E",
"}  c #44C90B",
"|  c #4DCA0F",
" . c #50C50E",
".. c #47C015",
"X. c #4DC613",
"o. c #4EC913",
"O. c #50C614",
"+. c #51CA14",
"@. c #53C41A",
"#. c #55CC1A",
"$. c #5DC81F",
"%. c #53D114",
"&. c #4FC020",
"*. c #53C227",
"=. c #5BC321",
"-. c #5BC336",
";. c #6CCB32",
":. c #2BA446",
">. c #52AD52",
",. c #6BB14E",
"<. c #69B66B",
"1. c #65C347",
"2. c #74CA57",
"3. c #F18037",
"4. c #86944F",
"5. c #9C856C",
"6. c #A4907B",
"7. c #87B96D",
"8. c #CA8E45",
"9. c #F98846",
"0. c #E88957",
"q. c #F29050",
"w. c #EC9568",
"e. c #F89767",
"r. c #F6AB78",
"t. c #96CA55",
"y. c #9CD756",
"u. c #A1DA5E",
"i. c #88D566",
"p. c #89C977",
"a. c #BAC56F",
"s. c #B4C276",
"d. c #B6D874",
"f. c #5A8F8A",
"g. c #7CB287",
"h. c #7DC78C",
"j. c #9D9A90",
"k. c #BDA688",
"l. c #CEB38D",
"z. c #FBB693",
"x. c #EABDA7",
"c. c #95D587",
"v. c #87C893",
"b. c #AAD393",
"n. c #9DD3AA",
"m. c #A7D8A4",
"M. c #B4DCA7",
"N. c #AFDABA",
"B. c #B7E0AF",
"V. c #BDE1B8",
"C. c #C7D185",
"Z. c #D4DA8D",
"A. c #D6C396",
"S. c #DAD694",
"D. c #EEC595",
"F. c #D9C8A5",
"G. c #ECCAAD",
"H. c #F2CDA6",
"J. c #E9D8A5",
"K. c #F6D5A4",
"L. c #FBD4A5",
"P. c #F6D6AD",
"I. c #F9D7AD",
"U. c #F6D9AE",
"Y. c #F9D9AE",
"T. c #F4D6B1",
"R. c #FCD6B3",
"E. c #F6D9B1",
"W. c #FBDAB2",
"Q. c #FBD1BE",
"!. c #F4DCBC",
"~. c #FDDCBA",
"^. c #FDE1B5",
"/. c #F7E1B9",
"(. c #FCE3BA",
"). c #BAD4C2",
"_. c #C8C6C8",
"`. c #CDCDCD",
"'. c #CCDADE",
"]. c #D6D6D7",
"[. c #EED7CC",
"{. c #F2DEC3",
"}. c #C7E3C7",
"|. c #CDE4D1",
" X c #D6EADA",
".X c #FBE3C5",
"XX c #F4E2CB",
"oX c #EFE3D0",
"OX c #F9E7D5",
"+X c #F6ECDB",
"@X c #DCE5E2",
"#X c #DFEAE7",
"$X c #E4E3E4",
"%X c #E1EAE6",
"&X c #E4ECE9",
"*X c #FDECE3",
"=X c #F9EBE9",
"-X c #EEF1EB",
";X c #F7F3EB",
":X c #F4F2EC",
">X c #ECF1F1",
",X c #F4F6F6",
"<X c #FAF6F6",
"1X c #F3F8F6",
"2X c #FAF9F5",
"3X c #F4F6F9",
"4X c #F4FAFB",
"5X c #FFFFFF",
/* pixels */
"5X5X5X5X5X5X5X5X5X5X5X5X5X5X5X5X5X5X5X5X5X5X5X5X5X5X5X5X5X5X5X5X5X5X5X5X5X5X5X5X5X5X5X5X5X5X5X5X5X5X5X5X5X5X5X5X5X5X5X5X5X5X5X5X",
"5X5X5X5X5X5X5X5X5X5X5X5X5X5X5X5X5X5X5X5X5X5X5X5X5X5X5X5X5X5X5X5X5X5X5X5X5X5X5X5X5X5X5X5X5X5X5X5X5X5X5X5X5X5X5X5X5X5X5X5X5X5X5X5X",
"5X5X5X5X5X5X5X5X5X5X5X5X5X5X5X5X5X5X5X5X5X5X5X5X5X5X5X5X5X5X5X5X5X5X5X5X5X5X5X5X5X5X5X5X4X4X>X-X5X5X5X5X5X5X5X5X5X5X5X5X5X5X5X5X",
"5X5X5X5X5X5X5X5X5X5X5X5X5X5X5X5X5X5X5X4X,X%X X|.}.}.}.V.B.M.M.M.b.c.c.2.2.1.1.1.-.-.*.&.! R R F {  X5X5X5X5X5X5X5X5X5X5X5X5X5X5X",
"5X5X5X5X5X5X5X5X5X5X5X5X5X5Xm.1.( *./ ..R [ ] F ' F F ] ] ] ] ] ] ] ] ] { { { [ { { { { { { { X.{ R 2X5X5X5X5X5X5X5X5X5X5X5X5X5X",
"5X5X5X5X5X5X5X5X5X5X5X5X5X) ] { { X.o.X.O.+. .X.| | X.X.+.| X.X.O.X.+.X.X.X.X.O.O.X.X.X.X.X.O. .X.] c.5X5X5X5X5X5X5X5X5X5X5X5X5X",
"5X5X5X5X5X5X5X5X5X5X5X5Xp.] X.X.X.X.X.X.X.X. .X.+.O.X.X.+.O.X.o.o.O.O.X.O.O.O.O.X.X.Q X.O.O.X.Q { ] i.5X5X5X5X5X5X5X5X5X5X5X5X5X",
"5X5X5X5X5X5X5X5X5X5X5X5X/ { X.X.Q O.X.X.X.X.O.X.{ X.X.X.{ +.O.{ X.O.O.X.X.X.{ X.X.X.O.O.X.X.O.X.X.R 2.5X5X5X5X5X5X5X5X5X5X5X5X5X",
"5X5X5X5X5X5X5X5X5X5X5X>X] +.+.X.X.O.X.X.X.X.Q X.O.X.Q O.o.o.{ X.{  .X.o.o.#.X.X.X.O.O.X.X.X.X.X.X.X.G #X5X5X5X5X5X5X5X5X5X5X5X5X",
"5X5X5X5X5X5X5X5X5X5X5X&XF | +.+.O.O.O.X.O.O.O.X.X.X.X. .{ X.{ X.O.+.{ X.X.X.X.X.X.O.! O.X.X.X.X.X.F J :.5X5X5X5X5X5X5X5X5X5X5X5X",
"5X5X5X5X5X5X5X5X5X5X5X&XF X.X.O.O.O.O.O.O.X.O.X.X.X.X.{ { o.X.X.O.O.O.X.X.X.X.X.O.X.X.X.O.X.X.X.+.G I M  X5X5X5X5X5X5X5X5X5X5X5X",
"5X5X5X5X5X5X5X5X5X5X5X&X} { X.X.X.o.O.O.O.X.Q O.X.O.O.{  .+.+.#.+.+.+.X.X.o.X.X.X.X.X.O.O.O.X.X.{ G P M n.5X5X5X5X5X5X5X5X5X5X5X",
"5X5X5X5X5X5X5X5X5X5X5X%X]  . .+.X.X.X.X.O.X.O.O.X.X.Q { X.o.X.X.O.O.X.X.X.X.X.X.X.O.X.X.X.O.O.O.O.Y L H h.5X5X5X5X5X5X5X5X5X5X5X",
"5X5X5X5X5X5X5X5X5X5X5X&X]  .o.+.X.X.X.O.O.X.X.O.X.X.X.X.X.O.o.{ X.{ { +.X.X.X.X.X.O.X.o.+.X.+.X.+.Y L J h.5X5X5X5X5X5X5X5X5X5X5X",
"5X5X5X5X5X5X5X5X5X5X5X%XR X.X.X.O.X.X.X.X.O.+.O.+.+.o.o.@.X.Q Q ! @.+.+.o.X.X.X.X.X.+.o.X.X.O.X.X.L I H v.5X5X5X5X5X5X5X5X5X5X5X",
"5X5X5X5X5X5X5X5X5X5X5X%X] X.X.X.X.o.O.X.X.{ +.+.W V B N B B B V B B N A W +.X.X.X.X.o.o.o.X.o.+.D I L M m.5X5X5X5X5X5X5X5X5X5X5X",
"5X5X5X5X5X5X5X5X5X5X5X#X] X.X.X.X.X.X.o.{ %.W C V ! @.#.o.+.+.o.o.o.o.X.Z / o.@.X.+.%.$ ~ { @.G L I L M N.5X5X5X5X5X5X5X5X5X5X5X",
"5X5X5X5X5X5X5X5X5X5X5X@X' X.X.X.X.X.X.o.%.A T #.o.o.o.o.| X.{ X.{ X.o.X.o.% o.o.%.V @ % { { G J J J H M  X5X5X5X5X5X5X5X5X5X5X5X",
"5X5X5X5X5X5X5X5X5X5X5X@X' X.X.X.X.X.X.%.C / | X.o.X.X.X.X.X.{ { o.o.o.X.o.N _ F @ 1 s.a.l.F.b.<.>.>.v.3X5X5X5X5X5X5X5X5X5X5X5X5X",
"5X5X5X5X5X5X5X5X5X5X5X@X' X.X.o.X.X.o.S ( o.o.X.X.o.X.o.o.o.X.{ X.X.o.o.o.o.4.* G.(.(.*X5X4X5X5X<X.XOX5X5X5X5X5X5X5X5X5X5X5X5X5X",
"5X5X5X5X5X5X5X5X5X5X5X@X' o.o.o.+.o.W ~ | X.X.X.X.{ X.o.X.X.X.X.o.+.X.o.X.' J.(.Y./.4X4X4X,X,X,X3X4XoX5X5X5X5X5X5X5X5X5X5X5X5X5X",
"5X5X5X5X5X5X5X5X5X5X5X%X' o.o...o.o.Z #.O.X.X.X.X.+.X.X.X.o.X.+.X.X.o.X.o.' Z.E.~.4X4X4X1X1X,X3X4X4X-X5X5X5X5X5X5X5X5X5X5X5X5X5X",
"5X5X5X5X5X5X5X5X5X5X5X#X' o.o.o.o.#.S +.o.o.O.O.O.X.X.+.X.X.o.X.o.o.X.X.o.[ d.R.;X4X,X<X3X3X,X4X<X,X,X5X5X5X5X5X5X5X5X5X5X5X5X5X",
"5X5X5X5X5X5X5X5X5X5X5X%X' o.{ X.o.+.A #. .X.O.+.O.O.O.O.O.X.X.X.X.O.X.X.+.[ u..X4X4X1X3X3X3X3X5X2 < 5X5X5X5X5X5X5X5X5X5X5X5X5X5X",
"5X5X5X5X5X5X5X5X5X5X5X%X} o.{ o.o.o.F ) | o.+.X.X.+.O.X.o.o.o.o.X.O.X.X.X.[ y.*X4X,X,X3X3X3X3X3X4X4X-X5X5X5X5X5X5X5X5X5X5X5X5X5X",
"5X5X5X5X5X5X5X5X5X5X5X%X] { o.o.o.o.+.% #.O.X.X.X.o.o.X.o.o.X.X.X.X.+.+.+.[ y.*X4X3X,X3X3X3X3X4X2X4XXX5X5X5X5X5X5X5X5X5X5X5X5X5X",
"5X5X5X5X5X5X5X5X5X5X5X#X] { X.X.X.X.o.F E O.X.o.X.o.X.o.X.@.o.X.o.X.+.o.o.} C.OX4X4X1X,X1X1X,X1X4X+X!.5X5X5X5X5X5X5X5X5X5X5X5X5X",
"5X5X5X5X5X5X5X5X5X5X5X%X] o.{ { o.O.X.X.,.[ X.o.X.X.#.X.o.@.X.o. .X.{ | o.o.E.W.2X4X1X1X1X3X1X4X;XP.XX5X5X5X5X5X5X5X5X5X5X5X5X5X",
"5X5X5X5X5X5X5X5X5X5X5X&XR { O.X.X.X.Q s.~.=.} X.X.o.X.X.O.+.X.X.X.{ o.X.X.;.~.I..X1X4X1X4X4X1XOXI.L.:X5X5X5X5X5X5X5X5X5X5X5X5X5X",
"5X5X5X5X5X5X5X5X5X5X5X>X] { O.O.{ ( A.~.R.S.Q { X.X.X.X.X.X.X.X.o.X.X.X.' d.W.U.P.P.XX+X+XXXT.I.I.P.5X5X5X5X5X5X5X5X5X5X5X5X5X5X",
"5X5X5X5X5X5X5X5X5X5X5X5XR | | ] _ F.W.I.R.W.S.Q ..o.X.X.O.O.O.X.X.X.X.{ $.~.Y.W.Y.U.I.L.K.I.I.E.P.!.5X5X5X5X5X5X5X5X5X5X5X5X5X5X",
"5X5X5X5X5X5X5X5X5X5X5X5XM.F } ;.K.W.Y.I.I.Y.~.C.*.} X.X.X.X.Q X.X.X.{ } Z.W.Y.Y.Y.U.I.I.U.Y.Y.U.K.:X5X5X5X5X5X5X5X5X5X5X5X5X5X5X",
"5X5X5X5X5X5X5X5X5X5X5X5X5XM.` H.W.U.U.U.W.Y.Y.W.~.t.{ [ X.X.X.X.X.} =.Z.~.W.E.E.E.Y.W.E.E.E.T.Y.!.5X5X5X5X5X5X5X5X5X5X5X5X5X5X5X",
"5X5X5X5X5X5X5X5X5X5X5X5X5X5X=XI.Y.U.U.W.U.Y.U.U.W.~.S.t.( [ ' [ @.;.E.W.Y.Y.E.P.E.Y.U.U.U.Y.P.K.;X5X5X5X5X5X5X5X5X5X5X5X5X5X5X5X",
"5X5X5X5X5X5X5X5X5X5X5X5X5X5X5X{.I.U.E.U.E.E.E.E.I.E.~.~.Y.S.C.S.J.~.R.U.U.W.W.E./.^.^.Y.E.U.U.XX5X5X5X5X5X5X5X5X5X5X5X5X5X5X5X5X",
"5X5X5X5X5X5X5X5X5X5X5X5X5X5X5X4XP.Y.Y.U.E.U.Y.W.W.I.U.Y.Y.W.R.W.R.E.T.T.E.P.Y.W.D.6.l.P.^.Y.I.5X5X5X5X5X5X5X5X5X5X5X5X5X5X5X5X5X",
"5X5X5X5X5X5X5X5X5X5X5X5X5X5X5X5X,XK.P.P.P.T.E.U.E.W.U.U.U.W.U.I.P.E.U.U.P.I.W.P.5.k.6.1 5.Y.<X5X5X5X5X5X5X5X5X5X5X5X5X5X5X5X5X5X",
"5X5X5X5X5X5X5X5X5X5X5X5X5X5X5X5X5X:XP.Y.U.E.U.P.P.P.Y.E.U.U.Y.I.W.Y.U.P.P.P.P.U.^.W.Y.^.l.;X5X5X5X5X5X5X5X5X5X5X5X5X5X5X5X5X5X5X",
"5X5X5X5X5X5X5X5X5X5X5X5X5X5X5X5X5X5X:XP.I.I.P.R.P.P.E.R.U.I.Y.I.I.W.W.I.P.P.U.W.Y.P.P.P.2X5X5X5X5X5X5X5X5X5X5X5X5X5X5X5X5X5X5X5X",
"5X5X5X5X5X5X5X5X5X5X5X5X5X5X5X5X5X5X5X4X!.Y.Y.U.W.R.E.P.Y.I.Y.I.Y.E.P.E.I.W.U.Y.P.K.!.5X5X5X5X5X5X5X5X5X5X5X5X5X5X5X5X5X5X5X5X5X",
"5X5X5X5X5X5X5X5X5X5X5X5X5X5X5X5X5X5X5X5X>X7./.~.Y.Y.U.U.U.U.Y.I.U.Y.P.Y.I.R.I.I.P.+X5X5X5X5X5X5X5X5X5X5X5X5X5X5X5X5X5X5X5X5X5X5X",
"5X5X5X5X5X5X5X5X5X5X5X5X5X5X5X5X5X5X5X5Xg.M U p.^.(.^.W.U.U.Y.Y.P.Y.I.W.R.Q.W.XX<X5X5X5X5X5X5X5X5X5X5X5X5X5X5X5X5X5X5X5X5X5X5X5X",
"5X5X5X5X5X5X5X5X5X5X5X5X5X5X5X5X5X5X5X<XK L J J P >.l.I./.^.(.(.(..X~.J.b.,.:.5X5X5X5X5X5X5X5X5X5X5X5X5X5X5X5X5X5X5X5X5X5X5X5X5X",
"5X5X5X5X5X5X5X5X5X5X5X5X5X5X5X5X5X5X5X).M K U ^ 7 y p p l b 3.8.4.^ U K J K C =X5X5X5X5X5X5X5X5X5X5X5X5X5X5X5X5X5X5X5X5X5X5X5X5X",
"5X5X5X5X5X5X5X5X5X5X5X5X5X5X5X5X5X5X5X5Xv y k f f f f i i i s p s j h h h h i [.5X5X5X5X5X5X5X5X5X5X5X5X5X5X5X5X5X5X5X5X5X5X5X5X",
"5X5X5X5X5X5X5X5X5X5X5X5X5X5X5X5X5X5X5X4Xu s f k k f a s f s d d j j s y 6 w 3 e.5X5X5X5X5X5X5X5X5X5X5X5X5X5X5X5X5X5X5X5X5X5X5X5X",
"5X5X5X5X5X5X5X5X5X5X5X5X5X5X5X5X5X5X5X=Xp k f k k f f f f f s d f k k y 4 e e c 5X5X5X5X5X5X5X5X5X5X5X5X5X5X5X5X5X5X5X5X5X5X5X5X",
"5X5X5X5X5X5X5X5X5X5X5X5X5X5X5X5X5X5X4X[.p f f k f a f f s f k s k f k u e r d 5 *X5X5X5X5X5X5X5X5X5X5X5X5X5X5X5X5X5X5X5X5X5X5X5X",
"5X5X5X5X5X5X5X5X5X5X5X5X5X5X5X5X5X5X5XF.t d k k k a k k f f k d k k k k q k f 5 z.5X5X5X5X5X5X5X5X5X5X5X5X5X5X5X5X5X5X5X5X5X5X5X",
"5X5X5X5X5X5X5X5X5X5X5X5X5X5X5X5X5X5X5Xr.t f f f f d k k k k k k k k k k q k k w b 5X5X5X5X5X5X5X5X5X5X5X5X5X5X5X5X5X5X5X5X5X5X5X",
"5X5X5X5X5X5X5X5X5X5X5X5X5X5X5X5X5X5X5Xw.p f f f f f k k k j k k l j k k d 4 4 q k 5X5X5X5X5X5X5X5X5X5X5X5X5X5X5X5X5X5X5X5X5X5X5X",
"5X5X5X5X5X5X5X5X5X5X5X5X5X5X5X5X5X5X5X0.p f f f d f k k k k k j d j k f f g f s t OX5X5X5X5X5X5X5X5X5X5X5X5X5X5X5X5X5X5X5X5X5X5X",
"5X5X5X5X5X5X5X5X5X5X5X5X5X5X5X5X5X5X5X0.p f f f k s k j s p j s d k k s k f f f t x.5X5X5X5X5X5X5X5X5X5X5X5X5X5X5X5X5X5X5X5X5X5X",
"5X5X5X5X5X5X5X5X5X5X5X5X5X5X5X5X5X5X5Xm p f s k k f s x q.e.9.l i k k k k f f f p e.5X5X5X5X5X5X5X5X5X5X5X5X5X5X5X5X5X5X5X5X5X5X",
"5X5X5X5X5X5X5X5X5X5X5X5X5X5X5X5X5X5X5Xb s s s k s p D./.^./.(./.b s k k k k f f p m 5X5X5X5X5X5X5X5X5X5X5X5X5X5X5X5X5X5X5X5X5X5X",
"5X5X5X5X5X5X5X5X5X5X5X5X5X5X5X5X5X5X5Xx p k f k f k ^.Y.K.U.U.^.D.i j k k s f s p d 5X5X5X5X5X5X5X5X5X5X5X5X5X5X5X5X5X5X5X5X5X5X",
"5X5X5X5X5X5X5X5X5X5X5X5X5X5X5X5X5X5X5Xi p s k f s j ~.Y.E.U.Y.W.(.z k j s j p f 0.G.5X5X5X5X5X5X5X5X5X5X5X5X5X5X5X5X5X5X5X5X5X5X",
"5X5X5X5X5X5X5X5X5X5X5X5X5X5X5X5X5X5X5XoXw.y f f j s r.^.I.Y.R.W.(.z k a r 0 =X5X5X5X5X5X5X5X5X5X5X5X5X5X5X5X5X5X5X5X5X5X5X5X5X5X",
"5X5X5X5X5X5X5X5X5X5X5X5X5X5X5X5X5X5X5X5X5X'.& = 8 9 9 A.(.~.(.(.F.* > , ; f.5X5X5X5X5X5X5X5X5X5X5X5X5X5X5X5X5X5X5X5X5X5X5X5X5X5X",
"5X5X5X5X5X5X5X5X5X5X5X5X5X5X5X5X5X5X5X5X5X@X- , , , ; : j.l.k.n & - & : : > >X5X5X5X5X5X5X5X5X5X5X5X5X5X5X5X5X5X5X5X5X5X5X5X5X5X",
"5X5X5X5X5X5X5X5X5X5X5X5X5X5X5X5X5X5X5X5X5X`.# O o X X X       . X X X + + # < j.5X5X5X5X5X5X5X5X5X5X5X5X5X5X5X5X5X5X5X5X5X5X5X5X",
"5X5X5X5X5X5X5X5X5X5X5X5X5X5X5X5X5X5X5X5X5X5X5X,X_.`.`.`.`._.`.`.].].].$X5X5X5X5X5X5X5X5X5X5X5X5X5X5X5X5X5X5X5X5X5X5X5X5X5X5X5X5X",
"5X5X5X5X5X5X5X5X5X5X5X5X5X5X5X5X5X5X5X5X5X5X5X5X5X5X5X5X5X5X5X5X5X5X5X5X5X5X5X5X5X5X5X5X5X5X5X5X5X5X5X5X5X5X5X5X5X5X5X5X5X5X5X5X",
"5X5X5X5X5X5X5X5X5X5X5X5X5X5X5X5X5X5X5X5X5X5X5X5X5X5X5X5X5X5X5X5X5X5X5X5X5X5X5X5X5X5X5X5X5X5X5X5X5X5X5X5X5X5X5X5X5X5X5X5X5X5X5X5X"
};
