/* XPM */
static char *result[] = {
/* columns rows colors chars-per-pixel */
"64 64 239 2 ",
"   c #010001",
".  c #1C1818",
"X  c #1A312F",
"o  c #1B3935",
"O  c #28252D",
"+  c #2C2831",
"@  c #2E2F35",
"#  c #363139",
"$  c #3C343E",
"%  c #672917",
"&  c #763114",
"*  c #1C453D",
"=  c #20433E",
"-  c #79750F",
";  c #4B513C",
":  c #695C3B",
">  c #3D3941",
",  c #1F4F48",
"<  c #1B524C",
"1  c #1B564D",
"2  c #264A42",
"3  c #244C43",
"4  c #265345",
"5  c #25554B",
"6  c #25584D",
"7  c #365C4D",
"8  c #265E54",
"9  c #25625A",
"0  c #28645C",
"q  c #475B45",
"w  c #565A5D",
"e  c #5E605F",
"r  c #7A6751",
"t  c #5D5C60",
"y  c #537A7B",
"u  c #6D6E72",
"i  c #9E3A0F",
"p  c #894D0D",
"a  c #9B4118",
"s  c #AB430E",
"d  c #B3450D",
"f  c #BA430C",
"g  c #AA4616",
"h  c #B44A13",
"j  c #B94814",
"k  c #BC551B",
"l  c #986F17",
"z  c #897717",
"x  c #B06D0F",
"c  c #A17312",
"v  c #915A2B",
"b  c #B46327",
"n  c #C84E0E",
"m  c #D64E0B",
"M  c #D55806",
"N  c #DC520C",
"B  c #C44D13",
"V  c #D24F10",
"C  c #C65716",
"Z  c #CC5213",
"A  c #D45514",
"S  c #D45915",
"D  c #DB5812",
"F  c #E24F0D",
"G  c #E95707",
"H  c #E2550C",
"J  c #ED5C0D",
"K  c #F45707",
"L  c #FD5500",
"P  c #FF5D05",
"I  c #F35D0B",
"U  c #FE5E09",
"Y  c #E85C11",
"T  c #D1690B",
"R  c #EA6309",
"E  c #FF6207",
"W  c #FE6209",
"Q  c #FA650B",
"!  c #D2662E",
"~  c #E36727",
"^  c #F07632",
"/  c #D67F53",
"(  c #30931E",
")  c #3DBE01",
"_  c #2BA31B",
"`  c #28A41D",
"'  c #36AB17",
"]  c #39B717",
"[  c #049A24",
"{  c #0A9925",
"}  c #069928",
"|  c #0D9B2A",
" . c #199B25",
".. c #149D2D",
"X. c #139C30",
"o. c #1D9E31",
"O. c #2B9423",
"+. c #1BA22D",
"@. c #17A336",
"#. c #29A731",
"$. c #28A336",
"%. c #718B14",
"&. c #46BD0D",
"*. c #49AD17",
"=. c #53AB12",
"-. c #43B413",
";. c #48BA16",
":. c #4ABC14",
">. c #68AB08",
",. c #4F9430",
"<. c #56B826",
"1. c #46B333",
"2. c #5EB832",
"3. c #63BB39",
"4. c #3FC302",
"5. c #3DC813",
"6. c #43C304",
"7. c #44C805",
"8. c #45C50A",
"9. c #49C60D",
"0. c #46C80A",
"q. c #4AC90C",
"w. c #4DC613",
"e. c #46C914",
"r. c #4EC813",
"t. c #51C615",
"y. c #51CA14",
"u. c #56C21D",
"i. c #45D814",
"p. c #58C325",
"a. c #5FC431",
"s. c #61C432",
"d. c #6CCA37",
"f. c #77CA39",
"g. c #38A541",
"h. c #47A949",
"j. c #56AD54",
"k. c #54B057",
"l. c #6DB34F",
"z. c #69B35C",
"x. c #73B761",
"c. c #6BC342",
"v. c #72C44C",
"b. c #79C557",
"n. c #73C170",
"m. c #8E8E0C",
"M. c #9D970D",
"N. c #B68C08",
"B. c #87A710",
"V. c #B58732",
"C. c #9E9976",
"Z. c #85BC6C",
"A. c #8CBC74",
"S. c #E9925E",
"D. c #D8906F",
"F. c #8ECD53",
"G. c #8CD06F",
"H. c #8CC874",
"J. c #99C67E",
"K. c #ABCD73",
"L. c #C4D77F",
"P. c #7E8F8C",
"I. c #899290",
"U. c #959595",
"Y. c #9AB3BB",
"T. c #AAABA8",
"R. c #B0B2B1",
"E. c #B9BBB9",
"W. c #D19D87",
"Q. c #C8B08B",
"!. c #D7BD9A",
"~. c #E1B68F",
"^. c #D0BEB6",
"/. c #E7B4A6",
"(. c #9DC589",
"). c #9ED384",
"_. c #A5C887",
"`. c #ABD190",
"'. c #ACE194",
"]. c #AFD2AB",
"[. c #B5D7A4",
"{. c #BCD4B2",
"}. c #B9E4A6",
"|. c #C2D68D",
" X c #C6CB92",
".X c #DCC49C",
"XX c #DCD498",
"oX c #ECCC98",
"OX c #DBCDB1",
"+X c #C2D8B8",
"@X c #E6CAA3",
"#X c #E9D6A7",
"$X c #F6D6A7",
"%X c #F6D6AC",
"&X c #F8D7AC",
"*X c #F7D9AE",
"=X c #F9D9AE",
"-X c #E9D1B7",
";X c #F7D7B0",
":X c #F6D9B1",
">X c #FBDAB2",
",X c #F6DEBC",
"<X c #FEDCB9",
"1X c #C4E8B4",
"2X c #EBE0B4",
"3X c #FFE2B5",
"4X c #FDE2BA",
"5X c #FFE9BC",
"6X c #D2D4CA",
"7X c #D7DCDB",
"8X c #DCDCDE",
"9X c #E8D4C8",
"0X c #FEDEC3",
"qX c #E3DEDF",
"wX c #CBE7C5",
"eX c #D4E6CB",
"rX c #DDE6D9",
"tX c #F6E1C4",
"yX c #F8E5C8",
"uX c #ECE9D2",
"iX c #E2E7DE",
"pX c #F7EBD8",
"aX c #DFDEE0",
"sX c #DBE2E1",
"dX c #E4E2E3",
"fX c #EBE7E7",
"gX c #ECEBEC",
"hX c #F6EDE1",
"jX c #EBF2E9",
"kX c #F4F3EC",
"lX c #F8F3E8",
"zX c #F0EEF0",
"xX c #EBF0F4",
"cX c #F3F4F4",
"vX c #F4F8F6",
"bX c #FBF8F7",
"nX c #F5F7F9",
"mX c #F4FAFB",
"MX c #FFFFFF",
/* pixels */
"MXMXMXMXMXMXMXMXMXMXMXMXMXMXMXMXMXMXMXMXMXMXMXMXMXMXMXMXMXMXMXMXMXMXMXMXMXMXMXMXMXMXMXMXMXMXMXMXMXMXMXMXMXMXMXMXMXMXMXMXMXMXMXMX",
"MXMXMXMXMXMXMXMXMXMXMXMXMXMXMXMXgXkXkXgXgXgXgXgXzXcXnXbXbXbXMXMXMXMXMXbXMXMXMXMXMXMXMXMXMXMXMXMXMXMXMXMXMXMXMXMXMXMXMXMXMXMXMXMX",
"MXMXMXMXMXMXMXMXMXMXMXMXMXMXMXrXl.2.s.2.2.3.2.3.3.l.l.l.x.Z.Z.Z.A.A.(.(.`.[.[.+X{.{.+XwXeXeXrXdXcXMXMXMXMXMXMXMXMXMXMXMXMXMXMXMX",
"MXMXMXMXMXMXMXMXMXMXMXMXMXMXfX3.7.0.8.9.8.0.9.9.6.9.9.&.8.8.8.8.&.6.&.&.&.&.6.&.&.:.-.:.<.<.<.<.3.).bXMXMXMXMXMXMXMXMXMXMXMXMXMX",
"MXMXMXMXMXMXMXMXMXMXMXMXMXMX).4.w.r.r.w.w.e.r.r.t.w.w.w.t.r.w.w.r.w.w.w.9.w.9.t.r.q.r.9.q.9.9.0.9.) G.MXMXMXMXMXMXMXMXMXMXMXMXMX",
"MXMXMXMXMXMXMXMXMXMXMXMXMXMXF.6.r.r.r.r.w.q.r.t.w.w.r.w.r.r.y.9.w.w.9.q.w.w.w.t.w.r.r.w.r.q.t.r.w.9.q.wXMXMXMXMXMXMXMXMXMXMXMXMX",
"MXMXMXMXMXMXMXMXMXMXMXMXMXmXv.8.r.r.w.w.t.w.t.t.w.y.r.y.9.r.r.e.9.w.w.9.r.r.y.w.r.w.w.r.9.t.9.t.w.r.4.'.MXMXMXMXMXMXMXMXMXMXMXMX",
"MXMXMXMXMXMXMXMXMXMXMXMXMXnXd.8.r.y.y.y.y.y.y.y.w.t.r.q.y.r.w.w.r.y.r.w.w.y.r.r.r.t.9.y.r.t.t.t.r.r.6.).MXMXMXMXMXMXMXMXMXMXMXMX",
"MXMXMXMXMXMXMXMXMXMXMXMXMXcXs.9.w.e.t.:.t.t.t.t.y.r.y.y.y.y.t.q.y.t.y.y.r.y.y.y.y.y.r.y.y.w.y.w.t.q.4.'.MXMXMXMXMXMXMXMXMXMXMXMX",
"MXMXMXMXMXMXMXMXMXMXMXMXMXcXs.q.;.` ` _ _ _ _ _ ' ' ' ' ' ' -.-.-.-.-.&.-.&.:.:.:.:.:.w.:.9.w.t.y.e.4.'.MXMXMXMXMXMXMXMXMXMXMXMX",
"MXMXMXMXMXMXMXMXMXMXMXMXMXvXs.q.;.X.X.X.......X...| ....o. ...| ...... . . . . . . .` ` O.` ` _ _ r.6.'.MXMXMXMXMXMXMXMXMXMXMXMX",
"MXMXMXMXMXMXMXMXMXMXMXMXMXkXs.q.] ..X.X.....X.X.X.......X.........X.| +...+...@.X.X.| X.X.X.X.X...e.4.}.MXMXMXMXMXMXMXMXMXMXMXMX",
"MXMXMXMXMXMXMXMXMXMXMXMXMXcXa.q.] X.X.X.................@.......+.| ..+.| ..X...o...X.......X...o.w.6.}.MXMXMXMXMXMXMXMXMXMXMXMX",
"MXMXMXMXMXMXMXMXMXMXMXMXMXjXp.q.] X.X.| +.X.........X...| +.....+...+...| ..X.X.........X.X.....+.w.4.}.MXMXMXMXMXMXMXMXMXMXMXMX",
"MXMXMXMXMXMXMXMXMXMXMXMXMXjXp.q.' X... .................+.| +. ...............| ....+.+.+.+.....+.e.6.}.MXMXMXMXMXMXMXMXMXMXMXMX",
"MXMXMXMXMXMXMXMXMXMXMXMXMXiX=.-._ X.......@.+......... .| +.| ..........+.................X.X...#.y.0.}.MXMXMXMXMXMXMXMXMXMXMXMX",
"MXMXMXMXMXMXMXMXMXMXMXMXMX(.-.y.] ..X............................. ...| ........X.| X.|  .X.X.| +.' :.1XMXMXMXMXMXMXMXMXMXMXMXMX",
"MXMXMXMXMXMXMXMXMXMXMXMX{.;.q.y.' X.X...........| | { [ [ [ [ [ [ [ [ [ [ { | ..| |  . ...X.X.| +.w.-.+XMXMXMXMXMXMXMXMXMXMXMXMX",
"MXMXMXMXMXMXMXMXMXMXMXqX<.6.w.y.' X.| o.{ { { | +.#.g.h.j.j.z.x.z.z.z.z.j.h.$.$.o.X.{ { { { X.X.#.r.9.v.vXMXMXMXMXMXMXMXMXMXMXMX",
"MXMXMXMXMXMXMXMXMXMXbXx.&.w.w.t.] #._.|.z.Z._. XOXuXjXvXlXpX>X>X>X3XpXbXvXkXuX#X.X XJ.Z.A.$. .{ +.r.r.) (.MXMXMXMXMXMXMXMXMXMXMX",
"MXMXMXMXMXMXMXMXMXMX+X&.r.t.r.r.q.f.0X<X<X<X=XyXbXMXmXmXmXmXhX%X<XkXMXnXvXmXMXkX<X<X<X3X<X#X X1.] r.y.9.<.dXMXMXMXMXMXMXMXMXMXMX",
"MXMXMXMXMXMXMXMXMXMXx.7.r.r.r.t.7.K.<X;X=X&X4XMXmXnXnXnXmXmXmXtXpXmXnXnXnXnXnXmXfX*X=X*X&X<X<Xd.0.e.r.r.6.Z.MXMXMXMXMXMXMXMXMXMX",
"MXMXMXMXMXMXMXMXMX6X:.w.t.r.r.w.q.L.<X&X=X:XlXmXnXnXnXnXmXvXmXfXjXmXnXnXnXnXnXnXmXuX&X=X&X=X&XF.0.r.r.y.r.<.rXMXMXMXMXMXMXMXMXMX",
"MXMXMXMXMXMXMXMXMXJ.6.r.r.r.e.9.p.#X>X%X$XtXmXnXnXnXnXnXnXmXMX7XgXmXnXnXnXnXnXvXMXbX%X%X&X&X>XF.0.t.t.t.r.8.(.MXMXMXMXMXMXMXMXMX",
"MXMXMXMXMXMXMXMXcXl.7.y.t.r.r.8.F.3X$X&X$XpXmXvXvXnXnXnXmX7XT.gXxXmXnXnXvXnXnXMXE.T.tX=X=X&X<XK.8.w.r.r.t.0.3.cXMXMXMXMXMXMXMXMX",
"MXMXMXMXMXMXMXMXeX:.r.r.r.r.w.8.L.3X=X&X$XpXmXvXvXmXnXnXMXE.e hXlXmXvXvXnXnXnXMXI.P.yX=X$X=X<XXXt.w.r.r.r.r.;.eXMXMXMXMXMXMXMXMX",
"MXMXMXMXMXMXMXMX[.6.r.r.r.r.7.f.&X=X&X*X$XpXmXvXnXnXnXnXnXmXMX,XpXmXbXvXnXnXnXnXMXMX,X$X&X&X=X;Xf.8.r.t.t.r.7._.MXMXMXMXMXMXMXMX",
"MXMXMXMXMXMXMXMXJ.6.e.r.r.q.0.K.<X*X*X*X&XtXmXmXnXvXnXnXnXmXpX$X:XvXmXvXcXnXnXcXmXkX*X*X=X=X&X<XK.8.r.t.e.r.7.b.MXMXMXMXMXMXMXMX",
"MXMXMXMXMXMXMXMXG.7.9.r.r.8.f.=X=X&X:X:X=X&XpXmXmXnXvXnXmXhX:X=X%X4XvXmXnXnXmXmXmXtX%X*X=X:X=X>XXXu.w.t.w.w.9.s.cXMXMXMXMXMXMXMX",
"MXMXMXMXMXMXMXMXG.7.w.t.w.t.XX<X*X=X=X:X&X&X&XpXvXvXvXkXyX*X&X=X&X%X3XhXvXmXmXkXtX*X*X*X=X=X=X=X<XF.6.w.e.r.9.<.iXMXMXMXMXMXMXMX",
"MXMXMXMXMXMXMXMXG.4.r.9.8.[.tX=X:X:X=X;X;X&X=X&X:X,X,X*X*X=X*X=X:X=X&X&X,XtX4X:X&X*X*X*X*X=X=X:X<X@Xu.9.r.w.w.9.eXMXMXMXMXMXMXMX",
"MXMXMXMXMXMXMXMX[.4.6.8.`.MXpX&X*X=X=X&X;X>X=X=X=X*X&X=X:X:X:X=X&X=X=X&X$X*X=X*X:X*X*X=X=X=X=X=X&X0XJ.8.t.t.9.9.eXMXMXMXMXMXMXMX",
"MXMXMXMXMXMXMXMXvXJ.b.+XMXMXnX,X=X=X*X:X3X:X=X:X*X*X=X*X:X=X>X&X:X:X=X=X;X;X:X:X:X:X:X=X:X=X=X=X&XhXcXc.6.r.w.8.eXMXMXMXMXMXMXMX",
"MXMXMXMXMXMXMXMXMXMXMXMXMXMXMXpX&X:X:X*X*X*X=X>X:X:X*X,X3X>X>X=X=X>X=X=X:X=X&X:X*X:X>X:X*X>X=X=XtXMXMXeXp.6.6.p.jXMXMXMXMXMXMXMX",
"MXMXMXMXMXMXMXMXMXMXMXMXMXMXMXvX,X*X*X*X*X*X=X=X:X:X:X.X.X!.!.@X.X!.oX@X%X&X>X=X*X*X=X=X*X=X=X:XbXMXMXMXeXv.p.`.MXMXMXMXMXMXMXMX",
"MXMXMXMXMXMXMXMXMXMXMXMXMXMXMXMXkX-X*X*X*X*X=X=X=X=X3Xr I.^.E.qXR.iXT.6XU.@X>X:X=X=X*X>X3X*X%XpXMXMXMXMXMXcXrXMXMXMXMXMXMXMXMXMX",
"MXMXMXMXMXMXMXMXMXMXMXMXMXMXMXMXMXfX:X*X3X$X$X=X=X%X:X@XC.w u I.P.R.u U.!.=X=X=X;X&X<X$X$X$XyXMXMXMXMXMXMXMXMXMXMXMXMXMXMXMXMXMX",
"MXMXMXMXMXMXMXMXMXMXMXMXMXMXMXMXMXMX6X#XoX5X=X=X=X*X*X3X=Xr         ; !.3X&X*X=X&X<X@Xh.h.uXMXMXMXMXMXMXMXMXMXMXMXMXMXMXMXMXMXMX",
"MXMXMXMXMXMXMXMXMXMXMXMXMXMXMXMXMXmXD.V.E S.&X3X:X>X:X=X>X5XQ.# . C.3X3X=X=X=X<X4X`.$.} [ ].MXMXMXMXMXMXMXMXMXMXMXMXMXMXMXMXMXMX",
"MXMXMXMXMXMXMXMXMXMXMXMXMXMXMXMXMXOXJ G P L ^ ~.2X3X<X:X&X=X5X%X!.<X=X=X=X<X>X Xk.} } - z b fXMXMXMXMXMXMXMXMXMXMXMXMXMXMXMXMXMX",
"MXMXMXMXMXMXMXMXMXMXMXMXMXMXMXMXdX! P U U U L G V.K. X:X<X<X>X<X4X<X<X>X.XJ.j.| { ( x U P L D.mXMXMXMXMXMXMXMXMXMXMXMXMXMXMXMXMX",
"MXMXMXMXMXMXMXMXMXMXMXMXMXMXMXMXW.K U U U W W E L M z ,.z.n.A.(.(.Z.z.h.X.[ { ( c K U U W P J 9XMXMXbXMXMXMXMXMXMXMXMXMXMXMXMXMX",
"MXMXMXMXMXMXMXMXMXMXMXMXMXMXMXdX! P W Q U W E P P M l ,.@.X.|  .{ { | | { [ { ,.c I U U P W L S.mXMXnXMXMXMXMXMXMXMXMXMXMXMXMXMX",
"MXMXMXMXMXMXMXMXMXMXMXMXMXMXMXW.L U W U Q W W W W W T - ( O.o.X.{ o.X...( ( z T U P W U Q Q L K OXMXMXMXMXMXMXMXMXMXMXMXMXMXMXMX",
"MXMXMXMXMXMXMXMXMXMXMXMXMXMXgX~ P W W U W Q U W P W U W W T x c p l c x R Q E W W W W W W W W L / nXMXMXMXMXMXMXMXMXMXMXMXMXMXMX",
"MXMXMXMXMXMXMXMXMXMXMXMXMXMX^.K W W U U W W U U Q R J J I W E E f A P P N V V V n Y W W W W W P Y dXMXMXMXMXMXMXMXMXMXMXMXMXMXMX",
"MXMXMXMXMXMXMXMXMXMXMXMXMXmXS.L W W W I W E W N & a i h & Z W E d A W F % j D N & h Q H H W W W K /.MXMXMXMXMXMXMXMXMXMXMXMXMXMX",
"MXMXMXMXMXMXMXMXMXMXMXMXMXxX~ P U W G C W W E n a A Q F a A Q W d A W N g h Q B h k Q J B Q U U L S.mXMXMXMXMXMXMXMXMXMXMXMXMXMX",
"MXMXMXMXMXMXMXMXMXMXMXMXMX9XK U Q U H V W W W n A B h j H N W W d S E N C H a B H k Q U j U U W L ^ nXMXMXMXMXMXMXMXMXMXMXMXMXMX",
"MXMXMXMXMXMXMXMXMXMXMXMXMX/.G M.B.N.h V W U W n Z W j J J m W W d S E m j E N Q H j Q Q j x M.B.N.Y fXMXMXMXMXMXMXMXMXMXMXMXMXMX",
"MXMXMXMXMXMXMXMXMXMXMXMXmXQ.>.5.e.] =.c U U W n Z W W W K V W W d S E m C W E E H d W J %.=.] 5.e.B.9XMXMXMXMXMXMXMXMXMXMXMXMXMX",
"MXMXMXMXMXMXMXMXMXMXMXMXmXb.4.r.;.*.i.=.I U W n B I J J V Z W W d S E N g m V m d h I T 5.r.*.t.w.] `.MXMXMXMXMXMXMXMXMXMXMXMXMX",
"MXMXMXMXMXMXMXMXMXMXMXMXkXp.8.t.w.-.] m.U U W H s f f d s N W W d S E E Z Z Z Z n Y U J =.-.;.t.t.) G.mXMXMXMXMXMXMXMXMXMXMXMXMX",
"MXMXMXMXMXMXMXMXMXMXMXMXMXb.4.t.w.9.w.T U U U U Q W U W U U U E d S E W W W W W W U U P M.5.t.t.w.) [.MXMXMXMXMXMXMXMXMXMXMXMXMX",
"MXMXMXMXMXMXMXMXMXMXMXMXMXrXc.) 6.8.m.K U U U U U U U W U U U W d A W Q W W W W U U U P G >.5.6.&.H.nXMXMXMXMXMXMXMXMXMXMXMXMXMX",
"MXMXMXMXMXMXMXMXMXMXMXMXMXMXmX{.1XwX/.! A I I Q U P P P P U P U f D E P P E P P U U J C / -X1X}.eXMXMXMXMXMXMXMXMXMXMXMXMXMXMXMX",
"MXMXMXMXMXMXMXMXMXMXMXMXMXMXMXMXMXMXMXy 4 q : v v k S S Y J J W s Z Q Y D S k b v : q 5 Y.MXMXMXMXMXMXMXMXMXMXMXMXMXMXMXMXMXMXMX",
"MXMXMXMXMXMXMXMXMXMXMXMXMXMXMXMXMXMXMXy 8 0 9 9 0 8 8 7 q ; q q ; ; ; q 7 7 9 9 9 9 9 1 P.nXmXMXMXMXMXMXMXMXMXMXMXMXMXMXMXMXMXMX",
"MXMXMXMXMXMXMXMXMXMXMXMXMXMXMXMXMXMX7X5 4 < 1 < < < , 3 3 3 2 2 3 3 < < < < < < 5 5 1 * P.MXMXMXMXMXMXMXMXMXMXMXMXMXMXMXMXMXMXMX",
"MXMXMXMXMXMXMXMXMXMXMXMXMXMXMXMXMXMXsX5 3 5 5 5 5 5 6 6 6 6 6 6 6 6 6 5 5 6 6 4 4 4 1 * U.mXMXMXMXMXMXMXMXMXMXMXMXMXMXMXMXMXMXMX",
"MXMXMXMXMXMXMXMXMXMXMXMXMXMXMXMXMXMXsX3 3 2 = * = = o o o X X X X o o o o * * = = = 2 o P.MXMXMXMXMXMXMXMXMXMXMXMXMXMXMXMXMXMXMX",
"MXMXMXMXMXMXMXMXMXMXMXMXMXMXMXMXbXU.t @ O + @ + + O + @ # $ $ $ $ $ > $ $ # + O O O O O > t 6XMXMXMXMXMXMXMXMXMXMXMXMXMXMXMXMXMX",
"MXMXMXMXMXMXMXMXMXMXMXMXMXMXMXMXMXgX8XdX8X8X8X8X8X8XdXdXgXcXzXcXcXcXcXgXgXgXdXqXaX8X8XdXdXdXcXMXMXMXMXMXMXMXMXMXMXMXMXMXMXMXMXMX",
"MXMXMXMXMXMXMXMXMXMXMXMXMXMXMXMXMXMXMXMXMXMXMXMXMXMXMXMXMXMXMXMXMXMXMXMXMXMXMXMXMXMXMXMXMXMXMXMXMXMXMXMXMXMXMXMXMXMXMXMXMXMXMXMX"
};
