/* XPM */
static char *result[] = {
/* columns rows colors chars-per-pixel */
"64 64 205 2 ",
"   c #B6CCEF",
".  c #C0D6EE",
"X  c #C1D6F1",
"o  c #C3D4F6",
"O  c #C9D5F0",
"+  c #C5D8F0",
"@  c #CCDCF7",
"#  c #C3D8FC",
"$  c #CAD9F8",
"%  c #CDDBFB",
"&  c #CBDCF9",
"*  c #CCDEF8",
"=  c #C9DEFF",
"-  c #D0DCF2",
";  c #D4DFF4",
":  c #D6DDF7",
">  c #D8DFF7",
",  c #D7DFF8",
"<  c #CEE0F9",
"1  c #C9E2FF",
"2  c #D7E1F4",
"3  c #D8E0F3",
"4  c #DEE0F3",
"5  c #D8E2F7",
"6  c #D8E5F7",
"7  c #D5E1F9",
"8  c #D7E0F9",
"9  c #D7E1F9",
"0  c #D0E2FF",
"q  c #D0E4FE",
"w  c #D4E5FC",
"e  c #D6E5FC",
"r  c #D7E4FD",
"t  c #D7E4FF",
"y  c #D4E7FF",
"u  c #D7E6FF",
"i  c #DEE6F9",
"p  c #D8E6FC",
"a  c #D9E6FF",
"s  c #DCE5FE",
"d  c #D3E8FF",
"f  c #DEEAF9",
"g  c #DBE8FC",
"h  c #DBEAFE",
"j  c #DCE8FF",
"k  c #DCEAFF",
"l  c #DDEBFF",
"z  c #DDECFE",
"x  c #DCEDFF",
"c  c #DFECFF",
"v  c #DDEFFE",
"b  c #DFEEFF",
"n  c #DFF0FF",
"m  c #E1E6F5",
"M  c #E0E6FD",
"N  c #E0E7FF",
"B  c #E7EFFB",
"V  c #E0EBFF",
"C  c #E2ECFC",
"Z  c #E1EDFF",
"A  c #E0EEFF",
"S  c #E0EFFF",
"D  c #E1EFFF",
"F  c #E2EFFF",
"G  c #E6EDFC",
"H  c #E6EFFD",
"J  c #E5ECFF",
"K  c #E5EDFF",
"L  c #E4EEFF",
"P  c #E4EFFF",
"I  c #E5EFFF",
"U  c #E9EAFA",
"Y  c #E9EDF9",
"T  c #E9EDFF",
"R  c #E9EFFF",
"E  c #EAEFFF",
"W  c #EDEFFD",
"Q  c #EDEFFF",
"!  c #F0EFFF",
"~  c #E1F0FF",
"^  c #E1F1FF",
"/  c #E2F0FF",
"(  c #E3F1FF",
")  c #E0F3FF",
"_  c #E2F2FF",
"`  c #E3F3FF",
"'  c #E4F0FF",
"]  c #E5F0FF",
"[  c #E5F1FF",
"{  c #E7F1FF",
"}  c #E5F5FF",
"|  c #E6F5FF",
" . c #E7F5FF",
".. c #E7F7FF",
"X. c #E8F1FD",
"o. c #E9F0FF",
"O. c #E9F1FF",
"+. c #E8F2FF",
"@. c #E9F2FF",
"#. c #EBF2FF",
"$. c #EAF3FF",
"%. c #EBF3FF",
"&. c #EEF0FD",
"*. c #EEF0FF",
"=. c #EEF1FF",
"-. c #ECF2FF",
";. c #EDF3FF",
":. c #E9F5FF",
">. c #EAF4FF",
",. c #E9F6FF",
"<. c #E9F7FF",
"1. c #EAF6FF",
"2. c #EBF7FF",
"3. c #ECF4FF",
"4. c #EDF4FF",
"5. c #ECF5FF",
"6. c #EDF5FF",
"7. c #EEF5FE",
"8. c #ECF6FF",
"9. c #ECF7FF",
"0. c #EEF6FF",
"q. c #EFF6FF",
"w. c #EEF7FF",
"e. c #EFF7FF",
"r. c #EBF9FF",
"t. c #EDF8FF",
"y. c #ECF9FF",
"u. c #EEF9FF",
"i. c #EFFAFF",
"p. c #EFFBFF",
"a. c #EDFDFF",
"s. c #EEFCFF",
"d. c #EEFDFF",
"f. c #F0F3FF",
"g. c #F1F4FF",
"h. c #F1F5FF",
"j. c #F0F6FF",
"k. c #F1F6FF",
"l. c #F0F7FF",
"z. c #F1F7FF",
"x. c #F3F6FF",
"c. c #F2F7FF",
"v. c #F4F6FF",
"b. c AliceBlue",
"n. c #F1F9FF",
"m. c #F2F9FF",
"M. c #F3F9FF",
"N. c #F0FAFF",
"B. c #F1FAFF",
"V. c #F1FBFF",
"C. c #F2FAFF",
"Z. c #F3FAFF",
"A. c #F2FBFF",
"S. c #F4F8FF",
"D. c #F5F8FF",
"F. c #F4F9FF",
"G. c #F5F9FF",
"H. c #F6F9FF",
"J. c #F7F9FF",
"K. c #F5FAFF",
"L. c #F7FAFF",
"P. c #F0FCFF",
"I. c #F1FCFF",
"U. c #F1FDFF",
"Y. c #F2FDFF",
"T. c #F3FDFF",
"R. c #F0FEFF",
"E. c #F1FEFF",
"W. c azure",
"Q. c #F1FFFF",
"!. c #F2FFFF",
"~. c #F4FDFF",
"^. c #F6FCFF",
"/. c #F4FEFF",
"(. c #F5FEFF",
"). c #F5FFFF",
"_. c #F6FEFF",
"`. c #F7FEFF",
"'. c #F6FFFF",
"]. c #F7FFFF",
"[. c GhostWhite",
"{. c #F9F8FF",
"}. c #F8FAFF",
"|. c #F9FBFF",
" X c #FBFAFF",
".X c #FEFAFF",
"XX c #F8FCFF",
"oX c #F8FDFF",
"OX c #F9FDFF",
"+X c #FBFDFF",
"@X c #F8FEFF",
"#X c #F9FEFF",
"$X c #F8FFFF",
"%X c #F9FFFF",
"&X c #FAFEFF",
"*X c #FBFEFF",
"=X c #FAFFFF",
"-X c #FBFFFF",
";X c #FDFCFF",
":X c #FEFCFF",
">X c #FDFEFF",
",X c #FCFFFF",
"<X c #FDFFFF",
"1X c #FEFFFF",
"2X c white",
/* pixels */
"2X2X2X2X2X2X2X2X2X2X2X2X2X2X2X2X2X2X2X2X2X2X2X2X2X2X2X2X2X2X2X2X2X2X2X2X2X2X2X2X2X2X2X2X2X2X2X2X2X2X2X2X2X2X2X2X2X2X2X2X2X2X2X2X",
"2X2X2X2X2X2X2X2X2X2X2X2X2X2X2X2X2X2X2X2X2X2X2X2X2X2X2X2X2X-XP.2X2X2X2X2X2X2X2X2X2X2X2X2X2X2X2X2X2X2X2X=X].2X2X2X2X2X2X2X2X2X2X2X",
"2X2X2X2X2X2X2X2X2X2X2X2X@X4.z.2X2X2X2X2X2X2X2X2X2X2X2X2X2XC.+ ].-X2X2X2X2X2X2X2X2X2X2X2X2X2X2X$X,X2X2X2X2X2X2X2X2X2X2X2X2X2X2X2X",
"2X2X2X2X2X2X2X2X2X2X2X2X2X<X-.' 2X2X2X2X2X2X2X2X2X2X2X2X2X).A * r 2X2X2X2X2X2X2X2X2X2X2X2X2X2Xi.n X 1X2X-Xq 2X2X2X2X2X2X2X2X2X2X",
"2X2X2X2X2X2X2X2X2X2X2X2X2X2X2X% Z.2X2X2X2X2X2X2X2X2X2X2X2X] h.9.D.2X2X2X2X2X2X2X2X2X2X2X2X2X| c :.1X2XN.z { 2X2X2X2X2X2X2X2X2X2X",
"2X2X2X2X2X2X2X2X2X2X2X2X2X2X2X2X2X2X2X2X2X2X2X2X2X2X2X2X2X2Xo   w.2X2X2X2X2X2X2X2X2X2X2X2X2X2X2X2X2X2X2X2XQ.>.2X2X2X2X2X2X2X2X2X",
"2X2X2X2X2X2X2X2X2X2X2X2XI.2X2X2X2X2X2X2X2X2X2X2X2X2X2X2X2X2X-XN y u Z.2X2X2X2X2X2X2X2X2X2X2X2X2X2XW.n !.<.R.2X2X2X2X2X2X2X2X2X2X",
"2X2X2X2X2X2X2X2X2X2X2X,X2.9.2X2X2X2X2X2X2X2X2X2X2X2X2X2X2X2X2X2X} b 2X2X2X2X2X2X2X2X2X2X2X2X2Xd.2X2X].p ].2X2X2X2X2X2X2X2X2X2X2X",
"2X2X2X2X2X2X2X2X2X2X2X2X2X2X2X2X2X2X2X2X2X2X2X2X2X2X2X2X2X2X2X2X2X2X2X2X2X2X2X2X2X2X2X2X2X2X2X2X2X2X2X2X2X2X2X2X2X2X2X2X2X2X2X2X",
"2X2X2X2X2X2X2X2X2X2X2X2X2X2X2X2X2X2X2X2X2X2X2X2X2X2X2X2X2X2X2X2X2X2X2X2X2X2X2X2X2X2X2X2X2X2X2X2X .2X2X2X2X2X2X2X2X2X2X2X2X2X2X2X",
"2X2X2X2X2X2X2X2X2X2X2X2X2X2X2X2X2X2X2X2X2X2X2X2X2X2X2X2X2X2X2X2X2X2X2X2X2X2X2X2X2X2X2X2X2X2X2X2X2X2X2X2X2X2X2X2X2X2X2Xu.2X2X2X2X",
"2X2X2X2X2X2X2X2X2X2X2X2X2X2X2X2X2X2X2X2X2X2X2X2X2X2X2X2X2X2X2X2X2X2X2X2X2X2X2X2X2X2X2X2X2X2X2X2X2X2X2X2X2X2X2X2X2X2X`.t R 2X2X2X",
"2X2X2X2X2X2Xm.2X2X2X2X2X2X2X2X2X2X2X2X2X2X2X2X2X2X2X2X2X2X2X2X2X2X2X2X2X2X2X-X2X2X].2X2X2X2X2X2X2X2X2X2X2X2X2X2X2X<X:.,X2X2X2X2X",
"2X2X2X2X2X,XO.2X2X2X2X2X2X2X2X2X2X2X2X2X2X2X2X2X2X2X2X2X2X2X2X2X2X2X2X2X2X%X9.'.2Xc I 2X2X2X2X2X2X2X2X2X2X2X2X2X2Xc 2X2X_.2X(.2X",
"2X2X2X2X2X=X2X2X2X2X2X2X2X2X2X2X2X2X2X2X2X2X2X2X2X2X2X2X2X2X2X2X2X2X2X2X2Xa.~.%X2X2Xt.< / 2X2X2X2X2X2X2X2X2X2X2X9.B.%.2X2X2X`.2X",
"2X2X2X2X2X2X1X2X2X2X2X2X2X2X2X2X2X2X2X2X2X2X2X2X2X2X2X2X2X2X2X2X2X2X2X2X2X2X2X2X2X2X2X].n.2X2X2X2X2X2X2X2X2X2XJ.f.j.Q 2X2X-X2X2X",
"2X2X2X2X2X2Xs 2X2X2X2X2X2X2X2X2X2X2X2X2X2X2X2X2X2X2X2X2X2X2X2X2X2X2X2X2X2X2X2X2X2X2X2X2X2X2X2X2X2X2X2X2X2X2X2X2X2X=X2X2X2X+X2X2X",
"2X2X2X2X2X2X&X2X2X2X2X2X2X2X2X2X2X2X2X2X2X2X2X2X2X2X2X2X2X2X2X2X2X2X2X2X2X2X2X2X2X2X2X2Xc.4.2X2X2X2X2X2X2X2X2X) = A m.2X2X2X0 2X",
"2X2X2X2X2X2X2X2X2X2X2X2X2X2X2X2X2X2X2X2X2X2X2X2X2X2X2X2X2X2X2X2X2X2X2X2X2X2X2X2X2X2X2X2X2X2X2X2X2X2X2X2X2X2X2X2X2X2X2X2X2X2XZ 2X",
"2X2X2X2X2X2X2X2X2X2X2X2X2X2X2X2X2X2X2X2X2X2X2X2X2X2X2X2X2X2X2X2X2X2X2X2X2X2X2X2X2X2X2X2X2X2X2X2X2X2X2X2X2X2X2X2X2X2X2X2X2X2X2X2X",
"2X2X2X2X2X2X2X2X2X2X2X2X2X2X2X2X2X1X2X2X2X2X2X2X2X2X2X2X2X2X2X2X2X2X2X2X2X2X2X2X2X2X2X2X2X2X2X2X2X2X2X2X2X&X2X2X2X2X2X2X2X2X2X2X",
"2X2X2X2X2X2X2X2X2X2X2X2X2X2X2X2X2X2X2X2X2X2X2X2X2X2X2X2X2X2X2X2X2X2X2X2X2X2X2X2X2X2X2X2X2X2X2X2X2X2X2X2X2X2X2X2X2X2X2X2X2X2X2X2X",
"2X2X2X2X2X2X2X2X2X2X2X2X2X2X2X2X2X2X2X2X2X2X2X2X2X2X2X2X2X2X2X2X2X2X2X2X2X2X2X2X2X2X2X2X2X2X2X2X2X2X2X2X2X2X2X2X2X2X2X2X2X2X2X2X",
"2X2X2X2X2X2X2X2X2X2X6.f 9 2X2X2X2X2X2X2X2X2X2X2X2X2X2X2X2X2X2X2X2X2X2X2X2X2X2X2X2X2X2X2X2X2X2XX.6 K 2X2X2X2X2X2X2X2X2X2X2X2X2X2X",
"2X2X2X2X2X2X2X2X2X2Xk 8 ; k.2X2X2X2X2X2X2X2X2X2X2X2X2X2X2X2X2X2X2X2X2X2X2X2X2X2X2X2X2X2X2X2X2Xe , 2 2X2X2X2X2X2X2X2X2X2X2X2X2X2X",
"2X2X2X2X2X2X2X2X2X2X2Xg.#X2X2X2X2X2X2X2X2X2X2X2X2X2X2X2X2X2X2X2X2X2X2X2X2X2X2X2X2X2X2X2X2X2X2X2X=.2X2X2X2X2X2X2X2X2X2X2X2X2X2X2X",
"2X2X2X2X2X2X2X2X2X2X2X2X2X2X2X2X2X2X2X2X2X2X2X2X2X2X2X2X2X2X2X2X2X2X2X2X2X2X2X2X2X2X2X2X2X2X2X2X2X2X2X2X2X2X2X2X2X2X2X2X2X2X2X2X",
"2X2X2X2X2X2X2X2X2X2X2X2X2X2X2X2X2X2X2X2X2X2X2X2X2X2X2X2X2X2X2X2X2X2X2X2X2X2X2X2X2X2X2X2X2X2X2X2X2X2X2X2X2X2X2X2X2X2X2X2X2X2X2X2X",
"2X2X2X2X2X2X2X2X2X2X2X2X2X2X2X2X2X2X2X2X2X2X2X2X2X2X2X2X2X2X2X2X2X2X2X2X2X2X2X2X2X2X2X2X2X2X2X2X2X2X2X2X2X2X2X2X2X2X2X2X2X2X2X2X",
"2X2X2X2X2X2X2X2X2X2X2X2X2X2X2X2X2X2X2X2X/.2X2X2Xy.2X2X2X2X2X2X2X2X2X2X2X2X2X2X2Xr.`.2X2X2X2X2X2X2X=Xt F.2X2X2X2X2X2X2X2X2X2X2X2X",
"2X2X2X2X2X2X2X2X2X2X2X2X2X2X2X2X2X2X2X2X).E.[ 2X2X,X,X2X2X2X2X2X2X2X2X2X2X2X2X2X~.2X2X2X2X2X2X2X2X,.;.2X2X2X2X2X2X2X2X2X2X2X2X2X",
"2X2X2X2X2X2X2X2X2X2X2X2X2X2X2X2X2X2X2X( S . $X2XB.& (.2X2X2X2X2X2X2X2X2X2X2X2X2X2X2X2X2X2X2X2X2XD ,X2X2X2X2X2X2X2X2X2X2X2X2X2X2X",
"2X2X2X2X2X2X2X2X2X2X2X2X2X2X2X2X2X2X<XF 2X2X2X2Xb.1X].2X2X2X2X2X2X2X2X2X2X2X2X2X2X2X2X2X2X2X2XY.5.1X_.oX2X1.2X2X2X2X2X2X2X2X2X2X",
"2X2X2X2X2X2X2X2X2X2X2X2X2X2X2X2X2X2X2X2X2X2X` 2X2X!.} 2X2X2X2X2X2X2X2X2X2X2X2X2XU._ @.2X2X2XJ z.] T 2X2X2X2X2X2X2X2X2X2X2X2X2X2X",
"2X2X2X2X2X2X2X2X2X2X2X2X2X2X2X2X2X2X2X2X2X2X].w v I.2X2X2X2X2X2X2X2X2X2X2X2X2X-X2X2Xb.2X2X2X2X2X2X2X2X,XK.2X2X2X2X2X2X2X2X2X2X2X",
"2X2X2X2X2X2X2X2X2X2X2X2X2X2X2X2X2X2X2Xr.2X2X2X1X2X2X2X2X2X2X2X2X2X2X2X2X2XV.a W 2X2X2X2X2X2Xa.d ~ m.2X2X2XB.2X2X2X2X2X2X2X2X2X2X",
"2X2X2X2X2X2X2X2X2X2X2X2X2X2X2X2X2X2X2X2X2X8.2X2X2X2X2X2X2X2X2X2X2X2X2X2X2X`.%X2X2Xl.2X2X2X2X/ x.2X2X2X2X1X# 2X2X2X2X2X2X2X2X2X2X",
"2X2X2X2X2X2X2X2X2X<X2X2X2X2X2X2X2X2X2X2X2X2X2X2X2X2X2X2X2X2X2X2X2X2X2X2X2X2X2X2X2X2X2X2X2X2X2X2X2X2X2X2X2X2X2X2X2X2X2X2X2X2X2X2X",
"2X2X2X2X2X2X2X2X2X{.- : 2X2X2X1XY 2X2X2X2X2X2X2X2X2X2X2X2X2X2X2X2X2X2X2X2X2X2X2X2X2X2X2X2X2X2X2X2X2X2X2X2X2X2X2X2X2X2X2X2X2X2X2X",
"2X2X2X2X2X2X2X2X2X2X2X2X*.<X2X|.:X2X2X2X2X2X2X2X2X2X2X2X2X2X2X2X2X2X2X2X2X2X2X2X2X2X2X2X2X2X2X2X2X2X2X2X2X2X2X2X2X2X2X2X2X2X2X2X",
"2X2X2X2X2X2X2X2X2X2X2X2X2X2X2X2XG.5.2X2X2X2X2X2X2X2X2X2X2X2X2X2X2X2X2X2X2X2X2X2X2X2X2X2X2X2X2X2X2X2X2X2X2X2X2X2X2X2X2X2X2X2X2X2X",
"2X2X2X2X2X2X2X2X2X2X2X<X2X2Xi 4 [.2X2X2X2X2X2X2X2X2X2X2X2X2X2X2X2X2X2X2X2X2X2X2X2X2X2X2X2X2X2X2X2X2X2X2X2X2X2X2XH.H XX2X2X2X2X2X",
"2X2X2X2X2X2X2X2X2X2X2Xh.&.XX+X>X2X2X2X2X2X2X2X2X2X2X2X2X2X2X2X2X2X2X2X2X2X2X2X2X2X2X2X2X2X2X2X2X2X2X2X2X2X2X2X2Xh 5 O 1X2X2X2X2X",
"2X2X2X2X2X2X2X2X2X2XG.g @ G 2X2X2X2X2X2X2X2X2X2X2X2X2X2X2X2X2X2X2X2X2X2X2X2X2X2X2X2X2X2X2X2X2X2X2X2X2X2X2X2X2X2Xz.M M.2X2X2X2X2X",
"2X2X2X2X2X2X2X2X2X2X2X2X! U  X2X2X2X2X2X2X2X2X2X2X2X2X2X2X2X2X2X2X2X2X2X2X2X2X2X2X2X2X2X2X2X2X2X2X2X2X2X2X2X2X2X2X2X2X2X2X2X2X2X",
"2X2X2X2X2X2X2X2X2X2X2X2X2X2X2X2X2X2X2X2X2X2X2X2X2X2X2X2X2X2X2X2X2X2X2X2X2X2X2X2X2X2X2X2X2X2X2X2X2X2X2X2X2X2X2X2X2X2X2X2X2X2X2X2X",
"2X2X2X2X2X2X2X2X2X2X2X2X2X2X2X2X2X2X2X2X2X2X2X2X2X2X2X2X2X2X2X2X2X2X2X2X2X2X2X2X2X2X2X2X2X2X2X2X2X2X2X2X2X2X2X2X2X2X2X2X2X2X2X2X",
"2X2X2X2X2X2X2X2X2X2X2X2X2X2X2X2X2X2X2X2X2X2X2X2X2X2X2X2X2X2X2X2X2X2X2X2X2X2X2X2X2X2X2X2X2X2X2X2X2X2X2X2X2X2X2X2X2X2X2X2X2X2X2X2X",
"2X2X2X2X2X2X2X2X2X2X2X2X2X2X2X}.E 2X2X2X2X2X2X2X2X2X2X2X2X2X2X2X2X2X2X2X2X2X2X2X2X2X2X2X2X2X2X2X2X2X2X2X2X2X2X2X2X2X2X2X2X2X2X2X",
"2X2X2X2X2X2X2X2X2X2X2X2X2X2XD.p.2X2X2X2X2X2X2X2X2X2X2X2X2X2X2X2X2X2X2X2X2X2X2X2X2X2X2X2X2X2X2X2X2X2X2X2X2X2X2X2X2X2X2X2X2X2X2X2X",
"2X2X2X2X2X2X2X2X2X2X2X2XA.P 1X2X2X2X2X2X2X2X2X2X2X2X2X2X2X2X2X2X2X2X2X2X2X2X2X2X2X2X2X2X2X2X2X2X2X2X2X2X2X2X2X2X2X2X2X2X2X2X2X2X",
"2X2X2X2X2X2X2X2X2X2X2X2X2Xo.j -X$X2X2X2X2X2X2X2X2X2X2X2X2X2X2X2X2X2X2X2X2X2X2X2X2X2X2X2X2X2X2X2X2X2X2X2X2X2X2X2X2X2X2X2X2X2X2X2X",
"2X2X2X2X2X2X2X2X2X2X2X2X2X2Xe.=X2X2X2X2X2X2X2X2X2X2X2X2X2X2X2X2X2X2X2X2X2X2X2X2X2X2X2X2X2X2X2X2X2X2X2X2X2X2X2X2X2X2X2X2X2X2X2X2X",
"2X2X2X2X2X2X2X2X2X2X2X/...2X2X2X2X2X2X2X2X2X2X2X2X2X2X2X2X2X2X2X2X2X2X2X2X2X2X2X2X2X2X2X2X2X2X2X2X2X2X2X2X2X2X2X2X2X2X2X2X2X2X2X",
"2X2X2X2X2X2X2X2X2X2X2X2X2X2X2X2X2X2X2X2X2X2X2X2X2X2X2X2X2X2X2X2X2X2X2X2X2X2X2X2X2X2X2X2X2X2X2X2X2X2X2X2X2X2X2X2X2X2X2X2X2X2X2X2X",
"2X2X2X2X2X2X2X2X2X2X2X2X2X2X2X2X2X2X2X2X2X2X2X2X2X2X2X2X2X2X2X2X2X2X2X2X2X2X2X2X2X2X2X2X2X2X2X2X2X2X2X2X2X2X2X2X2X2X2X2X2X2X2X2X",
"2X2X2X2X2X2X2X2X2X2X2X2X2X2X2X2X2X2X2X2X2X2X2X2X2X2X2X2X2X2X_.1X2X2X2X2X2X2X2X2X2X2X2X2X2X2X2X2X2X2X2X2X2X2X2X2X2X2X2X2X2X2X2X2X",
"2X2X2X2X2X2X2X2X2X2X2X2X2X2X2X2X2X2X2X2X2X2X2X2X2X2X2X2X2XT.V l #.2X2X2X2X2X2X2X2X2X2X2X2X2X2X2X2X2X2X2X2X2X2X2X2X3.B.1X2X2X2X2X",
"2X2X2X2X2X2X2X2X2X2X2X2X2X2X2X2X2X2X2X2X2X2X2X2X2X2X2X2X2X2X2X0.2X*X,XB 2X2X2X2X2X2X2X2X2X2X2X2X2X2X2X2X2X2X2X1X1 2X+.2Xs.Y.2X2X",
"2X2X2X2X2X2X2X2X2X2X2X2X2X2X2X2X2X2X2X2X2X2X2X2X2X2X2X2X2X2X7 q.2X1X2X2X2X2X2X2X2X2X2X2X2X2X2X2X2X2X2X2X2X2X2Xb.2X,XU.2XOX^ x 2X",
"2X2X2X2X2X2X2X2X2X2X2X2X2X2X2X2X2X2X2X2X2X2X2X2X2X2X2X2X2X> $ S.m C v.2X2X2X2X2X2X2X2X2X2X2X2X2X2X2X2X2X2X2X2X2X*X^.2X2X2XL 2X2X",
"2X2X2X2X2X2X2X2X2X2X2X2X2X2X2X2X2X2X2X2X2X2X2X2X2X2X2X2X.X;X7.2X2X2X2X2X2X2X2X2X2X2X2X2X2X2X2X2X2X2X2X2X2X2X2X2XF 2X2X2X2X2X2X2X",
"2X2X2X2X2X2X2X2X2X2X2X2X2X2X2X2X2X2X2X2X2X2X2X2X2X2X2X$.3 2X2X2X2X2X2X2X2X2X2X2X2X2X2X2X2X2X2X2X2X2X2X2X2X2X2X2X2X2X2X2X2X2X2X2X",
"2X2X2X2X2X2X2X2X2X2X2X2X2X2X2X2X2X2X2X2X2X2X2X2X2X2X2X%XL.2X2X2X2X2X2X2X2X2X2X2X2X2X2X2X2X2X2X2X2X2X2X2X2X2X2X2X2X2X2X2X2X2X2X2X"
};
