/* XPM */
static char *result[] = {
/* columns rows colors chars-per-pixel */
"64 64 55 1 ",
"  c #000004",
". c #0A0106",
"X c #01000B",
"o c #0A050C",
"O c #09090D",
"+ c #020112",
"@ c #0B0614",
"# c #0B0A13",
"$ c #02021A",
"% c #090619",
"& c #0B0B1C",
"* c #131116",
"= c #14131C",
"- c #1C141E",
"; c #19181C",
": c #0D0D24",
"> c #110E21",
", c #151423",
"< c #1A1624",
"1 c #1B1B25",
"2 c #13132B",
"3 c #1C1B2C",
"4 c #171731",
"5 c #1B1C30",
"6 c #211F22",
"7 c #201F2E",
"8 c #201F33",
"9 c #25242C",
"0 c #262630",
"q c #282735",
"w c #2C2C34",
"e c #29263A",
"r c #2E2D3B",
"t c #332931",
"y c #34323B",
"u c #38373C",
"i c #2C2D49",
"p c #333246",
"a c #3E3E4A",
"s c #3E3F53",
"d c #403E54",
"f c #3F4054",
"g c #434247",
"h c #49475C",
"j c #51515B",
"k c #5B5A62",
"l c #52526A",
"z c #595868",
"x c #565672",
"c c #75767B",
"v c #7C7C84",
"b c #7A778C",
"n c #7C7B8C",
"m c #777896",
"M c #9795AB",
/* pixels */
"X+XX XXXXXXX+XXX XXX++5+X            X         XXXXXXX+X++++    ",
"+XXXXXXXXXXXXXXXXXXXX+$+X   .     XX  X X       XXXX XXX+XXXX   ",
"+XXXX+XXXX   X XXXX+XX+XX         oXX      X y XXo    XXXXXX  X ",
"++XX++++X X X  X9+XX+X++OXX       XXXX    XXXXo+XX X     XX+XX X",
"XXX++%$+XX      1XXXXXXXXXX     XXX++XXX  XX++X++X      X+neXXX ",
"X+X+:$$+XXX    X XX  XX XX      XXXX++XXXXXX%+++XXXX X XX+8$+XX ",
"X+X++++++o                   XO  XXX++++X+XX%$+++X+XXX+XXX+XX   ",
"+XX+++++Xo          *        X     X++%+$X+Xe7++++++++XXX++X    ",
"++XXXoXXX.o.  .                    1X++++XXXXX+++++$++XXXX+XX   ",
"XXXXX XX <t.                   O   X++++++XXXXXXXXX+++XXX+++XX  ",
"XXX   X  oo .               XXX   XX+3+++++XXXXXXXXXXXXXX+$:XX  ",
"X    X9 .X ..              gjXX XXXX+$$+++XXXX9     X; XX+:l+   ",
"   X XvX X                 ckXXXXXX+++++++XXXXX         X+++XXX ",
"      X  .                 O XX&&XX+++XXXXXX X     ;  X XX++XX  ",
"X  X X       X 90X          X X+XXXXXXXXXXXXX X           XXXXX ",
"XXX  X        XXXXX         XXXXXXXXX XXXXXXXXXXXX      X  XXXXX",
"XX X  X         XX          XXoXXXX      XXXX19XXXX         X+&+",
"+XXXX X           X         ;X++XXX  X   XXXXXXXXXX         X+$+",
"XXXXXXX       XX  X         =++XXXX  XX XXX++XXX            XX$+",
"+XXXXXXXX     oXX  X      X XXX+XX X XXXXX+++XXX            X++%",
"XXXXr+XX   XX+zrXXXXX1X      OXXXXX XXXX+<o++XX             XX++",
"XXXX#+XXXXX XXr&XXXXXXXXX   XXXXX    XXo@@XXXXX             XX++",
"XXXX+++XX    XXXXXXX XX     X X    X.X.@-@XX X              XX+X",
"XXXX++++XX    XXXXXXXX   X  X X         o.               X XXXXX",
"  y.++o+XX    XX+XXXX                  ..               X X XXX.",
"  XXXXXXX X X XXX++XXX     X        X                   XXXX XXX",
"   .XXXXX      XX+X+XXXX X  X XXXXXy.O*       .       X      X  ",
"    XoX  X  X  XXX+XXXXXX    XXXXXXXX              X            ",
"    o           XXX+X+XXX  XXO++XXX X0      X66X  X  X          ",
"        O       XXXXXXXXXXXXXX+XXXX XX     XXXX                 ",
"      .           XXXXXXX    XX X        XXXXX                  ",
"                   XXXXXX                  XXX               X  ",
"                  XX+X+XXX                  .X                XX",
" XXXX            XXO++XXXXX             X X              .    XX",
"XXXXXX          XX+++++X                XX<9  X           X  XXX",
"+++XXXX        XXX++$+XX   O# XX    XXXXXX    *X       X XXX XXX",
"XX+X+XXX X=+XXXX3+$$++X    XXXXXXXXXX=XX+XX. XXnXXXX    X+XXXX+X",
"X X+XXXXXX+%%XX+$2x$+XX    XXX++XXXX++XXXXX XX+rXXXXX   oX++oXX+",
"  XX+XXX+++:++X+$im4+X      X+$$++X++++XXX  X=X+++oX  XXXXXXXXX+",
"   XXXXX++$$+++++$2$XX      o++$++++++++XXXXXXXXX+X+X XXXXXXXX+X",
"    X+X+$$$:+++X++XXXX       ++$$++$$+++XXXX7XX+++XX   XX XX XXX",
"O XXXXX++4:$+++XXXXX=       XX+$$$$+++++X+X+1+++++XX    ##. XXXX",
"u  X+XX++$+$$+XXXX       .  X9%$$$$$+++XXXX+X++$++X  X  O*  XXXX",
"  X#7+XX++o++X+X            +++++$$$++X+XXXX+>+++$X X    X XXXXX",
"Xo+XXXXX+<XXXXXXX     X     XXXX++$$+XXX  XXXXX+XXXXXX X  XXXXXX",
"XXX+XXXXX.XX X#O      X  O  XXXX++$++XXX    X,XX+XXXXX    XX+++X",
"XX+XXX    X   ##X  XX X      OXXX+++++XX     XX++XX  .    XXX++X",
"XX+X.          XXXXX XX        XXXX++XXXX   XXX+XXX        X++++",
"+++X            XXXX X     X   XXXX+++43X    X+++XX       XXX+++",
"++&+X            X X XXXX 9   X XX+XXXf3X   XXo++XX         XX++",
"+++X         #      X XXX  X X  XX+XXXX+XX   X+$+XX         X+++",
"$++X                 XXXXXX XXXX+XXX+X+XXX   XX++XXX         XX+",
"+++X                XXX++XX XXXXX+XXX+++++X  XX++XXX        XOXX",
"++XX                XX+++XXXXXXX+++XX+2&s,XX  X+XXXX         X X",
"X++XX             XXXX&p++X   XXX+XXXX+gMb#X XXX+XX           X ",
"X+qa     O6       XXXX+++XX   XXX++XXX+%hpX   XXXX              ",
"oXXX               XXXXXXX    XX++XXX XXXXX   X+XX     OO       ",
"XX                 ;;XXXX    XXXXXXXXX XX    X+1+XX             ",
"   X         X            O  XXX+XXXXXXXX  ;  X++X              ",
"            XOXX       X    XXXXXXXXwX      XXXXX     XX  X     ",
"     XXX XXXXOXX            XXXXXX  rX X    XXXXXX  XXX%XXXO    ",
"     XX XXXXX+X              X X X   XX     #yX X    X&%++.     ",
"         XX+X X                               X     XXXXXX      ",
"          XXXX                                      XXX++X      "
};
