/* XPM */
static char *result[] = {
/* columns rows colors chars-per-pixel */
"64 64 122 2 ",
"   c #2D4A0A",
".  c #334D0E",
"X  c #2F5605",
"o  c #27570F",
"O  c #2D550C",
"+  c #335700",
"@  c #375E01",
"#  c #34540E",
"$  c #39550D",
"%  c #345B0F",
"&  c #3B5C0E",
"*  c #2C4914",
"=  c #354D12",
"-  c #3A4D14",
";  c #3B4F18",
":  c #2E5512",
">  c #2E5A14",
",  c #2D5418",
"<  c #345513",
"1  c #3A5514",
"2  c #355B14",
"3  c #3B5C15",
"4  c #355419",
"5  c #3B561A",
"6  c #365C1A",
"7  c #3C5C1A",
"8  c #386603",
"9  c #36610E",
"0  c #3A630E",
"q  c #2F6114",
"w  c #356215",
"e  c #3C6315",
"r  c #376915",
"t  c #3D6B16",
"y  c #366219",
"u  c #3D631A",
"i  c #3D691B",
"p  c #3D5D21",
"a  c #3D6221",
"s  c #3E6A20",
"d  c #434F1B",
"f  c #53441C",
"g  c #51491F",
"h  c #425615",
"j  c #425D16",
"k  c #495D15",
"l  c #42551C",
"z  c #425D1B",
"x  c #4A5C1C",
"c  c #505E1E",
"v  c #40620A",
"b  c #426315",
"n  c #4C6717",
"m  c #426A16",
"M  c #4B6C15",
"N  c #43631C",
"B  c #49651D",
"V  c #446A1C",
"C  c #4B6B1D",
"Z  c #51621F",
"A  c #536D1C",
"S  c #45721C",
"D  c #4C721C",
"F  c #51721B",
"G  c #587E1E",
"H  c #574D21",
"J  c #445D21",
"K  c #4B5D22",
"L  c #4C5F28",
"P  c #555624",
"I  c #5D5122",
"U  c #535D23",
"Y  c #625E27",
"T  c #446421",
"R  c #4A6523",
"E  c #456A22",
"W  c #4B6B23",
"Q  c #476728",
"!  c #4D6529",
"~  c #476A29",
"^  c #4D6B29",
"/  c #516422",
"(  c #526C25",
")  c #5A6D24",
"_  c #52642B",
"`  c #5E632B",
"'  c #536C2B",
"]  c #5A6E2C",
"[  c #467121",
"{  c #4C7223",
"}  c #4D7229",
"|  c #527225",
" . c #587825",
".. c #54722B",
"X. c #5A722C",
"o. c #5D782E",
"O. c #4F6E32",
"+. c #576532",
"@. c #586632",
"#. c #546D33",
"$. c #5A6D31",
"%. c #5C6D3B",
"&. c #577335",
"*. c #5B7332",
"=. c #5C733C",
"-. c #626B2C",
";. c #6A6E2C",
":. c #617535",
">. c #617C34",
",. c #62733A",
"<. c #6B763F",
"1. c #647B3C",
"2. c #5A7643",
"3. c #637640",
"4. c #647C43",
"5. c #6A7F42",
"6. c #6B7F4A",
"7. c #6A802B",
"8. c #69893C",
"9. c #758A4E",
"0. c #728557",
"q. c #7F8C54",
/* pixels */
"b T E E N 3 6 z 5 N a 2 C E z u 2 4 < 2 # b 6 z T u u j R T < $ u u | N ^ 2 2 V i V m u u 2 b j 0 e 1 & 5 T Q z 3 N T u V R : 3 ",
"V V u u S { e u n 2 u N C E s V 1 6 e # z i 3 p W e 7 < e ( ! 7 N 7 Z ! R 2 e 7 b u w S V > 3 j < 1 1 2 3 T R z s V $ e V b n B ",
"i [ m N W j N u 7 1 W C ! N e 6 V J 7 z ! T 2 6 x 3 N V e u N ^ 6 e < b a e e 1 e e b b V 2 m e > 2 $ 2 z R z W u u b M b $ n A ",
"N N V N E e n W 3 7 z B W N b 3 j T T ^ E =.{ b 2 y u w J R e e 5 T 1 7 T B u 3 u y u u b V V V e 3 6 y 3 e 2 N ! V M F ..B x B ",
"' W W G M W ( ^ b b V Q h   1 i 7 N 7 u y z < 7 a u ( r V ..t C 2 N E C T 6 t e r w < 3 $ 7 V b 2 1 7 7 > 7 u T B u M ( F ) A R ",
"3 b D V N B j J L e V ' W ( ( 3 5 e u 7 3 e _ e u u E u < ' T u 3 e N V E T u M b { e 1 6 3 6 3 7 u 1 < 3 6 u j h 3 A x B B B A ",
"u W V 7 i i V 5 h u 6 x J u 5 ( N 7 S b 2 6 ^ 3 N V 3 3 $ < B j b ' ,.5 3 ) z 2 b ^ m N V 1 b $ u j = T u > b 2 V W V A u R U k ",
"7 W B b &.T B e b = R ! d 3 N | / N 3 V V 3 7 J 3 j < 6 { 2 < 2 z Q E e N 6 7 < 3 V W D V ; e B 4 J Q ! N b < 1 z B 7 B B Z m 7 ",
"j z u B N 7 N C C e B ^ 5 z ~ e B B w N V e B E 6 3 b 3 T u 6 1 3 u 7 7 u 3 C { u B ( W 1 e b N e e T V j V e 2 N ( X.( B V B u ",
"u 5 # 3 6 q # T T O u W t m 2 e e e e 6 N T 2 b 2 7 7 6 6 V 7 n m 2 V D u e E R J ! 7 k V 2 b u e V 2 e N V m V e W T 7 ! j z V ",
"7 u 7 j N T i T u 2 w u V b t V y 2 3 2 < z < z M j b u y u R 6 y 2 z V u e e e W | z j e 3 1 V B N r { W 6 5 z e e 7 { } 7 N 3 ",
"u 2 E 7 E ! N u 3 m e 3 w u 3 D N % V T 2 2 < 3 W N 1 6 7 < z u 2 e 7 7 3 3 6 m w N [ N R D W h b N 3 N x N x R 7 7 m 2 C C j C ",
"i 7 R C ! 3 6 3 2 3 3 h e r V j B V u b 5 J 4 1 - $ e j V V u i 7 3 r 3 e e 6 u 7 l j S Q W | r u N V V N e j e b 2 u 7 l b V ! ",
"B i 2 5 p b Q b N N N e w 6 2 u 3 b r 3 5 J 4 # 1 < < V B 6 u C 2 y e u j N < : B u C M W 7 N e u N V V 9 V w 3 j 2 2 B u n M T ",
"T u V 3 w u 1 e V > e m t V 1 < < 6 R J n 5 3 1 B ! 7 u 1 u V N e > 6 7 ! b j z e i e 2 u B b n V | j b a u e C e z 3 e V 3 e u ",
"4 6 z j E C 3 u h X.N t N { u N u 3 V B 3 $ N u 2 u u 3 S C e 6 * u 2 T W 2 b i q b e V V b u w d C e e y e 1 7 u b e r e e V V ",
"7 N V 7 N l T E E z 4 < b W V D z 1 b w e 2 , u w 2 u b Q Q ! V E j < N z V N { _ z z u C N u b n { W m 6 7 e C ! e ( L N 7 b C ",
"Q 7 j N z u N ^ 2 z E u < T | V 7 3 u a u w u j j i r 7 R V E T N j 1 6 C 6 2 z ! z W b j 7 e t C y 3 e V n u V 6 2 T W z C j j ",
"7 < z e e t e e 7 N 2 3 3 1 3 5 3 w z T 2 R N N N N z u u & t e e e V m i $ w ' e e y e N V 3 N u N e V 3 E E B e B b F N 4 p 6 ",
"N N 2 E V m V { y 1 T 6 3 N W B < 3 u T B B 6 B 6 3 % e m N B w C W u e N 6 2 B S V e r y 2 j z T 7 3 5 u T B j V a 2 C E J u 6 ",
"7 V r B n u b E V T N B R 7 ^ E u ^ N B n z < < e 3 V B z z V w V B 7 7 J 7 e 3 e e 2 [ n < y 2 5 e < < 7 N C e 6 u W E Q u S 6 ",
"w 6 T h u u j V W ! R 4 1 6 3 7 u 7 u 6 e # z b 7 V 7 e 7 b N b N R u x b u 3 3 e e V b V e u 3 2 7 7 7 z 3 a 3 # ( B W V 3 3 B ",
"r _ R p < e u 6 E e V t 4 6 u z j 7 3 j u 7 2 u T E 2 u t 7 2 V V 2 b i # B b 3 e y 7 e b V y N u j 7 3 V 3 B A 3 j N B 5 7 e j ",
"6 B E 6 7 # p e N z 5 W ( B h V C e 6 1 T W z R ^ ^ u u n e | V V u V 2 i w e b w e 6 < # 7 u u j 6 3 e N N 5 ! u V ! z < j u 7 ",
"T j e m :.! w u 6 e ! ! u ' W j b u b < 6 < J V u 7 < 3 r x R N & i 6 e j ( N M b | e z 3 e 7 z 3 2 W 2 < 6 $ u u V ^ W W W x 5 ",
"1 2 M B Q _ e 6 1 u 3 j { E u e N N V ~ < ..Q < N 7 1 j m h C [ m u e 2 3 ( z : V E V i T < n ! y 3 B u N u 3 x 7 7 x x 3 5 | B ",
"7 u t r b R V m T T b T B *.C b 7 N u R u ' ' z u u V 5 e D V B e u j V E z u 6 3 B ( S N 1 k W b x 3 R j R u N = R ! d 7 W { R ",
"V T y e z V u j u < ( E 2 b V z 2 < 2 e ( u ! V B j u b u 3 e w e V i 2 3 z e e u N ( W z y u N u 3 7 b u 3 V u u u 7 5 a Q z j ",
"C V 4 T 7 3 V B 3 6 z 3 3 4 < 6 3 7 u V T z ! T h V 2 3 e 7 < T b b e { 7 1 3 u B 1 z ! T 3 u 2 T 6 C e 4 C S y h < N 5 3 i u j ",
"V z V ] | *.1.1 B B N j n E T 7 e e e u e V { W 7 b b 1 u C r C { t b ( i 2 z T E 4.e @.4.e 2 u N R 2 w 2 z u N 1 h V 1 6 N W u ",
"l ( _ T E #.+.X K z 3 7 7 j 2 e V 1 3 7 u e 3 C N R C  .3 o V 3 N b 3 V W u 4 X.1.' #.*.:.T e 7 2 B u 1 e e 3 3 z 2 u e e 7 u e ",
"3 ' ^ %.b ..M i z E 6 u 3 N T | e y j 2 r z z h S T Q | t Q K z 7 u u 7 W b 5 $.,.,.%.' ] 5 W V V y i 7 e u e e E V i V u y < < ",
"V W 9.8.4.W E o.*.% 5 W C 7 7 | N 3 k 7 < b V V b C 7 7 6 z ^ p , # 6 6 V 7 ( ^ ] _ ) ] K x B 7 < b E 2 w 2 u J T V w V s 7 2 r ",
"C V ' >.1.W W | W b ^ R b N Q 7 z 7 2 7 z w m e e 7 C e T V e e X.z 7 V u u o...q.=.z ) ( a 1 u V V 7 2 2 6 z W 3 3 3 3 N i 3 u ",
"e ' V $ %.1.N B 9 u 3 < & . 5 $ E W 7 b m w 3 7 N C N 6 3 1 b C ^ $.w 6 3 7 x W ! :.R 1 ^ N V [ C u 4 4 u w T B 1 3 u 2 2 N u e ",
"e W C b i { ! B ] 7 5 6 # 7 z ( T ] T u B ' x B e V B 7 7 3 t i N R B t 7 7 p ' B N T T z N C E ~ ! E V 1 6 N N N N T W 3 N u e ",
"V b T 7 N B T ! W N 7 3 u V V ^ u Q u 6 7 T x C C N 3 7 i p u u 7 N e N C B 1 $ N V B 7 N b u T u V R 3 j < 7 C m e V 7 V N w V ",
"b Q ~ E j 6 3 z 1 e 3 1 u 9 b % i 2 h 3 e T N R E 3 7 7 z E T 2 V 7 V E W B T E T 2 2 w 6 3 3 j t t E 3 L b 7 E 3 7 3 1 % w i e ",
"N e 3 e ( e 6 B N t B 2 V | m m { V T J u b b R 3 5 7 E j 7 7 5 < z u R j u p ~ N N =.{ u T M j 2 % 1 $ 6 u Q 7 b N i y j ^ j < ",
"E u & V 3 b A j 7 7 w s b B 7 3 V C u E ! 7 7 W n z z R 2 5 u 1 < j e C N Q 6 u N J ^ ' O.u b j 6 2 1 < 5 ! R B 7 u V 2 R ! E z ",
"2 V M D n j n n K V y z x 7 i e u W J 7 N W B E E C N b e 3 3 u 5 z 3 u 7 N V E x j 8 B ^ T e e % 2 < y 7 B j B 7 u 7 B : o V z ",
"' m C  .' ( x B B 3 N _ T 4 < u 4 N V y N z A E j C u e N u 3 j 2 V N b ) N z ~ 7 N / @ ^ O.e V u 1 7 u < 2 2 u 3 C W b V W 0 W ",
"1 e n A A A M ' z 7 N V 6 T 1 6 T e V B z z R C W b V 3 7 7 6 7 e j z < T E 7 a 4.^ ! %.6 e 3 u w 3 6 4 2 b N T 3 u 7 | V N B j ",
"C B A z b B Z Z 7 7 x 0 V ..*.7 u 6 T 3 _ J u h 7 n W z z N 2 T 3 < 6 & j ( R #.R + 2.0.,.e e $ u u < 3 7 : u 3 3 2 1 6 : &.X.e ",
"B B b C T / x 1 ( N 2 N C V ! R y 6 N u W 5 j J 3 N T B ( y b N V C J u z ( B 3 =.^ o ^ R #.T e 6 z 5 Q N 7 3 3 V 3 z Q 7 T 2 = ",
"T R R W N n N V E N 7 y y 3 z N m V T z 7 z z E ( J 6 3 C 0 k 2 R 7 b V V 7 u 2 5 R u 3 u #.T N 7 J ! ! 7 7 2 $ C 3 V W ! b 3 3 ",
"N ^ E 3 u e 2 N 2 r C V D 7 4 4 3 e N V 7 7 V a E u # T a &.] 3 5 7 u < 3 V { V 5 b V B V b 3 u V C n 5 6 p 2 e N < 7 3 r b r w ",
"# $ R 1 b N 7 b 7 V T 2 n E J u 6 < 7 V 6 2 u B w 7 3 V ~ 9.| e 5 3 b 7 h N Q 7   N 2 W V ' B E e b E T z u < 4 u N < V B M m E ",
"e 2 2 2 1 W V 3 u 2 6 T E E V C 1 2 V N u W b | W E *.{ V b _ ! *.3.b ( N 2 ! W R b z N _ R 3 6 3 Q C [ r V < r e B i V | e e V ",
"V 1 < 3 5 z z 1 1 1 ( E W N e 6 E J 7 } T R W | | ;.` Q 2 ! c ( =.5.6.5.$ t e e ^ p y < 3 a 6 z ( B W e u 7 ! 5 w : a j 7 N 3 V ",
"b 3 J 4 = . # 2 b z j B W j 7 e j E N R U Y ;.7.;.f x V 3 h c ' ' v 1.3.j 1 _ 7 e 4 N b 1 V a j b W R 7 j 3 B T 0 W L z 6 3 e 6 ",
"5 5 7 p 1 3 N 1 3 b T E z   3 u 7 z N ] -.I f g H B ..' 3 V $.K 3.#.3 K W r ' C V e e B C R u b T R . . u u u z 6 7 W a 7 # 6 7 ",
"N R j 3 3 j Q u y u V ' R ( ( j 5 e N K x / / P -.B V ~ 2 z @.<._ L +.x N # T ( 3 N 6 V u V u u Q ..C | T h 1 t T T e 3 .._ 6 E ",
"b 3 : e u 6 2 u 3 7 7 z J e 5 ( J e S N z b V C ( e 2 N b 5 K L &.b _ T e 3 O z B 7 T :.! 1 u 6 j z z 7 J | - S 3 $ b D W ' b y ",
"2 i e , 7 e e e N = R ! d 7 N { / J N u V T j % C W 7 7 3 N 3 N ^ B V 3 j ^ i : 2 3 N Q m N 6 - ' K l 7 W { / 6 j 7 r i u R R b ",
"! y 2 T V j e w e j / T 3 u } b B 6 7 T V V 7 6 < u 6 5 u 1 1 2 T N ! e E u B u 7 < u 7 N T C e T 5 5 E R 7 W E r R u w 7 u w u ",
"z t t V 1 J N N B 2 z z 2 1 $ < 2 3 z 6 6 $ 3 3 x 5 w j 7 2 z 3 7 T 6 z ..V 7 1 < b 2 2 < W z 5 3 N 6 7 V 2 Q X.w 3 B b 3 b 3 z ",
"j # 2 1 < 6 a W p N b z N T T 7 3 e 7 N E N N ^ } 7 6 E 1 j N = 2 V C e 7 6 e 3 z 2 E V E 7 j 1 b j = e E T e 6 w < 5 7 4 C B 3 ",
"& < 2 1 1 3 ! x _ 7 7 u 7 b 7 w E # J ! z T 1 N R u T W h 7 N e y 7 T e W E e u B u Q R i 3 N 6 3 V 6 e 7 u 3 E W e 2 2 1 N W 3 ",
"e w 2 < y 7 V 3 N V 3 7 3 u V ^ e u 3 E u = 6 3 3 e 6 7 C i u V u y < < x V u p B ^ N 7 4 3 7 C i u V e 7 < 1 x B 2 z 5 1 ; = 3 ",
"N u 1 u u < 2 2 u j < W B j u ..z j j 6 m B 6 2 7 n j 7 E N r V u 7 6 2 7 B N r < p 1 W B b N E u e C u 6 w < u u $ z 7 = < < 1 ",
"e 3 7 6 < 6 b z T j ^ ! b N E u 3 3 u z ! ( ' ' 7 C N u 3 7 2 N i i 3 u 3 N a V N 1 u u 2 t N 2 7 6 B r u e e b K T z 6 3 1 ^ z ",
"$ u N < 3 3 o e 2 b N < < 1 z 5 E Q 6 b R B V E j 3 e u 3 3 u : 3 i e b V 6 4 7 z b E N 3 7 z 3 j 2 : u t 7 u B B N 1 3 V 6 u u ",
"u 4 x 5 Q B b 3 u 1 < 3 $ 3 5 j u ( h e 1 T } | m N E N z V R N 7 N t u ] 2 7 B j T B T a E J b E R N 7 n r E ' 2 y 6 > 1 w q 6 "
};
