/* XPM */
static char *result[] = {
/* columns rows colors chars-per-pixel */
"64 64 210 2 ",
"   c #5C0A00",
".  c #4D1D00",
"X  c #5A1400",
"o  c #571B00",
"O  c #5F2504",
"+  c #5E2903",
"@  c #5D2C0B",
"#  c #5C2A13",
"$  c #5E2E1C",
"%  c #5C3115",
"&  c #5E311E",
"*  c #652707",
"=  c #6B2D02",
"-  c #773200",
";  c #642D15",
":  c #6A2B16",
">  c #642E1B",
",  c #623015",
"<  c #6C3115",
"1  c #64321C",
"2  c #6A351C",
"3  c #6B3A1F",
"4  c #75381D",
"5  c #5F2F21",
"6  c #5C2D28",
"7  c #5E3121",
"8  c #5D3129",
"9  c #632F20",
"0  c #633423",
"q  c #6A3623",
"w  c #653925",
"e  c #6C3A25",
"r  c #62362B",
"t  c #68372D",
"y  c #653C2C",
"u  c #6A3D2C",
"i  c #753C24",
"p  c #793A24",
"a  c #7A3A26",
"s  c #733D29",
"d  c #653E32",
"f  c #643A37",
"g  c #6B3D32",
"h  c #713F33",
"j  c #5B4037",
"k  c #66412C",
"l  c #6B412D",
"z  c #76442F",
"x  c #7D432A",
"c  c #7D4429",
"v  c #674333",
"b  c #6C4232",
"n  c #6C4936",
"m  c #6C4639",
"M  c #6E4B3B",
"N  c #734534",
"B  c #7B4431",
"V  c #744A36",
"C  c #7D4C34",
"Z  c #73463A",
"A  c #734C3C",
"S  c #7A4E3A",
"D  c #75513C",
"F  c #78523B",
"G  c #6E4A42",
"H  c #734E41",
"J  c #794E43",
"K  c #704E48",
"L  c #765343",
"P  c #7A5444",
"I  c #7B5A46",
"U  c #7C5649",
"Y  c #7D5B4B",
"T  c #7D5B51",
"R  c #813C26",
"E  c #843F29",
"W  c #88411E",
"Q  c #814625",
"!  c #82452D",
"~  c #8C462B",
"^  c #84492E",
"/  c #944C2E",
"(  c #96512E",
")  c #854631",
"_  c #844933",
"`  c #874A37",
"'  c #8A4B33",
"]  c #944E33",
"[  c #984E31",
"{  c #8E5336",
"}  c #81513D",
"|  c #8B543C",
" . c #975237",
".. c #9D5334",
"X. c #95553C",
"o. c #9B553B",
"O. c #95593E",
"+. c #9D5B3D",
"@. c #A75427",
"#. c #A35535",
"$. c #AB5632",
"%. c #A45A36",
"&. c #AC5A36",
"*. c #A3573C",
"=. c #AB5739",
"-. c #A55C3D",
";. c #AC5E3E",
":. c #B05A35",
">. c #B15D3D",
",. c #9B603B",
"<. c #A6613D",
"1. c #AC603D",
"2. c #B2613E",
"3. c #B9633F",
"4. c #825446",
"5. c #8C5642",
"6. c #805A44",
"7. c #8D5942",
"8. c #825B4C",
"9. c #955642",
"0. c #9E5540",
"q. c #915943",
"w. c #9D5D43",
"e. c #925C4A",
"r. c #9E5D4A",
"t. c #815D52",
"y. c #9D5D51",
"u. c #A45C44",
"i. c #AC5E41",
"p. c #A15D49",
"a. c #B25D41",
"s. c #A05C51",
"d. c #8E6046",
"f. c #9B6346",
"g. c #976148",
"h. c #9B624A",
"j. c #8A6656",
"k. c #86675D",
"l. c #8E685A",
"z. c #976855",
"x. c #A36145",
"c. c #AC6243",
"v. c #A5644B",
"b. c #AC6549",
"n. c #AB694A",
"m. c #AD6A4E",
"M. c #B36343",
"N. c #B96543",
"B. c #B56946",
"V. c #BC6B46",
"C. c #B4654A",
"Z. c #BA6549",
"A. c #B46A4B",
"S. c #BC6B4A",
"D. c #BE704E",
"F. c #A46252",
"G. c #A96A55",
"H. c #B26A52",
"J. c #B96D52",
"K. c #AA745F",
"L. c #BD7252",
"P. c #B3715D",
"I. c #BB745C",
"U. c #8A7065",
"Y. c #9A7564",
"T. c #997B6D",
"R. c #A57C69",
"E. c #C16945",
"W. c #C16C4B",
"Q. c #C2714E",
"!. c #CA744E",
"~. c #C16F51",
"^. c #C37353",
"/. c #CA7353",
"(. c #C57854",
"). c #CC7A55",
"_. c #C27658",
"`. c #CB7659",
"'. c #C57A58",
"]. c #CB7A59",
"[. c #D17B55",
"{. c #9C8479",
"}. c #AB816E",
"|. c #B4826D",
" X c #A48474",
".X c #AB8271",
"XX c #A78B76",
"oX c #AA8975",
"OX c #A1847A",
"+X c #AB8778",
"@X c #A38A7D",
"#X c #AA897B",
"$X c #B78A77",
"%X c #A98C81",
"&X c #AB9485",
"*X c #B49383",
"=X c #B89587",
"-X c #B3998B",
";X c #BB9B8C",
":X c #B59C92",
">X c #BBA295",
",X c #BAA599",
"<X c #BDB09E",
"1X c #BDADA3",
"2X c #BFB0A4",
"3X c #C19F91",
"4X c #C2A296",
"5X c #C2AB9E",
"6X c #C4ADA3",
"7X c #C2B1A1",
/* pixels */
"r.i.u.i.u.i.u.x.;.u.u.u.u.X.q L 8.Z B X.0.p.u.u.u.u.i.u.u.i.u.u.u.i.i.u.u.u.u.u.u.u.*.` u P T V _ r.u.p.u.1.u.;.-.x.i.u.u.;.u.y.",
"+.a.;.;.1.;.&.1.&.;.>.>.>.J.x A A x C.a.;.;.;.a.>.;.;.i.;.>.i.i.;.;.;.;.i.a.a.>.;.>.>.M.q.i I z b.a.>.;.;.1.1.1.2.;.1.i.u.>.;.s.",
"w.;.i.;.b.a p u.c.i.c.;.&.A.) M s c.M.;.;.;.;.;.;.;.i.i.i.;.c.>.a.;.;.;.;.i.=.i.;.;.;.1.S.x L V c.;.;.;.;.i.;.i.;.i.;.>.i.;.;.p.",
"p.;.;.;.b.X.] -.2...i %.1.S.) m u C.M.;.;.;.>.;.>.;.;.i.;.;.;.i.;.;.;.i.;.i.i.i.i.>.i.-.S.' M N a.>.i.;.;.;.1.i.;.;.i.;.1.i.>.p.",
"p.&.i.i.i.M.M.;.M.w.i ..x.S.` m i A.M.;.;.;.i.;.>.a.a.;.i.;.;.;.i.1.;.;.i.;./ *.1.;.i.&.S.` M V M.;.i.;.2.;.=.1.i.;.i.;.i.1.>.r.",
"u.;.i.i.;.;.;.;.i.M.n.2.&.S.^ m u A.M.;.1.u.-.;.;.;.i.>.1.i.i.i.i.;.;.;.;.i.-.;.1.>.i.&.W.` V V M.1.i.;.;.=.[ c.;.i.;.>.1.u.;.p.",
"p.1.;.1.;.;.;.1.;.>.;.>.1.V.^ M s A.a.;.M...4 ;.i.i.;.i.i.i.;.1.;.;.;.i.;.;.i.c.;.>.i.&.S.' M V M.;.;.;.;.;.;.i.;.i.;.;.;.;.>.u.",
"p.&.i.>.;.;.;.;.>.;.x.1.&.A.) m s m.M.;.;.c.*.u.;.;.i.;.;.;.i.;.i.;.;.;.i.i.;.i.i.;.i.1.Q.` V S i.>.i.;.;.;.;.;.i.;.i.;.1.c.;.r.",
"p.;.i.>.;.i.i.;.>.;.c.;.&.S._ M u A.M.&.;.i.c.c.i.u.-.-.;.i.;.i.1.;.;.;.i.;.i.i.;.;.i.;.W.! Y.j.;.c.c.;.;.i.;.;.;.;.;.>.c.;.;.r.",
"u.>.i.i.i.;.i.;.;.i.:.x.;.S._ v s C.M.;.i.>.#.Q -.i.i  .c.;.;.;.i.;.;.;.;.;.;.1.;.i.;.;.S.Q OXl.=.-.` -.;.;.i.;.;.c.i.i.;.;.;.u.",
"u.&.i.;.;.i.i.;.i.;.;.1.1.S.C b i n.M.;.i.M.-.' -.M.u.<.;.1.;.;.c.-.;.;.;.;.c.1.;.i.;.;.Q.Q {.l.c.+.: ] c.;.#.;.;.;.;.>.c.;.a.p.",
"u.;.i.c.;.;.;.i.i.i.>.;.&.S._ N z A.N.;.i.i.c.c.;.;.;.c.;.c.c.;.1.;.i.i.c.;.;.c.;.i.;.:.Q.c  Xj.;.M.p.;.;.;...;.;.i.i.>.;.i.;.x.",
"w.1.i.;.;.i.;.;.i.;.;.;.;.S.^ Z u n.^.>.;.=.=.;.;.&.&.;.&.;.;.=.=.&.;.&.&.;.=.&.=.;.&.S.].i  Xj.&.2.i.;.;.;.i.;.i.;.;.;.;.c.;.u.",
"p.&.i.i.;.;.;.i.i.i.&.c.-.V._ m t { ]./.W.V.S.S.V.V.S.V.V.V.S.V.S.S.V.S.S.S.E.V.S.E.Q.[.J.+ {.j.:.1.;.;.;.;.;.;.;.;.i.>.-.1.;.r.",
"u.2.a.>.c.2.c.1.1.a.>.1.M.~.c Z b < #.Q.].).).`.].).`.).).).).).).).).).).).).).).).(.M.E # %Xj.c.B.i.>.;.1.c.2.1.>.1.>.2.c.>.p.",
"v.n.M.b.M.n.M.M.b.M.M.c.A.o.2 A S 0 1 z _ ^ ^ _ ) ^ ) ^ ^ ^ ^ ^ ^ ^ ^ ^ ^ ^ ^ ^ ) _ ) q o Y ,Xj.^ A.b.M.C.b.M.b.b.M.b.C.c.b.M.F.",
"r w e q q e q q e q q q 2 0 r A Y M y 0 ; > > 9 0 $ 7 7 > 9 0 9 9 9 > 0 9 > > > , , 1 % P -X5Xt.X 2 2 2 < < q e q q e q q t 2 f ",
"r w t w t w t t u w t q w e l I Y Y P H S L J A S A A A M H A H G A H M A H H H H K m U.,X6X<X&XH d b g n A w e y e w e e w 2 f ",
"e.,.u.w.w.w.-.w.w.w.w.w.w.u.x.| S Y Y Y 8.I D d.h.h.r.h.h.f.f.f.f.f.f.g.h.f.f.f.w.h.w.K.$X$XoX X-X>X:X>X=XR.z.w.+.-.f.w.+.w.-.e.",
"w.1.c.1.1.c.1.;.1.;.;.i.i.1.M.H.{ e P Y D i x.A.i.i.i.a.a.a.a.a.a.a.a.a.a.a.a.i.>.;.>.&.$.>.M.o.J -X7X-Xe.n.c.1.;.;.1.i.1.c.i.p.",
"r...u.>.;.;.;.>.;.;.>.;.i.;.;.N.J.i b 4.w X.^.=.;.;.&.;.;.i.1.;.;.i.;.;.c.;.;.i.1.;.;.;.a.>.>.^.^ P 3XU *.V.&.#.;.i.i.i.1.c.;.p.",
"p.#.=.i.;.;.;.;.;.;.i.i.>.;.;.;.L.! w J 7 c.Z.;.;.;.;.;.c.;.i.i.i.;.;.c.;.;.;.;.;.i.c.;.i.>.;.S.x.t +XV A.;.;...;.;.i.i.i.;.>.p.",
"p.;.i.i.;.;.i.i.i.;.;.i.i.;.;.>.L.! y S 9 x.V.;.c.;.;.;.;.;.i.;.;.i.;.;.;.i.;.;.;.;.-.i.i.;.;.S.-.y oXV B.M.;.i.;.;.%.;.i.;.>.p.",
"u.&.i.;.a.i.i.~ ] i.;.;.;.i.;.>.L.x y P 5 c.V.*.[ -.;.;.;.;.;.;.i.;.;.i.i.;.;.;.;.;.c.c.;.i.-.S.w.y +XV B.>.;.;.;.i...=.;.i.>.p.",
"u.1.;.;.>.i.i.o.o.i.;.;.1.i.1.1.L.! r A 5 c.A.-.o.;.;.1.;.;.;.i.;.;.i.;.i.i.i.;.1.i. .-.1.;.~ V.x.y oXN A.M.-.i.i.;.c.;.;.c.>.u.",
"r.1.i.;.i.;.i.c.i.;.1.c.;.;.u.;.L.x b l.7 c.V.&.c.;.;.;.c.;.;.;.i.;.;.i.;.1.i.1.&.c...*.;.1.*.S.-.t +XN B.1.;.;.1.;.i.>.;.;.;.r.",
"u.;.i.i.;.>.;.;.;.c...#.1.c.1.;.L.p A +X& c.S.=.;.i.;.;.;.a.;.;.;.;.;.1.1.i.>.i.;.-.c.;.i.1.;.S.<.y oXZ B.2.;.i.i.;.i.;.;.i.>.p.",
"p.>.>.;.;.>.;.;.;.b.~ ~ 1.;.;.>.^.x A  X& c.V.*.;.;.a.;.;.;.;.1.;.;.;.;.>.;.>.;.i.;.;.;.>.;.&.S.p.y oXV A.a.i.;.>.1.;.a.;.i.>.p.",
"r.;.i.c.;.;.1.c.;.i.c.c.u.;.;.>.L.c M XX& c.S.;.i.i.i.<.i.;.;.-.-.;.;.;.c.;.;.c.[ o.c.;.;.1.=.W.u.k oXN B.2.;.;.u.X.-.i.;.1.1.r.",
"r.&.i.;.;.;.;.i.;.;.;.;.;.>.;.2.L.4 G  X& u.^.=.;.;.i.;.;.;.;.;.;.;.;.;.;.;.;.;.-.-.;.;.;.;.&.^.o.y XXb B.M.&.c.c.' %.a.1.u.;.r.",
"p.2.>.>.;.>.2.>.>.>.2.;.2.2.2._.b.* L #X0 ! L.L.M.2.a.a.2.M.>.M.M.2.>.M.2.a.;.2.c.a.>.c.2.M.J.L.p g #Xv  ._.M.>.>.M.;.a.>.i.>.p.",
"F.B.Z.A.A.A.A.A.A.m.A.A.A.A.A.x.i X k.4XU X x n.A.A.A.A.C.C.C.C.C.C.A.C.C.A.C.C.A.C.A.A.A.A.n.x X j.4Xt.O 9.H.S.M.A.A.Z.A.H.S.G.",
"u 3 i i e = = = = = < 2 < 4 ; # 1 k.>X2X-XU 5 ; 2 2 q 2 1 2 2 1 2 2 2 3 2 1 2 2 2 2 2 q 2 *   + Y -X6X-Xb % 2 i i i i i i i i t ",
"J C S V 8.{.{.{.@X{.T.Y.Y.Y.Y.T.#X;X>X>X>X3XR.P C F D S S S D S S F S N S L H A H F S V L {.@X&X<X5X<X%XL L A Z V S S S S A S K ",
"s.c.v.x.m.oX6X6X5XoXz.I.H.H.A.m.n.c.c.c.c.b.b.c.-.c.u.i.1.c.i.i.u.i.v.w.N I Y Y I } | q.e.|.$XoX.X X*Xk.Y j.S 5.v.b.c.a.c.c.a.s.",
"u.2.:.:.2.#.z.<XU.- D.2.&...%.=.=.;.&.;.;.i.;.;.;.;.;.i.;.;.;.;.;.;.>.~.x.3 I F ^ f.;.;.;.#.@.$.$...| L Y N ' A.a.;.;.;.;.;.;.u.",
"w.&.>.;.;.C.5.*Xv w._.=.c.o.u.a.i.;.i.i.;.1.;.1.;.&.1.1.;.&.1.;.1.;.:.Z.L.e Z B c.c.;.>.;.;.>.>.a.a.x.N I w u.S.&.;.i.i.i.u.;.p.",
"r.-.;.c.-.C.5.oXN -.^.:.;.;.>.;.1.1.1.1.1.;.a.;.>.;.;.[ -.;.;.;.>.;.-.V.L.s g _ M.;.u.;.1.<.c.u.;.>.C.x J g u.B.;.x.;.>.>.1.;.u.",
"p.1.;.;.<.C.7.XXg -.(.&.;.i.;.i.i.i.;.i.;.i.;.;.i.c.u.E o.i.;.i.i.i.=.M.S.i b _ M.&.;.i.;.i.;.i.1.;.C._ P w x.B.&.;.;.;.1.;.;.u.",
"u.1.a.i.;.M.5.#Xb w.^.;.i.i.i.;.>.;.;.;.;.;.;.;.;.;.1.c.1.;.;.1.&.c.;.N.^.i v C M.;.>.;.;.>.>.;.1.;.C.C L e x.N.;.;.i.i.i.c.i.r.",
"0.1.u.] i.M.5.%Xv +./.=.<.i.;.;.;.>.>.;.;.>.;.>.a.;.;.;.;.>.i.&.*.c.-.Z.L.e b C C.;.;.;.1.&.1.;.;.;.M.C L e u.Z.;.;.;.;.1.1.>.r.",
"w.1.*.Q u.a.| @Xv -./.;.c.i.;.;.i.i.i.i.i.c.i.i.;.i.i.i.;.c.;.-.&.c.;.N.L.i l ) M.;.u.i.1.;.;.i.&.;.C.^ L u u.B.;.;.i.a.i.i.>.p.",
"p.&.M.i.i.2.7.#Xl -./.;.x ] c.;.i.i.;.;.;.i.i.i.i.i.;.;.;.i.;.;.;.;.&.N.L.i g _ M.;.o.R u.;.;.i.1.;.C.C L u u.B.&.;.i.>.-.i.i.p.",
"p.&.;.u.;.Z.e.%Xb +.`.;.X.*.;.;.i.;.;.;.;.;.;.;.;.;.;.;.;.;.-.c.;.;.&.S.L.e v _ C.;.;.[ =.;.;.>.-.&.S.C L e x.D.$.;.c.*.( -.;.r.",
"x.2.>.2.W.S.S %Xv ` ].Q.2.a.;.;.>.;.;.;.>.;.>.>.;.>.;.;.;.;.>.;.;.;.N.).n.1 n e m.L.M.Z.M.2.2.M.2.Q.S.w U y ' ].W.a.M.2.1.M.>.p.",
"P.^.(.^.D.W Z :XL O o.L.(.W.Q.L.~.~.Q.D.L.Q.D.W.Q.D.W.Q.Q.D.Q.S.D.Q._.M.p 1 S u i c.S.S.D.S.S.S.A.n.R w U N < ..^.(.^.^.(._./.I.",
"Z ^ ^ x 2 # OX6X@X0 . @ c ^ ^ ! ! ) ! ^ ^ _ ^ ) _ ^ ) ^ ^ Q ^ ^ ! ^ z > 2 b 8.A q > 0 q q 2 2 2 q > t S Y P y > i ! ! ^ ^ ) ) Z ",
"g l g d M *X6X1X5X=XY.l.S y b l u g l l y t d y t d y y y d y d y y w N A I I Y D b n V n Z Z Z Z V F Y Y Y P V l t u k k u u j ",
"S 6.T 8.P R..X.X}.|.|.|.z.4.P 8.Y 8.D F h.x.u.f.x.x.x.x.u.x.h.w.x.r.h.h.h.g.h.f.h.h.| S 8.Y Y 8.S S | | 7.7.7.e.q.q.9.q.7.0.9.4.",
"e.C Y S { %.%.=.$.#.&.*.i.i.' J T n _ S.A.M.M.c.M.c.M.c.M.M.M.M.c.M.c.M.c.2.M.2.C.M.L.X.l Y I N  .u.c.c.i.1.c.;.c.;.;.c.c.i.i.r.",
"H.O.H ` M.2.>.>.a.a.....c.>.M.V P 2 J.E.=.;.u.;.;.;.u.i.i.u.u.i.i.;.;.;.;.:.&.;.;.&.3.L.i S N w.S.&.=.;.>.>.;.>.;.;.;.-...i.i.f.",
"H.b.t X.C.;.;.;.i.c. .o.c.&.Z.' l i ^.3.i.;.;.;.;.;.;.;.;.;.>.1.;.;.-.%.c.i.i.i.1.;.&._.` b z J.C.-.-.-.i.;.c.-.;.;.;.&.#.a.i.p.",
"m.b.y X.Z.=.i.i.1.&.a.i.;.1.M.` k i Q.M.;.;.;.;.;.;.i.;.;.i.i.;.;.;.-.-.i.;.i.i.%.-.1.^.' u N A.M.;.a.i.;.i.;.i.i.;.i.>.c.u.>.x.",
"m.c.y 9.C.<.o./ x.;.;.;.-.*.Z.' l i ^.2.;.;.i.;.;.i.;.i.i.;.;.i.i.;.>.i.>.>.;.>.=.;.;.^.' v N S.M.;.i.i.;.;.;.;.;.;.i.;.i.1.>.r.",
"H.c.8 X.C.x...! u.1.i.c./ / C.` k z ^.M.;.;.c.;.i.i.;.;.;.;.i.;.;.;.a.;.;.i.i.;.1.-.;.!.' u N A.3.1.;...1.i.;.;.i.;.i.>.;.;.>.p.",
"H.b.y X.Z.=.M.b.i.<.i.i.c.-.C.' k a ~.2.;.;.;.;.;.;.i.;.;.i.;.;.i.;.;.;.1.+./ c.;.1.;.^.' g N S.M.;.i.#.;.i.;.c.i.;.i.;.<.c.>.p.",
"G.c.y o.Z.-.;.>.;.1.;.i.c.-.Z.` k p Q.M.;.;.;.i.;.;.;.u.;.;.;.;.;.;.;.&.c.%. .i.i.;.1.^.^ v N Z.M.;.i.1.1.;.;.i.;.i.;.i.;.1.>.r.",
"H.c.y X.M.&.;.c.;.;.;.;.;.;.M.` k z ^.2.;.;.i.1.i.i.;.;.i.c.;.i.i.;.;.;.;.c.c.i.i.1.;.^.' l N A.3.i.i.1.;.i.2.;.1.;.i.>.1.i.>.p.",
"A.x.t 9.S.;.x.-.;.;.;.1.1.=.S.` u i ^.E.=.;.-.;.;.;.;.;.-.;.&.;.;.;.;.;.-.;.;.u.;.=.M.'._ t N J.V.%.<.1.i.;.i.;.i.i.1.i.;.i.;.r.",
"I.f.t { /.>.&.&.>.;.=.&.&.V.^.B z 2 J.[.D.M.N.3.N.M.2.N.3.M.3.3.N.2.M.3.M.3.N.2.3.E.[._.Q N l c.).M.>.>.;.i.;.1.;.>.1.;.;.i.i.p.",
"G.c Z q C.).(.!.!.^.!././.'.<.2 N 9 X.`.).[.[.[.[.[.[.[.[.[.[.[.[.[.[.[.[.[.[.[.[.[.[.c.; Z b i A.].`././.!.!./.!.^.!./.!.^.!._.",
"h e H w 2 o.b.n.M.b.b.b.b.{ 1 u S r > ^ c.b.b.b.c.b.b.b.c.b.n.b.b.n.c.b.b.M.b.b.b.c.] q r A S , 2 ' X.o.X.X.X.X.X.X.X.o.X.9.o.5.",
"8 M t.M w % ; 1 , 1 > > > > r D 8.m w 1 < 1 1 > > > , < > > > > , 2 1 > > > , 1 1 > > r y Y P l 0 0 $ % > > > > 1 > > > > $ ; 6 ",
"G P T 8.A g g g d l u l d v J I Y Y n k g u u l u v y g v u g u u u g l u v u u y u v m P Y Y P n v g u u v u u l u l g l v u f "
};
