/* XPM */
static char *result[] = {
/* columns rows colors chars-per-pixel */
"64 64 174 2 ",
"   c #000000",
".  c #0A0602",
"X  c #0D0902",
"o  c #0B0B0B",
"O  c #130C03",
"+  c #110C08",
"@  c #190E04",
"#  c #151105",
"$  c #1A1404",
"%  c #161209",
"&  c #1C1607",
"*  c #121212",
"=  c #1B1B1B",
"-  c #231B04",
";  c #281C07",
":  c #211B09",
">  c #2F280A",
",  c #26220D",
"<  c #342A0B",
"1  c #392D0D",
"2  c #3E330C",
"3  c #2D2711",
"4  c #372D11",
"5  c #3B3817",
"6  c #3C3013",
"7  c #252525",
"8  c #2D2D2D",
"9  c #343434",
"0  c #3A3A3A",
"q  c #43360B",
"w  c #4E3F10",
"e  c #433410",
"r  c #4C400F",
"t  c #56460C",
"y  c #4A4013",
"u  c #534513",
"i  c #5A4C19",
"p  c #5D511A",
"a  c #604F13",
"s  c #6D5B14",
"d  c #6C5E1C",
"f  c #665817",
"g  c #705F1C",
"h  c #756315",
"j  c #786518",
"k  c #5F5121",
"l  c #685B24",
"z  c #6C6024",
"x  c #776528",
"c  c #776924",
"v  c #434343",
"b  c #4D4D4D",
"n  c #525252",
"m  c #666666",
"M  c #6C6C6C",
"N  c #727272",
"B  c #7B7B7B",
"V  c #836D1C",
"C  c #846F16",
"Z  c #8B7513",
"A  c #8E7916",
"S  c #85711B",
"D  c #8D761A",
"F  c #8F7A1D",
"G  c #90761C",
"H  c #937B19",
"J  c #957A19",
"K  c #847324",
"L  c #83732A",
"P  c #89752C",
"I  c #8A7A2A",
"U  c #817130",
"Y  c #9C841C",
"T  c #A1881E",
"R  c #A88C15",
"E  c #BD9D1B",
"W  c #8D812B",
"Q  c #98802F",
"!  c #9C8D2D",
"~  c #95812C",
"^  c #948232",
"/  c #A38A25",
"(  c #A08728",
")  c #A69021",
"_  c #A6962E",
"`  c #B39826",
"'  c #A28B33",
"]  c #AF963C",
"[  c #BEA122",
"{  c #BDA737",
"}  c #D8B41F",
"|  c #C09F24",
" . c #CAAB2B",
".. c #C4A725",
"X. c #CEB120",
"o. c #D9B424",
"O. c #DDBD22",
"+. c #D7B72C",
"@. c #DFBE29",
"#. c #D4B127",
"$. c #D2B63E",
"%. c #E4BE24",
"&. c #EAC61F",
"*. c #E5C224",
"=. c #E9C524",
"-. c #E6C42B",
";. c #EAC42A",
":. c #EBC82A",
">. c #F6CE27",
",. c #F1CC29",
"<. c #F5D027",
"1. c #FAD42B",
"2. c #FFDB2B",
"3. c #E6C631",
"4. c #EFCD3E",
"5. c #EEC932",
"6. c #F4CF3B",
"7. c #F1CE36",
"8. c #F5D132",
"9. c #F4D03D",
"0. c #FED93E",
"q. c #BEAE41",
"w. c #D2BC42",
"e. c #D1B542",
"r. c #DFC548",
"t. c #E5C942",
"y. c #ECCD43",
"u. c #E0C848",
"i. c #F3CF42",
"p. c #EDD144",
"a. c #F4D244",
"s. c #F9D444",
"d. c #FDDA42",
"f. c #F4D449",
"g. c #F6DA4C",
"h. c #FFDE4B",
"j. c #F8D64A",
"k. c #F5D755",
"l. c #FFE245",
"z. c #FFE24D",
"x. c #FFE94F",
"c. c #FFF24F",
"v. c #FFE251",
"b. c #FFEC56",
"n. c #FFF252",
"m. c #FFFF5B",
"M. c #FFF954",
"N. c #F8DD68",
"B. c #F7DE71",
"V. c #F9DF75",
"C. c #FCE16C",
"Z. c #FAE173",
"A. c #F6E178",
"S. c #868686",
"D. c #8B8B8B",
"F. c #929292",
"G. c #9D9D9D",
"H. c #A4A4A4",
"J. c #ADADAD",
"K. c #B2B2B2",
"L. c #BCBCBC",
"P. c #FBE68D",
"I. c #FBE381",
"U. c #FDEA93",
"Y. c #FEEC9C",
"T. c #FFEEA3",
"R. c #C4C4C4",
"E. c #CDCDCD",
"W. c #D3D3D3",
"Q. c #DCDCDC",
"!. c #E4E4E4",
"~. c #EBEBEB",
"^. c #F3F3F3",
"/. c #FEFEFE",
/* pixels */
"                                                                                                                                ",
"                                                                                                                                ",
"                                                                                                                                ",
"                                                                                                                                ",
"                                                                                                                                ",
"                                                                                                                                ",
"                                                                                                                                ",
"                                                                                                                                ",
"                                                                                                                                ",
"                                                                                                                                ",
"                                                                                                                                ",
"                                                                                                                                ",
"                                                                                                                                ",
"                                                                                                                                ",
"                                                                                                                                ",
"              . X . X X X X X +                         O X X X X X X X .                       X X X X X X X X .               ",
"            . 3 j l d d d d d s -                   . + c d d d d d d s 1 .                   . f h l d d d d s u               ",
"            O l c.z.z.z.h.z.h.1.t +                 X 1 M.z.v.h.z.h.x.<.S O                 . - k.z.z.v.z.z.v.8.[ X .           ",
"          O   a l.U.Y.U.a.a.i.:.q . X             X . - l.I.Y.Y.g.a.g.=.j   O .           X X X t.C.Y.Y.N.9.a.-.` . # .         ",
"      . , Q U ] d.Y.P.B.f.a.y.O.( L V - .     . $ P P ~ d.P.Y.V.f.a.s.} ` P V 2 .     . . c I P y.Z.T.A.k.p.j.-. .x S y .       ",
"      X u M.z.h.9.T.B.7.a.a.i.} 0.l.>.q X     X < z.v.x.9.P.P.4.i.f.j.} 6.l.1.h o     . O y.x.z.9.Z.Y.4.9.a.a.@.-.b.2.Y #       ",
"      X u m.. 5 z.4.p.a.f.a.i.:.$ $ 2.6 O     X < n.y   b.9.9.a.a.i.f.&.a   ,.j .     . # z.!   u.a.a.a.a.a.j.-./   -.Y #       ",
"      . & x W { h.a.a.a.a.a.a.*.R C f & .       # l I _ l.a.f.a.p.f.j.O.E Z d > .       . k c ! j.s.a.a.a.f.f.;.X.Z s e .       ",
"          . q.u.$.f.a.a.a.a.6.` #./                 ^ p.e.y.a.i.a.9.j.[  ...+               p f.$.t.j.a.a.a.a. ...3.$ .         ",
"            + X . v.z.a.j.8.+.X % O                 X %   w.x.f.j.6.2.O + %                 . %   ^ b.a.f.a.1.w X &             ",
"            . .   6 ' h.:.V 1   .                     .   4 c h.:.) 2   . .                   .   , i h.5. .e %   .             ",
"                    L 0.*.f .                             X w d.-.J X                             . - a.-.[ X .                 ",
"                    h *.-.a                                 2 *.*.G                                 $ O.O.[                     ",
"              . % o.*.-.=.&. .% .                     . X ` =.=.*.*.:.$ X                       O V -.=.=.*.:.w O               ",
"              . X F G A D A S X .                       . j J D D J Y O .                       . u Y D A D Y < X               ",
"                  + O O O O +                             X O + O O #                             . O + O O +                   ",
"                    .                                                                                       .                   ",
"                                                                                                                                ",
"                                                                                                                                ",
"                                                                                                                                ",
"                                                                                                                                ",
"      b 7       * b b 8     8 b b b 9     7 b     o n b 8       o n *       7 b b =   n b 9   b 7       * b b 8   b b v         ",
"    . /.B       b /./.H.    K./././.L.    S./.    v /./.K.      = /.v       N /./.M * /./.K.  /.B       b /./.H.  /./.~.        ",
"      /.B o     9 /./.G.  !.M = 8 W./.Q.o B /.o   0 /./.H.      = /.b .     M /./.m * /./.J.  ~./.Q.    0 /./.G.  /./.Q.o       ",
"      /.B .   b D././.G.o /.m     R././.o B ^.*   0 /./.H..     = /.b o     M /./.m = /./.J.  ^.W.G.M * 0 /./.H.  /./.Q.* .     ",
"      ^.S.    E./././.G.o /.N o   R././.* S./.*   0 /./.H.o     = /.b .     M /./.m = /./.J.  ^.B   /.n 9 /./.G.  /./.Q.o       ",
"        G./.^./././.v o = /.M o   R././.o S.^.*   0 /./.H..     = /.v b /.o m /./.M * /./.J.  /.S..   K./././.G.  /./.Q.* .     ",
"        v S././.Q.B 7 o o /.N     R././.* S./.o   0 /./.H.o     = /.v v /.* M /./.m = /./.J.  /.S.o   n H././.H.  /./.!.*       ",
"            /./.L.  * o . /.M o   R././.* S.^.*   0 /./.H.o     = /.v v /.* M /./.m = /./.J.  ^.S.o     9 /./.G.  ~.!.R.* o     ",
"          . /./.L.o     o /.M     R././.* D./.    8 /./.K.o     = /.0 v /.o m /./.N = /./.J.  /.S.o     0 /./.H.        = o     ",
"          o /./.R.o       0 G.E.R./.W.v * 8 n E.R.W./.M 9 *     . v K.J.9 L.~./.n 7 7 /./.K.  /.D.o     v /./.H.  E.E.K.        ",
"          o R.L.F.* .       B R.L.R.S.  *   o L.R.R.R.7 o *         F.F.  J.R.K.o o = R.R.S.o K.m o     8 L.R.B   R.R.J.o       ",
"                o =               . o =           .   * *               =     o = o       o *     =           o =     o = .     ",
"                .               .     o           .                     .     . .         .       .           .       .         ",
"                                                                                                                                ",
"                                                                                                                                ",
"                                                                                                                                ",
"                                                                                                                                ",
"                                                                                                                                ",
"                                                                                                                                ",
"                                                                                                                                ",
"                                                                                                                                ",
"                                                                                                                                ",
"                                                                                                                                ",
"                                                                                                                                ",
"                                                                                                                                ",
"                                                                                                                                ",
"                                                                                                                                ",
"                                                                                                                                "
};
